%TF.GenerationSoftware,KiCad,Pcbnew,9.0.3*%
%TF.CreationDate,2026-09-11T15:32:38+03:00*%
%TF.ProjectId,AS5600_Encoder_Node,41533536-3030-45f4-956e-636f6465725f,rev?*%
%TF.SameCoordinates,Original*%
%TF.FileFunction,Copper,L2,Bot*%
%TF.FilePolarity,Positive*%
%FSLAX46Y46*%
G04 Gerber Fmt 4.6, Leading zero omitted, Abs format (unit mm)*
G04 Created by KiCad (PCBNEW 9.0.3) date 2026-09-11 15:32:38*
%MOMM*%
%LPD*%
G01*
G04 APERTURE LIST*
%TA.AperFunction,ComponentPad*%
%ADD10C,0.800000*%
%TD*%
%TA.AperFunction,ComponentPad*%
%ADD11C,6.400000*%
%TD*%
%TA.AperFunction,ComponentPad*%
%ADD12R,1.700000X1.700000*%
%TD*%
%TA.AperFunction,ComponentPad*%
%ADD13C,1.700000*%
%TD*%
G04 APERTURE END LIST*
D10*
%TO.P,H6,1,1*%
%TO.N,GND*%
X141997056Y-72002946D03*
X142700000Y-70305890D03*
X142700000Y-73700002D03*
X144397056Y-69602946D03*
D11*
X144397056Y-72002946D03*
D10*
X144397056Y-74402946D03*
X146094112Y-70305890D03*
X146094112Y-73700002D03*
X146797056Y-72002946D03*
%TD*%
%TO.P,H5,1,1*%
%TO.N,GND*%
X121000000Y-72000002D03*
X121702944Y-70302946D03*
X121702944Y-73697058D03*
X123400000Y-69600002D03*
D11*
X123400000Y-72000002D03*
D10*
X123400000Y-74400002D03*
X125097056Y-70302946D03*
X125097056Y-73697058D03*
X125800000Y-72000002D03*
%TD*%
%TO.P,H8,1,1*%
%TO.N,GND*%
X142100000Y-96000002D03*
X142802944Y-94302946D03*
X142802944Y-97697058D03*
X144500000Y-93600002D03*
D11*
X144500000Y-96000002D03*
D10*
X144500000Y-98400002D03*
X146197056Y-94302946D03*
X146197056Y-97697058D03*
X146900000Y-96000002D03*
%TD*%
D12*
%TO.P,J7,1,Pin_1*%
%TO.N,+3V3*%
X143815000Y-80380000D03*
D13*
%TO.P,J7,2,Pin_2*%
%TO.N,/SCL*%
X143815000Y-82920000D03*
%TO.P,J7,3,Pin_3*%
%TO.N,/SDA*%
X143815000Y-85460000D03*
%TO.P,J7,4,Pin_4*%
%TO.N,GND*%
X143815000Y-88000000D03*
%TD*%
D10*
%TO.P,H7,1,1*%
%TO.N,GND*%
X121100000Y-96000002D03*
X121802944Y-94302946D03*
X121802944Y-97697058D03*
X123500000Y-93600002D03*
D11*
X123500000Y-96000002D03*
D10*
X123500000Y-98400002D03*
X125197056Y-94302946D03*
X125197056Y-97697058D03*
X125900000Y-96000002D03*
%TD*%
M02*
