%TF.GenerationSoftware,KiCad,Pcbnew,9.0.3*%
%TF.CreationDate,2026-09-11T15:32:38+03:00*%
%TF.ProjectId,AS5600_Encoder_Node,41533536-3030-45f4-956e-636f6465725f,rev?*%
%TF.SameCoordinates,Original*%
%TF.FileFunction,Soldermask,Top*%
%TF.FilePolarity,Negative*%
%FSLAX46Y46*%
G04 Gerber Fmt 4.6, Leading zero omitted, Abs format (unit mm)*
G04 Created by KiCad (PCBNEW 9.0.3) date 2026-09-11 15:32:38*
%MOMM*%
%LPD*%
G01*
G04 APERTURE LIST*
G04 Aperture macros list*
%AMRoundRect*
0 Rectangle with rounded corners*
0 $1 Rounding radius*
0 $2 $3 $4 $5 $6 $7 $8 $9 X,Y pos of 4 corners*
0 Add a 4 corners polygon primitive as box body*
4,1,4,$2,$3,$4,$5,$6,$7,$8,$9,$2,$3,0*
0 Add four circle primitives for the rounded corners*
1,1,$1+$1,$2,$3*
1,1,$1+$1,$4,$5*
1,1,$1+$1,$6,$7*
1,1,$1+$1,$8,$9*
0 Add four rect primitives between the rounded corners*
20,1,$1+$1,$2,$3,$4,$5,0*
20,1,$1+$1,$4,$5,$6,$7,0*
20,1,$1+$1,$6,$7,$8,$9,0*
20,1,$1+$1,$8,$9,$2,$3,0*%
%AMFreePoly0*
4,1,23,0.550000,-0.750000,0.000000,-0.750000,0.000000,-0.745722,-0.065263,-0.745722,-0.191342,-0.711940,-0.304381,-0.646677,-0.396677,-0.554381,-0.461940,-0.441342,-0.495722,-0.315263,-0.495722,-0.250000,-0.500000,-0.250000,-0.500000,0.250000,-0.495722,0.250000,-0.495722,0.315263,-0.461940,0.441342,-0.396677,0.554381,-0.304381,0.646677,-0.191342,0.711940,-0.065263,0.745722,0.000000,0.745722,
0.000000,0.750000,0.550000,0.750000,0.550000,-0.750000,0.550000,-0.750000,$1*%
%AMFreePoly1*
4,1,23,0.000000,0.745722,0.065263,0.745722,0.191342,0.711940,0.304381,0.646677,0.396677,0.554381,0.461940,0.441342,0.495722,0.315263,0.495722,0.250000,0.500000,0.250000,0.500000,-0.250000,0.495722,-0.250000,0.495722,-0.315263,0.461940,-0.441342,0.396677,-0.554381,0.304381,-0.646677,0.191342,-0.711940,0.065263,-0.745722,0.000000,-0.745722,0.000000,-0.750000,-0.550000,-0.750000,
-0.550000,0.750000,0.000000,0.750000,0.000000,0.745722,0.000000,0.745722,$1*%
G04 Aperture macros list end*
%ADD10O,1.950000X0.568000*%
%ADD11C,0.800000*%
%ADD12C,6.400000*%
%ADD13FreePoly0,180.000000*%
%ADD14R,1.000000X1.500000*%
%ADD15FreePoly1,180.000000*%
%ADD16RoundRect,0.225000X0.250000X-0.225000X0.250000X0.225000X-0.250000X0.225000X-0.250000X-0.225000X0*%
%ADD17R,1.700000X1.700000*%
%ADD18C,1.700000*%
G04 APERTURE END LIST*
%TO.C,JP1*%
G36*
X132350000Y-80012500D02*
G01*
X130850000Y-80012500D01*
X130850000Y-78512500D01*
X132350000Y-78512500D01*
X132350000Y-80012500D01*
G37*
%TD*%
D10*
%TO.C,U6*%
X128590000Y-82520000D03*
X128590000Y-83790000D03*
X128590000Y-85050000D03*
X128590000Y-86320000D03*
X134010000Y-86320000D03*
X134010000Y-85050000D03*
X134010000Y-83790000D03*
X134010000Y-82520000D03*
%TD*%
D11*
%TO.C,H6*%
X141997056Y-72002946D03*
X142700000Y-70305890D03*
X142700000Y-73700002D03*
X144397056Y-69602946D03*
D12*
X144397056Y-72002946D03*
D11*
X144397056Y-74402946D03*
X146094112Y-70305890D03*
X146094112Y-73700002D03*
X146797056Y-72002946D03*
%TD*%
D13*
%TO.C,JP1*%
X132900000Y-79262500D03*
D14*
X131600000Y-79262500D03*
D15*
X130300000Y-79262500D03*
%TD*%
D16*
%TO.C,C20*%
X136100000Y-80095000D03*
X136100000Y-78545000D03*
%TD*%
D11*
%TO.C,H5*%
X121000000Y-72000002D03*
X121702944Y-70302946D03*
X121702944Y-73697058D03*
X123400000Y-69600002D03*
D12*
X123400000Y-72000002D03*
D11*
X123400000Y-74400002D03*
X125097056Y-70302946D03*
X125097056Y-73697058D03*
X125800000Y-72000002D03*
%TD*%
%TO.C,H8*%
X142100000Y-96000002D03*
X142802944Y-94302946D03*
X142802944Y-97697058D03*
X144500000Y-93600002D03*
D12*
X144500000Y-96000002D03*
D11*
X144500000Y-98400002D03*
X146197056Y-94302946D03*
X146197056Y-97697058D03*
X146900000Y-96000002D03*
%TD*%
D17*
%TO.C,J7*%
X143815000Y-80380000D03*
D18*
X143815000Y-82920000D03*
X143815000Y-85460000D03*
X143815000Y-88000000D03*
%TD*%
D16*
%TO.C,C19*%
X138000000Y-80095000D03*
X138000000Y-78545000D03*
%TD*%
D11*
%TO.C,H7*%
X121100000Y-96000002D03*
X121802944Y-94302946D03*
X121802944Y-97697058D03*
X123500000Y-93600002D03*
D12*
X123500000Y-96000002D03*
D11*
X123500000Y-98400002D03*
X125197056Y-94302946D03*
X125197056Y-97697058D03*
X125900000Y-96000002D03*
%TD*%
M02*
