%TF.GenerationSoftware,KiCad,Pcbnew,9.0.3*%
%TF.CreationDate,2026-09-11T15:32:38+03:00*%
%TF.ProjectId,AS5600_Encoder_Node,41533536-3030-45f4-956e-636f6465725f,rev?*%
%TF.SameCoordinates,Original*%
%TF.FileFunction,Copper,L1,Top*%
%TF.FilePolarity,Positive*%
%FSLAX46Y46*%
G04 Gerber Fmt 4.6, Leading zero omitted, Abs format (unit mm)*
G04 Created by KiCad (PCBNEW 9.0.3) date 2026-09-11 15:32:38*
%MOMM*%
%LPD*%
G01*
G04 APERTURE LIST*
G04 Aperture macros list*
%AMRoundRect*
0 Rectangle with rounded corners*
0 $1 Rounding radius*
0 $2 $3 $4 $5 $6 $7 $8 $9 X,Y pos of 4 corners*
0 Add a 4 corners polygon primitive as box body*
4,1,4,$2,$3,$4,$5,$6,$7,$8,$9,$2,$3,0*
0 Add four circle primitives for the rounded corners*
1,1,$1+$1,$2,$3*
1,1,$1+$1,$4,$5*
1,1,$1+$1,$6,$7*
1,1,$1+$1,$8,$9*
0 Add four rect primitives between the rounded corners*
20,1,$1+$1,$2,$3,$4,$5,0*
20,1,$1+$1,$4,$5,$6,$7,0*
20,1,$1+$1,$6,$7,$8,$9,0*
20,1,$1+$1,$8,$9,$2,$3,0*%
%AMFreePoly0*
4,1,23,0.550000,-0.750000,0.000000,-0.750000,0.000000,-0.745722,-0.065263,-0.745722,-0.191342,-0.711940,-0.304381,-0.646677,-0.396677,-0.554381,-0.461940,-0.441342,-0.495722,-0.315263,-0.495722,-0.250000,-0.500000,-0.250000,-0.500000,0.250000,-0.495722,0.250000,-0.495722,0.315263,-0.461940,0.441342,-0.396677,0.554381,-0.304381,0.646677,-0.191342,0.711940,-0.065263,0.745722,0.000000,0.745722,
0.000000,0.750000,0.550000,0.750000,0.550000,-0.750000,0.550000,-0.750000,$1*%
%AMFreePoly1*
4,1,23,0.000000,0.745722,0.065263,0.745722,0.191342,0.711940,0.304381,0.646677,0.396677,0.554381,0.461940,0.441342,0.495722,0.315263,0.495722,0.250000,0.500000,0.250000,0.500000,-0.250000,0.495722,-0.250000,0.495722,-0.315263,0.461940,-0.441342,0.396677,-0.554381,0.304381,-0.646677,0.191342,-0.711940,0.065263,-0.745722,0.000000,-0.745722,0.000000,-0.750000,-0.550000,-0.750000,
-0.550000,0.750000,0.000000,0.750000,0.000000,0.745722,0.000000,0.745722,$1*%
G04 Aperture macros list end*
%TA.AperFunction,SMDPad,CuDef*%
%ADD10O,1.950000X0.568000*%
%TD*%
%TA.AperFunction,ComponentPad*%
%ADD11C,0.800000*%
%TD*%
%TA.AperFunction,ComponentPad*%
%ADD12C,6.400000*%
%TD*%
%TA.AperFunction,SMDPad,CuDef*%
%ADD13FreePoly0,180.000000*%
%TD*%
%TA.AperFunction,SMDPad,CuDef*%
%ADD14R,1.000000X1.500000*%
%TD*%
%TA.AperFunction,SMDPad,CuDef*%
%ADD15FreePoly1,180.000000*%
%TD*%
%TA.AperFunction,SMDPad,CuDef*%
%ADD16RoundRect,0.225000X0.250000X-0.225000X0.250000X0.225000X-0.250000X0.225000X-0.250000X-0.225000X0*%
%TD*%
%TA.AperFunction,ComponentPad*%
%ADD17R,1.700000X1.700000*%
%TD*%
%TA.AperFunction,ComponentPad*%
%ADD18C,1.700000*%
%TD*%
%TA.AperFunction,Conductor*%
%ADD19C,0.200000*%
%TD*%
G04 APERTURE END LIST*
D10*
%TO.P,U6,1,VDD5V*%
%TO.N,+3V3*%
X128590000Y-82520000D03*
%TO.P,U6,2,VDD3V3*%
X128590000Y-83790000D03*
%TO.P,U6,3,OUT*%
%TO.N,unconnected-(U6-OUT-Pad3)*%
X128590000Y-85050000D03*
%TO.P,U6,4,GND*%
%TO.N,GND*%
X128590000Y-86320000D03*
%TO.P,U6,5,PGO*%
%TO.N,unconnected-(U6-PGO-Pad5)*%
X134010000Y-86320000D03*
%TO.P,U6,6,SDA*%
%TO.N,/SDA*%
X134010000Y-85050000D03*
%TO.P,U6,7,SCL*%
%TO.N,/SCL*%
X134010000Y-83790000D03*
%TO.P,U6,8,DIR*%
%TO.N,/AS5600_Encoder/DIR*%
X134010000Y-82520000D03*
%TD*%
D11*
%TO.P,H6,1,1*%
%TO.N,GND*%
X141997056Y-72002946D03*
X142700000Y-70305890D03*
X142700000Y-73700002D03*
X144397056Y-69602946D03*
D12*
X144397056Y-72002946D03*
D11*
X144397056Y-74402946D03*
X146094112Y-70305890D03*
X146094112Y-73700002D03*
X146797056Y-72002946D03*
%TD*%
D13*
%TO.P,JP1,1,A*%
%TO.N,+3V3*%
X132900000Y-79262500D03*
D14*
%TO.P,JP1,2,C*%
%TO.N,/AS5600_Encoder/DIR*%
X131600000Y-79262500D03*
D15*
%TO.P,JP1,3,B*%
%TO.N,GND*%
X130300000Y-79262500D03*
%TD*%
D16*
%TO.P,C20,1*%
%TO.N,+3V3*%
X136100000Y-80095000D03*
%TO.P,C20,2*%
%TO.N,GND*%
X136100000Y-78545000D03*
%TD*%
D11*
%TO.P,H5,1,1*%
%TO.N,GND*%
X121000000Y-72000002D03*
X121702944Y-70302946D03*
X121702944Y-73697058D03*
X123400000Y-69600002D03*
D12*
X123400000Y-72000002D03*
D11*
X123400000Y-74400002D03*
X125097056Y-70302946D03*
X125097056Y-73697058D03*
X125800000Y-72000002D03*
%TD*%
%TO.P,H8,1,1*%
%TO.N,GND*%
X142100000Y-96000002D03*
X142802944Y-94302946D03*
X142802944Y-97697058D03*
X144500000Y-93600002D03*
D12*
X144500000Y-96000002D03*
D11*
X144500000Y-98400002D03*
X146197056Y-94302946D03*
X146197056Y-97697058D03*
X146900000Y-96000002D03*
%TD*%
D17*
%TO.P,J7,1,Pin_1*%
%TO.N,+3V3*%
X143815000Y-80380000D03*
D18*
%TO.P,J7,2,Pin_2*%
%TO.N,/SCL*%
X143815000Y-82920000D03*
%TO.P,J7,3,Pin_3*%
%TO.N,/SDA*%
X143815000Y-85460000D03*
%TO.P,J7,4,Pin_4*%
%TO.N,GND*%
X143815000Y-88000000D03*
%TD*%
D16*
%TO.P,C19,1*%
%TO.N,+3V3*%
X138000000Y-80095000D03*
%TO.P,C19,2*%
%TO.N,GND*%
X138000000Y-78545000D03*
%TD*%
D11*
%TO.P,H7,1,1*%
%TO.N,GND*%
X121100000Y-96000002D03*
X121802944Y-94302946D03*
X121802944Y-97697058D03*
X123500000Y-93600002D03*
D12*
X123500000Y-96000002D03*
D11*
X123500000Y-98400002D03*
X125197056Y-94302946D03*
X125197056Y-97697058D03*
X125900000Y-96000002D03*
%TD*%
D19*
%TO.N,/SDA*%
X141300000Y-85600000D02*
X143675000Y-85600000D01*
X134010000Y-85050000D02*
X140750000Y-85050000D01*
X140750000Y-85050000D02*
X141300000Y-85600000D01*
X143675000Y-85600000D02*
X143815000Y-85460000D01*
%TO.N,/SCL*%
X134010000Y-83790000D02*
X140370000Y-83790000D01*
X141240000Y-82920000D02*
X143815000Y-82920000D01*
X140370000Y-83790000D02*
X141240000Y-82920000D01*
%TO.N,/AS5600_Encoder/DIR*%
X131600000Y-80110000D02*
X134010000Y-82520000D01*
X131600000Y-79262500D02*
X131600000Y-80110000D01*
%TO.N,GND*%
X128590000Y-86320000D02*
X130270000Y-88000000D01*
X128900000Y-86320000D02*
X128590000Y-86320000D01*
X130300000Y-79262500D02*
X130300000Y-84920000D01*
X130300000Y-84920000D02*
X128900000Y-86320000D01*
X130270000Y-88000000D02*
X143815000Y-88000000D01*
%TO.N,+3V3*%
X129900000Y-77120000D02*
X131512500Y-77120000D01*
X131512500Y-77120000D02*
X132900000Y-78507500D01*
X140875000Y-80095000D02*
X141880000Y-81100000D01*
X142500000Y-81100000D02*
X143220000Y-80380000D01*
X128590000Y-82520000D02*
X128590000Y-78430000D01*
X132900000Y-79262500D02*
X132942500Y-79262500D01*
X133775000Y-80095000D02*
X136100000Y-80095000D01*
X132942500Y-79262500D02*
X133775000Y-80095000D01*
X128590000Y-78430000D02*
X129900000Y-77120000D01*
X141880000Y-81100000D02*
X142500000Y-81100000D01*
X138000000Y-80095000D02*
X140875000Y-80095000D01*
X143220000Y-80380000D02*
X143815000Y-80380000D01*
X128590000Y-83790000D02*
X128590000Y-82520000D01*
X136100000Y-80095000D02*
X138000000Y-80095000D01*
X132900000Y-78507500D02*
X132900000Y-79262500D01*
%TD*%
%TA.AperFunction,Conductor*%
%TO.N,GND*%
G36*
X147742539Y-68720185D02*
G01*
X147788294Y-68772989D01*
X147799500Y-68824500D01*
X147799500Y-99175500D01*
X147779815Y-99242539D01*
X147727011Y-99288294D01*
X147675500Y-99299500D01*
X120324500Y-99299500D01*
X120257461Y-99279815D01*
X120211706Y-99227011D01*
X120200500Y-99175500D01*
X120200500Y-82597269D01*
X127114499Y-82597269D01*
X127144646Y-82748824D01*
X127144649Y-82748834D01*
X127203783Y-82891598D01*
X127203785Y-82891601D01*
X127289635Y-83020085D01*
X127289641Y-83020093D01*
X127336867Y-83067319D01*
X127370352Y-83128642D01*
X127365368Y-83198334D01*
X127336867Y-83242681D01*
X127289641Y-83289906D01*
X127289635Y-83289914D01*
X127203785Y-83418398D01*
X127203783Y-83418401D01*
X127144649Y-83561165D01*
X127144646Y-83561175D01*
X127114500Y-83712730D01*
X127114500Y-83712733D01*
X127114500Y-83867267D01*
X127114500Y-83867269D01*
X127114499Y-83867269D01*
X127144646Y-84018824D01*
X127144649Y-84018834D01*
X127203783Y-84161598D01*
X127203785Y-84161601D01*
X127289635Y-84290085D01*
X127289641Y-84290093D01*
X127331867Y-84332319D01*
X127365352Y-84393642D01*
X127360368Y-84463334D01*
X127331867Y-84507681D01*
X127289641Y-84549906D01*
X127289635Y-84549914D01*
X127203785Y-84678398D01*
X127203783Y-84678401D01*
X127144649Y-84821165D01*
X127144646Y-84821175D01*
X127114500Y-84972730D01*
X127114500Y-84972733D01*
X127114500Y-85127267D01*
X127114500Y-85127269D01*
X127114499Y-85127269D01*
X127144646Y-85278824D01*
X127144649Y-85278834D01*
X127203783Y-85421598D01*
X127203785Y-85421601D01*
X127289635Y-85550085D01*
X127289641Y-85550093D01*
X127398906Y-85659358D01*
X127398914Y-85659364D01*
X127527398Y-85745214D01*
X127527401Y-85745216D01*
X127670165Y-85804350D01*
X127670170Y-85804352D01*
X127670174Y-85804352D01*
X127670175Y-85804353D01*
X127821730Y-85834500D01*
X127821733Y-85834500D01*
X129358269Y-85834500D01*
X129460233Y-85814217D01*
X129509830Y-85804352D01*
X129652600Y-85745215D01*
X129781090Y-85659361D01*
X129890361Y-85550090D01*
X129976215Y-85421600D01*
X130035352Y-85278830D01*
X130045217Y-85229233D01*
X130065500Y-85127269D01*
X130065500Y-84972730D01*
X130035353Y-84821175D01*
X130035352Y-84821174D01*
X130035352Y-84821170D01*
X130035350Y-84821165D01*
X129976216Y-84678401D01*
X129976214Y-84678398D01*
X129890364Y-84549914D01*
X129890358Y-84549906D01*
X129848133Y-84507681D01*
X129814648Y-84446358D01*
X129819632Y-84376666D01*
X129848133Y-84332319D01*
X129890358Y-84290093D01*
X129890361Y-84290090D01*
X129976215Y-84161600D01*
X130035352Y-84018830D01*
X130065500Y-83867267D01*
X130065500Y-83712733D01*
X130065500Y-83712730D01*
X130035353Y-83561175D01*
X130035352Y-83561174D01*
X130035352Y-83561170D01*
X130018506Y-83520500D01*
X129976216Y-83418401D01*
X129976214Y-83418398D01*
X129890364Y-83289914D01*
X129890358Y-83289906D01*
X129843133Y-83242681D01*
X129809648Y-83181358D01*
X129814632Y-83111666D01*
X129843133Y-83067319D01*
X129890358Y-83020093D01*
X129890361Y-83020090D01*
X129976215Y-82891600D01*
X130035352Y-82748830D01*
X130045217Y-82699233D01*
X130065500Y-82597269D01*
X130065500Y-82442730D01*
X130035353Y-82291175D01*
X130035352Y-82291174D01*
X130035352Y-82291170D01*
X130035350Y-82291165D01*
X129976216Y-82148401D01*
X129976214Y-82148398D01*
X129890364Y-82019914D01*
X129890358Y-82019906D01*
X129781093Y-81910641D01*
X129781085Y-81910635D01*
X129652601Y-81824785D01*
X129652598Y-81824783D01*
X129509834Y-81765649D01*
X129509824Y-81765646D01*
X129358269Y-81735500D01*
X129358267Y-81735500D01*
X129314500Y-81735500D01*
X129247461Y-81715815D01*
X129201706Y-81663011D01*
X129190500Y-81611500D01*
X129190500Y-78730097D01*
X129210185Y-78663058D01*
X129226819Y-78642416D01*
X130112417Y-77756819D01*
X130173740Y-77723334D01*
X130200098Y-77720500D01*
X131212403Y-77720500D01*
X131241843Y-77729144D01*
X131271830Y-77735668D01*
X131276845Y-77739422D01*
X131279442Y-77740185D01*
X131300084Y-77756819D01*
X131343584Y-77800319D01*
X131377069Y-77861642D01*
X131372085Y-77931334D01*
X131330213Y-77987267D01*
X131264749Y-78011684D01*
X131255904Y-78012000D01*
X131052130Y-78012000D01*
X131052123Y-78012001D01*
X130992516Y-78018408D01*
X130857671Y-78068702D01*
X130857664Y-78068706D01*
X130742455Y-78154952D01*
X130742452Y-78154955D01*
X130656206Y-78270164D01*
X130656202Y-78270171D01*
X130605908Y-78405017D01*
X130599501Y-78464616D01*
X130599500Y-78464635D01*
X130599500Y-80060370D01*
X130599501Y-80060376D01*
X130605908Y-80119983D01*
X130656202Y-80254828D01*
X130656206Y-80254835D01*
X130742452Y-80370044D01*
X130742455Y-80370047D01*
X130857664Y-80456293D01*
X130857671Y-80456297D01*
X130992516Y-80506591D01*
X131018419Y-80509375D01*
X131052127Y-80513000D01*
X131102400Y-80512999D01*
X131131842Y-80521643D01*
X131161827Y-80528166D01*
X131166840Y-80531919D01*
X131169439Y-80532682D01*
X131190081Y-80549317D01*
X131231284Y-80590520D01*
X131231285Y-80590520D01*
X131238353Y-80597588D01*
X131238355Y-80597590D01*
X132618068Y-81977304D01*
X132651553Y-82038627D01*
X132646569Y-82108319D01*
X132633491Y-82133873D01*
X132623789Y-82148393D01*
X132623783Y-82148403D01*
X132564648Y-82291169D01*
X132564646Y-82291175D01*
X132534500Y-82442730D01*
X132534500Y-82442733D01*
X132534500Y-82597267D01*
X132534500Y-82597269D01*
X132534499Y-82597269D01*
X132564646Y-82748824D01*
X132564649Y-82748834D01*
X132623783Y-82891598D01*
X132623785Y-82891601D01*
X132709635Y-83020085D01*
X132709641Y-83020093D01*
X132756867Y-83067319D01*
X132790352Y-83128642D01*
X132785368Y-83198334D01*
X132756867Y-83242681D01*
X132709641Y-83289906D01*
X132709635Y-83289914D01*
X132623785Y-83418398D01*
X132623783Y-83418401D01*
X132564649Y-83561165D01*
X132564646Y-83561175D01*
X132534500Y-83712730D01*
X132534500Y-83712733D01*
X132534500Y-83867267D01*
X132534500Y-83867269D01*
X132534499Y-83867269D01*
X132564646Y-84018824D01*
X132564649Y-84018834D01*
X132623783Y-84161598D01*
X132623785Y-84161601D01*
X132709635Y-84290085D01*
X132709641Y-84290093D01*
X132751867Y-84332319D01*
X132785352Y-84393642D01*
X132780368Y-84463334D01*
X132751867Y-84507681D01*
X132709641Y-84549906D01*
X132709635Y-84549914D01*
X132623785Y-84678398D01*
X132623783Y-84678401D01*
X132564649Y-84821165D01*
X132564646Y-84821175D01*
X132534500Y-84972730D01*
X132534500Y-84972733D01*
X132534500Y-85127267D01*
X132534500Y-85127269D01*
X132534499Y-85127269D01*
X132564646Y-85278824D01*
X132564649Y-85278834D01*
X132623783Y-85421598D01*
X132623785Y-85421601D01*
X132709635Y-85550085D01*
X132709641Y-85550093D01*
X132756867Y-85597319D01*
X132790352Y-85658642D01*
X132785368Y-85728334D01*
X132756867Y-85772681D01*
X132709641Y-85819906D01*
X132709635Y-85819914D01*
X132623785Y-85948398D01*
X132623783Y-85948401D01*
X132564649Y-86091165D01*
X132564646Y-86091175D01*
X132534500Y-86242730D01*
X132534500Y-86242733D01*
X132534500Y-86397267D01*
X132534500Y-86397269D01*
X132534499Y-86397269D01*
X132564646Y-86548824D01*
X132564649Y-86548834D01*
X132623783Y-86691598D01*
X132623785Y-86691601D01*
X132709635Y-86820085D01*
X132709641Y-86820093D01*
X132818906Y-86929358D01*
X132818914Y-86929364D01*
X132947398Y-87015214D01*
X132947401Y-87015216D01*
X133090165Y-87074350D01*
X133090170Y-87074352D01*
X133090174Y-87074352D01*
X133090175Y-87074353D01*
X133241730Y-87104500D01*
X133241733Y-87104500D01*
X134778269Y-87104500D01*
X134880233Y-87084217D01*
X134929830Y-87074352D01*
X135072600Y-87015215D01*
X135201090Y-86929361D01*
X135310361Y-86820090D01*
X135396215Y-86691600D01*
X135455352Y-86548830D01*
X135485500Y-86397267D01*
X135485500Y-86242733D01*
X135485500Y-86242730D01*
X135455353Y-86091175D01*
X135455352Y-86091174D01*
X135455352Y-86091170D01*
X135450941Y-86080520D01*
X135396217Y-85948403D01*
X135326050Y-85843390D01*
X135305173Y-85776713D01*
X135323658Y-85709333D01*
X135375637Y-85662643D01*
X135429153Y-85650500D01*
X140449903Y-85650500D01*
X140516942Y-85670185D01*
X140537584Y-85686819D01*
X140815139Y-85964374D01*
X140815149Y-85964385D01*
X140819479Y-85968715D01*
X140819480Y-85968716D01*
X140931284Y-86080520D01*
X140931286Y-86080521D01*
X140931290Y-86080524D01*
X141068209Y-86159573D01*
X141068216Y-86159577D01*
X141180019Y-86189534D01*
X141220942Y-86200500D01*
X141220943Y-86200500D01*
X142620514Y-86200500D01*
X142687553Y-86220185D01*
X142720833Y-86251616D01*
X142784892Y-86339788D01*
X142935213Y-86490109D01*
X143107179Y-86615048D01*
X143107181Y-86615049D01*
X143107184Y-86615051D01*
X143296588Y-86711557D01*
X143498757Y-86777246D01*
X143708713Y-86810500D01*
X143708714Y-86810500D01*
X143921286Y-86810500D01*
X143921287Y-86810500D01*
X144131243Y-86777246D01*
X144333412Y-86711557D01*
X144522816Y-86615051D01*
X144613962Y-86548830D01*
X144694786Y-86490109D01*
X144694788Y-86490106D01*
X144694792Y-86490104D01*
X144845104Y-86339792D01*
X144845106Y-86339788D01*
X144845109Y-86339786D01*
X144970048Y-86167820D01*
X144970047Y-86167820D01*
X144970051Y-86167816D01*
X145066557Y-85978412D01*
X145132246Y-85776243D01*
X145165500Y-85566287D01*
X145165500Y-85353713D01*
X145132246Y-85143757D01*
X145066557Y-84941588D01*
X144970051Y-84752184D01*
X144970049Y-84752181D01*
X144970048Y-84752179D01*
X144845109Y-84580213D01*
X144694786Y-84429890D01*
X144522820Y-84304951D01*
X144522115Y-84304591D01*
X144514054Y-84300485D01*
X144463259Y-84252512D01*
X144446463Y-84184692D01*
X144468999Y-84118556D01*
X144514054Y-84079515D01*
X144522816Y-84075051D01*
X144600198Y-84018830D01*
X144694786Y-83950109D01*
X144694788Y-83950106D01*
X144694792Y-83950104D01*
X144845104Y-83799792D01*
X144845106Y-83799788D01*
X144845109Y-83799786D01*
X144970048Y-83627820D01*
X144970047Y-83627820D01*
X144970051Y-83627816D01*
X145066557Y-83438412D01*
X145132246Y-83236243D01*
X145165500Y-83026287D01*
X145165500Y-82813713D01*
X145132246Y-82603757D01*
X145066557Y-82401588D01*
X144970051Y-82212184D01*
X144970049Y-82212181D01*
X144970048Y-82212179D01*
X144845109Y-82040213D01*
X144731569Y-81926673D01*
X144698084Y-81865350D01*
X144703068Y-81795658D01*
X144744940Y-81739725D01*
X144775915Y-81722810D01*
X144907331Y-81673796D01*
X145022546Y-81587546D01*
X145108796Y-81472331D01*
X145159091Y-81337483D01*
X145165500Y-81277873D01*
X145165499Y-79482128D01*
X145159091Y-79422517D01*
X145108796Y-79287669D01*
X145108795Y-79287668D01*
X145108793Y-79287664D01*
X145022547Y-79172455D01*
X145022544Y-79172452D01*
X144907335Y-79086206D01*
X144907328Y-79086202D01*
X144772482Y-79035908D01*
X144772483Y-79035908D01*
X144712883Y-79029501D01*
X144712881Y-79029500D01*
X144712873Y-79029500D01*
X144712864Y-79029500D01*
X142917129Y-79029500D01*
X142917123Y-79029501D01*
X142857516Y-79035908D01*
X142722671Y-79086202D01*
X142722664Y-79086206D01*
X142607455Y-79172452D01*
X142607452Y-79172455D01*
X142521206Y-79287664D01*
X142521202Y-79287671D01*
X142470908Y-79422517D01*
X142464501Y-79482116D01*
X142464501Y-79482123D01*
X142464500Y-79482135D01*
X142464500Y-80234902D01*
X142455854Y-80264344D01*
X142449332Y-80294328D01*
X142445577Y-80299343D01*
X142444815Y-80301941D01*
X142428185Y-80322578D01*
X142287582Y-80463182D01*
X142226262Y-80496666D01*
X142199903Y-80499500D01*
X142180098Y-80499500D01*
X142113059Y-80479815D01*
X142092417Y-80463181D01*
X141362590Y-79733355D01*
X141362588Y-79733352D01*
X141243717Y-79614481D01*
X141243716Y-79614480D01*
X141132766Y-79550423D01*
X141132766Y-79550422D01*
X141132761Y-79550421D01*
X141123696Y-79545187D01*
X141106786Y-79535423D01*
X141068603Y-79525192D01*
X140954057Y-79494499D01*
X140795943Y-79494499D01*
X140788347Y-79494499D01*
X140788331Y-79494500D01*
X138940004Y-79494500D01*
X138872965Y-79474815D01*
X138834465Y-79435596D01*
X138822968Y-79416956D01*
X138703044Y-79297032D01*
X138703040Y-79297029D01*
X138558705Y-79208001D01*
X138558699Y-79207998D01*
X138558697Y-79207997D01*
X138558694Y-79207996D01*
X138397709Y-79154651D01*
X138298346Y-79144500D01*
X137701662Y-79144500D01*
X137701644Y-79144501D01*
X137602292Y-79154650D01*
X137602289Y-79154651D01*
X137441305Y-79207996D01*
X137441294Y-79208001D01*
X137296959Y-79297029D01*
X137296955Y-79297032D01*
X137177031Y-79416956D01*
X137165535Y-79435596D01*
X137157948Y-79442419D01*
X137153709Y-79451703D01*
X137132410Y-79465390D01*
X137113588Y-79482321D01*
X137101951Y-79484965D01*
X137094931Y-79489477D01*
X137059996Y-79494500D01*
X137040004Y-79494500D01*
X136972965Y-79474815D01*
X136934465Y-79435596D01*
X136922968Y-79416956D01*
X136803044Y-79297032D01*
X136803040Y-79297029D01*
X136658705Y-79208001D01*
X136658699Y-79207998D01*
X136658697Y-79207997D01*
X136658694Y-79207996D01*
X136497709Y-79154651D01*
X136398346Y-79144500D01*
X135801662Y-79144500D01*
X135801644Y-79144501D01*
X135702292Y-79154650D01*
X135702289Y-79154651D01*
X135541305Y-79207996D01*
X135541294Y-79208001D01*
X135396959Y-79297029D01*
X135396955Y-79297032D01*
X135277031Y-79416956D01*
X135265535Y-79435596D01*
X135213588Y-79482321D01*
X135159996Y-79494500D01*
X134075098Y-79494500D01*
X134045657Y-79485855D01*
X134015671Y-79479332D01*
X134010655Y-79475577D01*
X134008059Y-79474815D01*
X133987417Y-79458181D01*
X133941819Y-79412583D01*
X133908334Y-79351260D01*
X133905500Y-79324902D01*
X133905500Y-78946680D01*
X133905499Y-78946666D01*
X133888275Y-78815841D01*
X133888275Y-78815838D01*
X133854200Y-78688671D01*
X133803701Y-78566757D01*
X133803698Y-78566752D01*
X133803697Y-78566749D01*
X133803696Y-78566748D01*
X133737879Y-78452750D01*
X133737875Y-78452743D01*
X133657541Y-78348051D01*
X133564449Y-78254959D01*
X133490500Y-78198215D01*
X133459767Y-78174632D01*
X133459749Y-78174620D01*
X133371217Y-78123506D01*
X133345540Y-78103804D01*
X133268716Y-78026980D01*
X133268713Y-78026978D01*
X132000090Y-76758355D01*
X132000088Y-76758352D01*
X131881217Y-76639481D01*
X131881216Y-76639480D01*
X131794404Y-76589360D01*
X131794404Y-76589359D01*
X131794400Y-76589358D01*
X131744285Y-76560423D01*
X131591557Y-76519499D01*
X131433443Y-76519499D01*
X131425847Y-76519499D01*
X131425831Y-76519500D01*
X129986670Y-76519500D01*
X129986654Y-76519499D01*
X129979058Y-76519499D01*
X129820943Y-76519499D01*
X129744579Y-76539961D01*
X129668214Y-76560423D01*
X129668209Y-76560426D01*
X129531290Y-76639475D01*
X129531282Y-76639481D01*
X128109481Y-78061282D01*
X128109477Y-78061287D01*
X128064736Y-78138783D01*
X128064736Y-78138784D01*
X128030423Y-78198214D01*
X128030423Y-78198215D01*
X127989499Y-78350943D01*
X127989499Y-78350945D01*
X127989499Y-78519046D01*
X127989500Y-78519059D01*
X127989500Y-81611500D01*
X127969815Y-81678539D01*
X127917011Y-81724294D01*
X127865500Y-81735500D01*
X127821731Y-81735500D01*
X127670175Y-81765646D01*
X127670165Y-81765649D01*
X127527401Y-81824783D01*
X127527398Y-81824785D01*
X127398914Y-81910635D01*
X127398906Y-81910641D01*
X127289641Y-82019906D01*
X127289635Y-82019914D01*
X127203785Y-82148398D01*
X127203783Y-82148401D01*
X127144649Y-82291165D01*
X127144646Y-82291175D01*
X127114500Y-82442730D01*
X127114500Y-82442733D01*
X127114500Y-82597267D01*
X127114500Y-82597269D01*
X127114499Y-82597269D01*
X120200500Y-82597269D01*
X120200500Y-68824500D01*
X120220185Y-68757461D01*
X120272989Y-68711706D01*
X120324500Y-68700500D01*
X147675500Y-68700500D01*
X147742539Y-68720185D01*
G37*
%TD.AperFunction*%
%TD*%
M02*
