M48
; DRILL file {KiCad 9.0.3} date 2026-09-11T15:32:40+0300
; FORMAT={-:-/ absolute / metric / decimal}
; #@! TF.CreationDate,2026-09-11T15:32:40+03:00
; #@! TF.GenerationSoftware,Kicad,Pcbnew,9.0.3
; #@! TF.FileFunction,Plated,1,2,PTH
FMAT,2
METRIC
; #@! TA.AperFunction,Plated,PTH,ComponentDrill
T1C0.500
; #@! TA.AperFunction,Plated,PTH,ComponentDrill
T2C1.000
; #@! TA.AperFunction,Plated,PTH,ComponentDrill
T3C3.200
%
G90
G05
T1
X121.0Y-72.0
X121.1Y-96.0
X121.703Y-70.303
X121.703Y-73.697
X121.803Y-94.303
X121.803Y-97.697
X123.4Y-69.6
X123.4Y-74.4
X123.5Y-93.6
X123.5Y-98.4
X125.097Y-70.303
X125.097Y-73.697
X125.197Y-94.303
X125.197Y-97.697
X125.8Y-72.0
X125.9Y-96.0
X141.997Y-72.003
X142.1Y-96.0
X142.7Y-70.306
X142.7Y-73.7
X142.803Y-94.303
X142.803Y-97.697
X144.397Y-69.603
X144.397Y-74.403
X144.5Y-93.6
X144.5Y-98.4
X146.094Y-70.306
X146.094Y-73.7
X146.197Y-94.303
X146.197Y-97.697
X146.797Y-72.003
X146.9Y-96.0
T2
X143.815Y-80.38
X143.815Y-82.92
X143.815Y-85.46
X143.815Y-88.0
T3
X123.4Y-72.0
X123.5Y-96.0
X144.397Y-72.003
X144.5Y-96.0
M30
