%TF.GenerationSoftware,KiCad,Pcbnew,9.0.3*%
%TF.CreationDate,2026-09-11T15:28:53+03:00*%
%TF.ProjectId,motor_controller,6d6f746f-725f-4636-9f6e-74726f6c6c65,rev?*%
%TF.SameCoordinates,Original*%
%TF.FileFunction,Soldermask,Bot*%
%TF.FilePolarity,Negative*%
%FSLAX46Y46*%
G04 Gerber Fmt 4.6, Leading zero omitted, Abs format (unit mm)*
G04 Created by KiCad (PCBNEW 9.0.3) date 2026-09-11 15:28:53*
%MOMM*%
%LPD*%
G01*
G04 APERTURE LIST*
G04 Aperture macros list*
%AMRoundRect*
0 Rectangle with rounded corners*
0 $1 Rounding radius*
0 $2 $3 $4 $5 $6 $7 $8 $9 X,Y pos of 4 corners*
0 Add a 4 corners polygon primitive as box body*
4,1,4,$2,$3,$4,$5,$6,$7,$8,$9,$2,$3,0*
0 Add four circle primitives for the rounded corners*
1,1,$1+$1,$2,$3*
1,1,$1+$1,$4,$5*
1,1,$1+$1,$6,$7*
1,1,$1+$1,$8,$9*
0 Add four rect primitives between the rounded corners*
20,1,$1+$1,$2,$3,$4,$5,0*
20,1,$1+$1,$4,$5,$6,$7,0*
20,1,$1+$1,$6,$7,$8,$9,0*
20,1,$1+$1,$8,$9,$2,$3,0*%
G04 Aperture macros list end*
%ADD10R,1.700000X1.700000*%
%ADD11C,1.700000*%
%ADD12RoundRect,0.250000X-1.050000X1.050000X-1.050000X-1.050000X1.050000X-1.050000X1.050000X1.050000X0*%
%ADD13C,2.600000*%
%ADD14RoundRect,0.250000X-0.550000X0.550000X-0.550000X-0.550000X0.550000X-0.550000X0.550000X0.550000X0*%
%ADD15C,1.600000*%
%ADD16RoundRect,0.250000X1.050000X1.050000X-1.050000X1.050000X-1.050000X-1.050000X1.050000X-1.050000X0*%
%ADD17RoundRect,0.250000X0.725000X-0.600000X0.725000X0.600000X-0.725000X0.600000X-0.725000X-0.600000X0*%
%ADD18O,1.950000X1.700000*%
%ADD19C,0.800000*%
%ADD20C,6.400000*%
%ADD21C,0.610000*%
G04 APERTURE END LIST*
D10*
%TO.C,J3*%
X124310000Y-104515000D03*
D11*
X121770000Y-104515000D03*
X119230000Y-104515000D03*
X116690000Y-104515000D03*
%TD*%
D12*
%TO.C,J8*%
X62035000Y-66155000D03*
D13*
X62035000Y-71235000D03*
%TD*%
D14*
%TO.C,C1*%
X77400000Y-57200000D03*
D15*
X77400000Y-60700000D03*
%TD*%
D16*
%TO.C,J1*%
X64800000Y-51097500D03*
D13*
X59720000Y-51097500D03*
%TD*%
D14*
%TO.C,C2*%
X114300000Y-62570000D03*
D15*
X114300000Y-66070000D03*
%TD*%
D10*
%TO.C,J6*%
X101185000Y-98510000D03*
D11*
X101185000Y-95970000D03*
X101185000Y-93430000D03*
X101185000Y-90890000D03*
%TD*%
D14*
%TO.C,C3*%
X126000000Y-62570000D03*
D15*
X126000000Y-66070000D03*
%TD*%
D17*
%TO.C,J2*%
X146600000Y-105250000D03*
D18*
X146600000Y-102750000D03*
X146600000Y-100250000D03*
%TD*%
D14*
%TO.C,C15*%
X79200000Y-77272349D03*
D15*
X79200000Y-80772349D03*
%TD*%
D19*
%TO.C,H1*%
X116400000Y-52100000D03*
X117102944Y-50402944D03*
X117102944Y-53797056D03*
X118800000Y-49700000D03*
D20*
X118800000Y-52100000D03*
D19*
X118800000Y-54500000D03*
X120497056Y-50402944D03*
X120497056Y-53797056D03*
X121200000Y-52100000D03*
%TD*%
%TO.C,H2*%
X134300000Y-92000000D03*
X135002944Y-90302944D03*
X135002944Y-93697056D03*
X136700000Y-89600000D03*
D20*
X136700000Y-92000000D03*
D19*
X136700000Y-94400000D03*
X138397056Y-90302944D03*
X138397056Y-93697056D03*
X139100000Y-92000000D03*
%TD*%
D21*
%TO.C,U4*%
X91300000Y-78225000D03*
X92300000Y-78225000D03*
X91300000Y-77225000D03*
X92300000Y-77225000D03*
%TD*%
D14*
%TO.C,C4*%
X141000000Y-60170000D03*
D15*
X141000000Y-63670000D03*
%TD*%
D10*
%TO.C,J4*%
X138205000Y-78860000D03*
D11*
X138205000Y-81400000D03*
%TD*%
D17*
%TO.C,J5*%
X146600000Y-90600000D03*
D18*
X146600000Y-88100000D03*
X146600000Y-85600000D03*
%TD*%
M02*
