%TF.GenerationSoftware,KiCad,Pcbnew,9.0.3*%
%TF.CreationDate,2026-09-11T15:28:53+03:00*%
%TF.ProjectId,motor_controller,6d6f746f-725f-4636-9f6e-74726f6c6c65,rev?*%
%TF.SameCoordinates,Original*%
%TF.FileFunction,Copper,L3,Inr*%
%TF.FilePolarity,Positive*%
%FSLAX46Y46*%
G04 Gerber Fmt 4.6, Leading zero omitted, Abs format (unit mm)*
G04 Created by KiCad (PCBNEW 9.0.3) date 2026-09-11 15:28:53*
%MOMM*%
%LPD*%
G01*
G04 APERTURE LIST*
G04 Aperture macros list*
%AMRoundRect*
0 Rectangle with rounded corners*
0 $1 Rounding radius*
0 $2 $3 $4 $5 $6 $7 $8 $9 X,Y pos of 4 corners*
0 Add a 4 corners polygon primitive as box body*
4,1,4,$2,$3,$4,$5,$6,$7,$8,$9,$2,$3,0*
0 Add four circle primitives for the rounded corners*
1,1,$1+$1,$2,$3*
1,1,$1+$1,$4,$5*
1,1,$1+$1,$6,$7*
1,1,$1+$1,$8,$9*
0 Add four rect primitives between the rounded corners*
20,1,$1+$1,$2,$3,$4,$5,0*
20,1,$1+$1,$4,$5,$6,$7,0*
20,1,$1+$1,$6,$7,$8,$9,0*
20,1,$1+$1,$8,$9,$2,$3,0*%
G04 Aperture macros list end*
%TA.AperFunction,ComponentPad*%
%ADD10R,1.700000X1.700000*%
%TD*%
%TA.AperFunction,ComponentPad*%
%ADD11C,1.700000*%
%TD*%
%TA.AperFunction,ComponentPad*%
%ADD12RoundRect,0.250000X-1.050000X1.050000X-1.050000X-1.050000X1.050000X-1.050000X1.050000X1.050000X0*%
%TD*%
%TA.AperFunction,ComponentPad*%
%ADD13C,2.600000*%
%TD*%
%TA.AperFunction,ComponentPad*%
%ADD14RoundRect,0.250000X-0.550000X0.550000X-0.550000X-0.550000X0.550000X-0.550000X0.550000X0.550000X0*%
%TD*%
%TA.AperFunction,ComponentPad*%
%ADD15C,1.600000*%
%TD*%
%TA.AperFunction,ComponentPad*%
%ADD16RoundRect,0.250000X1.050000X1.050000X-1.050000X1.050000X-1.050000X-1.050000X1.050000X-1.050000X0*%
%TD*%
%TA.AperFunction,ComponentPad*%
%ADD17RoundRect,0.250000X0.725000X-0.600000X0.725000X0.600000X-0.725000X0.600000X-0.725000X-0.600000X0*%
%TD*%
%TA.AperFunction,ComponentPad*%
%ADD18O,1.950000X1.700000*%
%TD*%
%TA.AperFunction,ComponentPad*%
%ADD19C,0.800000*%
%TD*%
%TA.AperFunction,ComponentPad*%
%ADD20C,6.400000*%
%TD*%
%TA.AperFunction,ComponentPad*%
%ADD21C,0.610000*%
%TD*%
%TA.AperFunction,ViaPad*%
%ADD22C,1.300000*%
%TD*%
%TA.AperFunction,ViaPad*%
%ADD23C,0.600000*%
%TD*%
%TA.AperFunction,ViaPad*%
%ADD24C,0.800000*%
%TD*%
%TA.AperFunction,ViaPad*%
%ADD25C,3.000000*%
%TD*%
G04 APERTURE END LIST*
D10*
%TO.N,+3V3*%
%TO.C,J3*%
X124310000Y-104515000D03*
D11*
%TO.N,/PA13*%
X121770000Y-104515000D03*
%TO.N,/PA14*%
X119230000Y-104515000D03*
%TO.N,GND*%
X116690000Y-104515000D03*
%TD*%
D12*
%TO.N,/OUT_1*%
%TO.C,J8*%
X62035000Y-66155000D03*
D13*
%TO.N,/OUT_2*%
X62035000Y-71235000D03*
%TD*%
D14*
%TO.N,+12V*%
%TO.C,C1*%
X77400000Y-57200000D03*
D15*
%TO.N,GND*%
X77400000Y-60700000D03*
%TD*%
D16*
%TO.N,Net-(D1-A)*%
%TO.C,J1*%
X64800000Y-51097500D03*
D13*
%TO.N,GND*%
X59720000Y-51097500D03*
%TD*%
D14*
%TO.N,+5V*%
%TO.C,C2*%
X114300000Y-62570000D03*
D15*
%TO.N,GND*%
X114300000Y-66070000D03*
%TD*%
D10*
%TO.N,+3V3*%
%TO.C,J6*%
X101185000Y-98510000D03*
D11*
%TO.N,/SCL*%
X101185000Y-95970000D03*
%TO.N,/SDA*%
X101185000Y-93430000D03*
%TO.N,GND*%
X101185000Y-90890000D03*
%TD*%
D14*
%TO.N,+5V*%
%TO.C,C3*%
X126000000Y-62570000D03*
D15*
%TO.N,GND*%
X126000000Y-66070000D03*
%TD*%
D17*
%TO.N,/CANL*%
%TO.C,J2*%
X146600000Y-105250000D03*
D18*
%TO.N,/CANH*%
X146600000Y-102750000D03*
%TO.N,GND*%
X146600000Y-100250000D03*
%TD*%
D14*
%TO.N,+12V*%
%TO.C,C15*%
X79200000Y-77272349D03*
D15*
%TO.N,GND*%
X79200000Y-80772349D03*
%TD*%
D19*
%TO.N,GND*%
%TO.C,H1*%
X116400000Y-52100000D03*
X117102944Y-50402944D03*
X117102944Y-53797056D03*
X118800000Y-49700000D03*
D20*
X118800000Y-52100000D03*
D19*
X118800000Y-54500000D03*
X120497056Y-50402944D03*
X120497056Y-53797056D03*
X121200000Y-52100000D03*
%TD*%
%TO.N,GND*%
%TO.C,H2*%
X134300000Y-92000000D03*
X135002944Y-90302944D03*
X135002944Y-93697056D03*
X136700000Y-89600000D03*
D20*
X136700000Y-92000000D03*
D19*
X136700000Y-94400000D03*
X138397056Y-90302944D03*
X138397056Y-93697056D03*
X139100000Y-92000000D03*
%TD*%
D21*
%TO.N,GND*%
%TO.C,U4*%
X91300000Y-78225000D03*
X92300000Y-78225000D03*
X91300000Y-77225000D03*
X92300000Y-77225000D03*
%TD*%
D14*
%TO.N,+3V3*%
%TO.C,C4*%
X141000000Y-60170000D03*
D15*
%TO.N,GND*%
X141000000Y-63670000D03*
%TD*%
D10*
%TO.N,/CANL*%
%TO.C,J4*%
X138205000Y-78860000D03*
D11*
%TO.N,Net-(J4-Pin_2)*%
X138205000Y-81400000D03*
%TD*%
D17*
%TO.N,/CANL*%
%TO.C,J5*%
X146600000Y-90600000D03*
D18*
%TO.N,/CANH*%
X146600000Y-88100000D03*
%TO.N,GND*%
X146600000Y-85600000D03*
%TD*%
D22*
%TO.N,+12V*%
X81500000Y-77100000D03*
X76300000Y-54500000D03*
X79500000Y-52200000D03*
X82900000Y-76100000D03*
X78100000Y-54700000D03*
D23*
%TO.N,GND*%
X125500000Y-82100000D03*
D22*
X130900000Y-66300000D03*
X142700000Y-66000000D03*
D23*
X113200000Y-104300000D03*
X128125000Y-80700000D03*
D24*
X98400000Y-74175000D03*
D22*
X60900000Y-54100000D03*
X78800000Y-64200000D03*
D24*
X92600000Y-74800000D03*
D23*
X113700000Y-86700000D03*
X115000000Y-54800000D03*
D24*
X90700000Y-74800000D03*
D22*
X76400000Y-64200000D03*
X87500000Y-48600000D03*
D23*
X132100000Y-88600000D03*
D22*
X89100000Y-67200000D03*
D23*
X118000000Y-82850000D03*
X141000000Y-74100000D03*
D24*
X92600000Y-80900000D03*
X98000000Y-79825000D03*
D22*
X94800000Y-48600000D03*
D23*
X126600000Y-99600000D03*
X113100000Y-73250000D03*
X122500000Y-49400000D03*
X136700000Y-96100000D03*
X140800000Y-93100000D03*
X115900000Y-73250000D03*
X120800000Y-88200000D03*
X127100000Y-73300000D03*
D22*
X127000000Y-48900000D03*
D23*
X146100000Y-81600000D03*
X115800000Y-96475000D03*
D22*
X82600000Y-79900000D03*
D23*
X128300000Y-85400000D03*
X138100000Y-70400000D03*
D22*
X132100000Y-65000000D03*
D23*
X140800000Y-90700000D03*
D24*
X89000000Y-80900000D03*
D23*
X122800000Y-54800000D03*
X114900000Y-49400000D03*
D22*
X91150000Y-48600000D03*
X96840000Y-66660000D03*
D23*
X133200000Y-97000000D03*
D24*
X90800000Y-80900000D03*
D22*
X116500000Y-65700000D03*
X118600000Y-66300000D03*
X58400000Y-54100000D03*
X140100000Y-66000000D03*
D23*
X146100000Y-95600000D03*
X104100000Y-90600000D03*
D22*
%TO.N,+3V3*%
X137500000Y-53300000D03*
D23*
X117475000Y-94300000D03*
D22*
X144900000Y-58300000D03*
D23*
X127200000Y-74800000D03*
D22*
X137500000Y-55800000D03*
D23*
X127800000Y-104100000D03*
X112200000Y-83000000D03*
X115800000Y-94925000D03*
X133200000Y-105800000D03*
X125800000Y-94600000D03*
X104500000Y-100200000D03*
X124600000Y-87900000D03*
D22*
X141100000Y-56700000D03*
D23*
X130300000Y-91800000D03*
D24*
X99300000Y-80100000D03*
D25*
%TO.N,/OUT_1*%
X94100000Y-72200000D03*
%TO.N,/OUT_2*%
X85400000Y-73800000D03*
D23*
%TO.N,/PA14*%
X122300000Y-93400000D03*
X119400000Y-102000000D03*
%TO.N,/SDA*%
X124000000Y-90400000D03*
X105700000Y-92700000D03*
%TO.N,/SCL*%
X124000000Y-91300000D03*
X106600000Y-93100000D03*
%TO.N,/PB2*%
X100900000Y-82200000D03*
X102000000Y-85000000D03*
X98209620Y-82290380D03*
X96088822Y-78045000D03*
%TD*%
%TA.AperFunction,Conductor*%
%TO.N,+3V3*%
G36*
X148209640Y-46202027D02*
G01*
X148225080Y-46204472D01*
X148273154Y-46212086D01*
X148310046Y-46224073D01*
X148358544Y-46248783D01*
X148360450Y-46250168D01*
X148361675Y-46250435D01*
X148389929Y-46271586D01*
X148428413Y-46310070D01*
X148451217Y-46341457D01*
X148475925Y-46389950D01*
X148487913Y-46426845D01*
X148497973Y-46490358D01*
X148499500Y-46509757D01*
X148499500Y-108290242D01*
X148497973Y-108309639D01*
X148497973Y-108309641D01*
X148487913Y-108373154D01*
X148475925Y-108410049D01*
X148451217Y-108458542D01*
X148428413Y-108489929D01*
X148389929Y-108528413D01*
X148358542Y-108551217D01*
X148310049Y-108575925D01*
X148273154Y-108587913D01*
X148235734Y-108593840D01*
X148209639Y-108597973D01*
X148190243Y-108599500D01*
X110409757Y-108599500D01*
X110390360Y-108597973D01*
X110349549Y-108591509D01*
X110326845Y-108587913D01*
X110289950Y-108575925D01*
X110241457Y-108551217D01*
X110210070Y-108528413D01*
X110171586Y-108489929D01*
X110148782Y-108458542D01*
X110124073Y-108410046D01*
X110112086Y-108373152D01*
X110111427Y-108368993D01*
X110102027Y-108309639D01*
X110100500Y-108290242D01*
X110100500Y-104221153D01*
X112399500Y-104221153D01*
X112399500Y-104378846D01*
X112430261Y-104533489D01*
X112430264Y-104533501D01*
X112490602Y-104679172D01*
X112490609Y-104679185D01*
X112578210Y-104810288D01*
X112578213Y-104810292D01*
X112689707Y-104921786D01*
X112689711Y-104921789D01*
X112820814Y-105009390D01*
X112820827Y-105009397D01*
X112966498Y-105069735D01*
X112966503Y-105069737D01*
X113121153Y-105100499D01*
X113121156Y-105100500D01*
X113121158Y-105100500D01*
X113278844Y-105100500D01*
X113278845Y-105100499D01*
X113433497Y-105069737D01*
X113579179Y-105009394D01*
X113710289Y-104921789D01*
X113821789Y-104810289D01*
X113909394Y-104679179D01*
X113969737Y-104533497D01*
X113986510Y-104449174D01*
X113994559Y-104408713D01*
X115339500Y-104408713D01*
X115339500Y-104621286D01*
X115369435Y-104810292D01*
X115372754Y-104831243D01*
X115402174Y-104921789D01*
X115438444Y-105033414D01*
X115534951Y-105222820D01*
X115659890Y-105394786D01*
X115810213Y-105545109D01*
X115982179Y-105670048D01*
X115982181Y-105670049D01*
X115982184Y-105670051D01*
X116171588Y-105766557D01*
X116373757Y-105832246D01*
X116583713Y-105865500D01*
X116583714Y-105865500D01*
X116796286Y-105865500D01*
X116796287Y-105865500D01*
X117006243Y-105832246D01*
X117208412Y-105766557D01*
X117397816Y-105670051D01*
X117484478Y-105607088D01*
X117569786Y-105545109D01*
X117569788Y-105545106D01*
X117569792Y-105545104D01*
X117720104Y-105394792D01*
X117720106Y-105394788D01*
X117720109Y-105394786D01*
X117845048Y-105222820D01*
X117845047Y-105222820D01*
X117845051Y-105222816D01*
X117849514Y-105214054D01*
X117897488Y-105163259D01*
X117965308Y-105146463D01*
X118031444Y-105168999D01*
X118070486Y-105214056D01*
X118074951Y-105222820D01*
X118199890Y-105394786D01*
X118350213Y-105545109D01*
X118522179Y-105670048D01*
X118522181Y-105670049D01*
X118522184Y-105670051D01*
X118711588Y-105766557D01*
X118913757Y-105832246D01*
X119123713Y-105865500D01*
X119123714Y-105865500D01*
X119336286Y-105865500D01*
X119336287Y-105865500D01*
X119546243Y-105832246D01*
X119748412Y-105766557D01*
X119937816Y-105670051D01*
X120024478Y-105607088D01*
X120109786Y-105545109D01*
X120109788Y-105545106D01*
X120109792Y-105545104D01*
X120260104Y-105394792D01*
X120260106Y-105394788D01*
X120260109Y-105394786D01*
X120385048Y-105222820D01*
X120385047Y-105222820D01*
X120385051Y-105222816D01*
X120389514Y-105214054D01*
X120437488Y-105163259D01*
X120505308Y-105146463D01*
X120571444Y-105168999D01*
X120610486Y-105214056D01*
X120614951Y-105222820D01*
X120739890Y-105394786D01*
X120890213Y-105545109D01*
X121062179Y-105670048D01*
X121062181Y-105670049D01*
X121062184Y-105670051D01*
X121251588Y-105766557D01*
X121453757Y-105832246D01*
X121663713Y-105865500D01*
X121663714Y-105865500D01*
X121876286Y-105865500D01*
X121876287Y-105865500D01*
X122086243Y-105832246D01*
X122288412Y-105766557D01*
X122477816Y-105670051D01*
X122564478Y-105607088D01*
X122649784Y-105545110D01*
X122649784Y-105545109D01*
X122649792Y-105545104D01*
X122763717Y-105431178D01*
X122825036Y-105397696D01*
X122894728Y-105402680D01*
X122950662Y-105444551D01*
X122967577Y-105475528D01*
X123016646Y-105607088D01*
X123016649Y-105607093D01*
X123102809Y-105722187D01*
X123102812Y-105722190D01*
X123217906Y-105808350D01*
X123217913Y-105808354D01*
X123352620Y-105858596D01*
X123352627Y-105858598D01*
X123412155Y-105864999D01*
X123412172Y-105865000D01*
X124060000Y-105865000D01*
X124060000Y-104948012D01*
X124117007Y-104980925D01*
X124244174Y-105015000D01*
X124375826Y-105015000D01*
X124502993Y-104980925D01*
X124560000Y-104948012D01*
X124560000Y-105865000D01*
X125207828Y-105865000D01*
X125207844Y-105864999D01*
X125267372Y-105858598D01*
X125267379Y-105858596D01*
X125402086Y-105808354D01*
X125402093Y-105808350D01*
X125517187Y-105722190D01*
X125517190Y-105722187D01*
X125603350Y-105607093D01*
X125603354Y-105607086D01*
X125653596Y-105472379D01*
X125653598Y-105472372D01*
X125659999Y-105412844D01*
X125660000Y-105412827D01*
X125660000Y-104765000D01*
X124743012Y-104765000D01*
X124775925Y-104707993D01*
X124810000Y-104580826D01*
X124810000Y-104449174D01*
X124775925Y-104322007D01*
X124743012Y-104265000D01*
X125660000Y-104265000D01*
X125660000Y-103617172D01*
X125659999Y-103617155D01*
X125653598Y-103557627D01*
X125653596Y-103557620D01*
X125603354Y-103422913D01*
X125603350Y-103422906D01*
X125517190Y-103307812D01*
X125517187Y-103307809D01*
X125402093Y-103221649D01*
X125402086Y-103221645D01*
X125267379Y-103171403D01*
X125267372Y-103171401D01*
X125207844Y-103165000D01*
X124560000Y-103165000D01*
X124560000Y-104081988D01*
X124502993Y-104049075D01*
X124375826Y-104015000D01*
X124244174Y-104015000D01*
X124117007Y-104049075D01*
X124060000Y-104081988D01*
X124060000Y-103165000D01*
X123412155Y-103165000D01*
X123352627Y-103171401D01*
X123352620Y-103171403D01*
X123217913Y-103221645D01*
X123217906Y-103221649D01*
X123102812Y-103307809D01*
X123102809Y-103307812D01*
X123016649Y-103422906D01*
X123016646Y-103422912D01*
X122967577Y-103554471D01*
X122925705Y-103610404D01*
X122860241Y-103634821D01*
X122791968Y-103619969D01*
X122763714Y-103598818D01*
X122649786Y-103484890D01*
X122477820Y-103359951D01*
X122288414Y-103263444D01*
X122288413Y-103263443D01*
X122288412Y-103263443D01*
X122086243Y-103197754D01*
X122086241Y-103197753D01*
X122086240Y-103197753D01*
X121924957Y-103172208D01*
X121876287Y-103164500D01*
X121663713Y-103164500D01*
X121615042Y-103172208D01*
X121453760Y-103197753D01*
X121251585Y-103263444D01*
X121062179Y-103359951D01*
X120890213Y-103484890D01*
X120739890Y-103635213D01*
X120614949Y-103807182D01*
X120610484Y-103815946D01*
X120562509Y-103866742D01*
X120494688Y-103883536D01*
X120428553Y-103860998D01*
X120389516Y-103815946D01*
X120385050Y-103807182D01*
X120260109Y-103635213D01*
X120109786Y-103484890D01*
X119937820Y-103359951D01*
X119748414Y-103263444D01*
X119748413Y-103263443D01*
X119748412Y-103263443D01*
X119546243Y-103197754D01*
X119546241Y-103197753D01*
X119546240Y-103197753D01*
X119384957Y-103172208D01*
X119336287Y-103164500D01*
X119123713Y-103164500D01*
X119075042Y-103172208D01*
X118913760Y-103197753D01*
X118711585Y-103263444D01*
X118522179Y-103359951D01*
X118350213Y-103484890D01*
X118199890Y-103635213D01*
X118074949Y-103807182D01*
X118070484Y-103815946D01*
X118022509Y-103866742D01*
X117954688Y-103883536D01*
X117888553Y-103860998D01*
X117849516Y-103815946D01*
X117845050Y-103807182D01*
X117720109Y-103635213D01*
X117569786Y-103484890D01*
X117397820Y-103359951D01*
X117208414Y-103263444D01*
X117208413Y-103263443D01*
X117208412Y-103263443D01*
X117006243Y-103197754D01*
X117006241Y-103197753D01*
X117006240Y-103197753D01*
X116844957Y-103172208D01*
X116796287Y-103164500D01*
X116583713Y-103164500D01*
X116535042Y-103172208D01*
X116373760Y-103197753D01*
X116171585Y-103263444D01*
X115982179Y-103359951D01*
X115810213Y-103484890D01*
X115659890Y-103635213D01*
X115534951Y-103807179D01*
X115438444Y-103996585D01*
X115372753Y-104198760D01*
X115339500Y-104408713D01*
X113994559Y-104408713D01*
X114000340Y-104379649D01*
X114000340Y-104379648D01*
X114000499Y-104378846D01*
X114000500Y-104378844D01*
X114000500Y-104221155D01*
X114000499Y-104221153D01*
X113969738Y-104066510D01*
X113969737Y-104066503D01*
X113969735Y-104066498D01*
X113909397Y-103920827D01*
X113909390Y-103920814D01*
X113821789Y-103789711D01*
X113821786Y-103789707D01*
X113710292Y-103678213D01*
X113710288Y-103678210D01*
X113579185Y-103590609D01*
X113579172Y-103590602D01*
X113433501Y-103530264D01*
X113433489Y-103530261D01*
X113278845Y-103499500D01*
X113278842Y-103499500D01*
X113121158Y-103499500D01*
X113121155Y-103499500D01*
X112966510Y-103530261D01*
X112966498Y-103530264D01*
X112820827Y-103590602D01*
X112820814Y-103590609D01*
X112689711Y-103678210D01*
X112689707Y-103678213D01*
X112578213Y-103789707D01*
X112578210Y-103789711D01*
X112490609Y-103920814D01*
X112490602Y-103920827D01*
X112430264Y-104066498D01*
X112430261Y-104066510D01*
X112399500Y-104221153D01*
X110100500Y-104221153D01*
X110100500Y-103731004D01*
X110073581Y-103595677D01*
X110073580Y-103595676D01*
X110073580Y-103595672D01*
X110057851Y-103557699D01*
X110020778Y-103468195D01*
X110020771Y-103468182D01*
X109944114Y-103353458D01*
X109944111Y-103353454D01*
X109846545Y-103255888D01*
X109846541Y-103255885D01*
X109731817Y-103179228D01*
X109731804Y-103179221D01*
X109604332Y-103126421D01*
X109604322Y-103126418D01*
X109468995Y-103099500D01*
X109468993Y-103099500D01*
X109439882Y-103099500D01*
X97509757Y-103099500D01*
X97490360Y-103097973D01*
X97449549Y-103091509D01*
X97426845Y-103087913D01*
X97389950Y-103075925D01*
X97341457Y-103051217D01*
X97310070Y-103028413D01*
X97271586Y-102989929D01*
X97248782Y-102958542D01*
X97224073Y-102910046D01*
X97212086Y-102873152D01*
X97211427Y-102868993D01*
X97202027Y-102809639D01*
X97200500Y-102790242D01*
X97200500Y-101921153D01*
X118599500Y-101921153D01*
X118599500Y-102078846D01*
X118630261Y-102233489D01*
X118630264Y-102233501D01*
X118690602Y-102379172D01*
X118690609Y-102379185D01*
X118778210Y-102510288D01*
X118778213Y-102510292D01*
X118889707Y-102621786D01*
X118889711Y-102621789D01*
X119020814Y-102709390D01*
X119020827Y-102709397D01*
X119166498Y-102769735D01*
X119166503Y-102769737D01*
X119318644Y-102800000D01*
X119321153Y-102800499D01*
X119321156Y-102800500D01*
X119321158Y-102800500D01*
X119478844Y-102800500D01*
X119478845Y-102800499D01*
X119633497Y-102769737D01*
X119779179Y-102709394D01*
X119910289Y-102621789D01*
X120021789Y-102510289D01*
X120109394Y-102379179D01*
X120169737Y-102233497D01*
X120200500Y-102078842D01*
X120200500Y-101921158D01*
X120200500Y-101921155D01*
X120200499Y-101921153D01*
X120169738Y-101766510D01*
X120169737Y-101766503D01*
X120150431Y-101719894D01*
X120109397Y-101620827D01*
X120109390Y-101620814D01*
X120021789Y-101489711D01*
X120021786Y-101489707D01*
X119910292Y-101378213D01*
X119910288Y-101378210D01*
X119779185Y-101290609D01*
X119779172Y-101290602D01*
X119633501Y-101230264D01*
X119633489Y-101230261D01*
X119478845Y-101199500D01*
X119478842Y-101199500D01*
X119321158Y-101199500D01*
X119321155Y-101199500D01*
X119166510Y-101230261D01*
X119166498Y-101230264D01*
X119020827Y-101290602D01*
X119020814Y-101290609D01*
X118889711Y-101378210D01*
X118889707Y-101378213D01*
X118778213Y-101489707D01*
X118778210Y-101489711D01*
X118690609Y-101620814D01*
X118690602Y-101620827D01*
X118630264Y-101766498D01*
X118630261Y-101766510D01*
X118599500Y-101921153D01*
X97200500Y-101921153D01*
X97200500Y-90783713D01*
X99834500Y-90783713D01*
X99834500Y-90996287D01*
X99867754Y-91206243D01*
X99930872Y-91400500D01*
X99933444Y-91408414D01*
X100029951Y-91597820D01*
X100154890Y-91769786D01*
X100305213Y-91920109D01*
X100477182Y-92045050D01*
X100485946Y-92049516D01*
X100536742Y-92097491D01*
X100553536Y-92165312D01*
X100530998Y-92231447D01*
X100485946Y-92270484D01*
X100477182Y-92274949D01*
X100305213Y-92399890D01*
X100154890Y-92550213D01*
X100029951Y-92722179D01*
X99933444Y-92911585D01*
X99867753Y-93113760D01*
X99834500Y-93323713D01*
X99834500Y-93536286D01*
X99850188Y-93635340D01*
X99867754Y-93746243D01*
X99919252Y-93904738D01*
X99933444Y-93948414D01*
X100029951Y-94137820D01*
X100154890Y-94309786D01*
X100305213Y-94460109D01*
X100477182Y-94585050D01*
X100485946Y-94589516D01*
X100536742Y-94637491D01*
X100553536Y-94705312D01*
X100530998Y-94771447D01*
X100485946Y-94810484D01*
X100477182Y-94814949D01*
X100305213Y-94939890D01*
X100154890Y-95090213D01*
X100029951Y-95262179D01*
X99933444Y-95451585D01*
X99867753Y-95653760D01*
X99834500Y-95863713D01*
X99834500Y-96076286D01*
X99867753Y-96286239D01*
X99867753Y-96286241D01*
X99867754Y-96286243D01*
X99904878Y-96400499D01*
X99933444Y-96488414D01*
X100029951Y-96677820D01*
X100154890Y-96849786D01*
X100268818Y-96963714D01*
X100302303Y-97025037D01*
X100297319Y-97094729D01*
X100255447Y-97150662D01*
X100224471Y-97167577D01*
X100092912Y-97216646D01*
X100092906Y-97216649D01*
X99977812Y-97302809D01*
X99977809Y-97302812D01*
X99891649Y-97417906D01*
X99891645Y-97417913D01*
X99841403Y-97552620D01*
X99841401Y-97552627D01*
X99835000Y-97612155D01*
X99835000Y-98260000D01*
X100751988Y-98260000D01*
X100719075Y-98317007D01*
X100685000Y-98444174D01*
X100685000Y-98575826D01*
X100719075Y-98702993D01*
X100751988Y-98760000D01*
X99835000Y-98760000D01*
X99835000Y-99407844D01*
X99841401Y-99467372D01*
X99841403Y-99467379D01*
X99891645Y-99602086D01*
X99891649Y-99602093D01*
X99977809Y-99717187D01*
X99977812Y-99717190D01*
X100092906Y-99803350D01*
X100092913Y-99803354D01*
X100227620Y-99853596D01*
X100227627Y-99853598D01*
X100287155Y-99859999D01*
X100287172Y-99860000D01*
X100935000Y-99860000D01*
X100935000Y-98943012D01*
X100992007Y-98975925D01*
X101119174Y-99010000D01*
X101250826Y-99010000D01*
X101377993Y-98975925D01*
X101435000Y-98943012D01*
X101435000Y-99860000D01*
X102082828Y-99860000D01*
X102082844Y-99859999D01*
X102142372Y-99853598D01*
X102142379Y-99853596D01*
X102277086Y-99803354D01*
X102277093Y-99803350D01*
X102392187Y-99717190D01*
X102392190Y-99717187D01*
X102478350Y-99602093D01*
X102478354Y-99602086D01*
X102508540Y-99521153D01*
X125799500Y-99521153D01*
X125799500Y-99678846D01*
X125830261Y-99833489D01*
X125830264Y-99833501D01*
X125890602Y-99979172D01*
X125890609Y-99979185D01*
X125978210Y-100110288D01*
X125978213Y-100110292D01*
X126089707Y-100221786D01*
X126089711Y-100221789D01*
X126220814Y-100309390D01*
X126220827Y-100309397D01*
X126366498Y-100369735D01*
X126366503Y-100369737D01*
X126521153Y-100400499D01*
X126521156Y-100400500D01*
X126521158Y-100400500D01*
X126678844Y-100400500D01*
X126678845Y-100400499D01*
X126833497Y-100369737D01*
X126979179Y-100309394D01*
X127110289Y-100221789D01*
X127188365Y-100143713D01*
X145124500Y-100143713D01*
X145124500Y-100356287D01*
X145131503Y-100400499D01*
X145157753Y-100566239D01*
X145223444Y-100768414D01*
X145319951Y-100957820D01*
X145444890Y-101129786D01*
X145595209Y-101280105D01*
X145595214Y-101280109D01*
X145759793Y-101399682D01*
X145802459Y-101455011D01*
X145808438Y-101524625D01*
X145775833Y-101586420D01*
X145759793Y-101600318D01*
X145595214Y-101719890D01*
X145595209Y-101719894D01*
X145444890Y-101870213D01*
X145319951Y-102042179D01*
X145223444Y-102231585D01*
X145157753Y-102433760D01*
X145145632Y-102510289D01*
X145124500Y-102643713D01*
X145124500Y-102856287D01*
X145127171Y-102873152D01*
X145147947Y-103004328D01*
X145157754Y-103066243D01*
X145221828Y-103263443D01*
X145223444Y-103268414D01*
X145319951Y-103457820D01*
X145444890Y-103629786D01*
X145583705Y-103768601D01*
X145617190Y-103829924D01*
X145612206Y-103899616D01*
X145570334Y-103955549D01*
X145561121Y-103961821D01*
X145406342Y-104057289D01*
X145282289Y-104181342D01*
X145190187Y-104330663D01*
X145190185Y-104330668D01*
X145164324Y-104408713D01*
X145135001Y-104497203D01*
X145135001Y-104497204D01*
X145135000Y-104497204D01*
X145124500Y-104599983D01*
X145124500Y-105900001D01*
X145124501Y-105900018D01*
X145135000Y-106002796D01*
X145135001Y-106002799D01*
X145190185Y-106169331D01*
X145190186Y-106169334D01*
X145282288Y-106318656D01*
X145406344Y-106442712D01*
X145555666Y-106534814D01*
X145722203Y-106589999D01*
X145824991Y-106600500D01*
X147375008Y-106600499D01*
X147477797Y-106589999D01*
X147644334Y-106534814D01*
X147793656Y-106442712D01*
X147917712Y-106318656D01*
X148009814Y-106169334D01*
X148064999Y-106002797D01*
X148075500Y-105900009D01*
X148075499Y-104599992D01*
X148068706Y-104533497D01*
X148064999Y-104497203D01*
X148064998Y-104497200D01*
X148025779Y-104378846D01*
X148009814Y-104330666D01*
X147917712Y-104181344D01*
X147793656Y-104057288D01*
X147644334Y-103965186D01*
X147644333Y-103965185D01*
X147638878Y-103961821D01*
X147592154Y-103909873D01*
X147580931Y-103840910D01*
X147608775Y-103776828D01*
X147616272Y-103768623D01*
X147755104Y-103629792D01*
X147779894Y-103595672D01*
X147880048Y-103457820D01*
X147880047Y-103457820D01*
X147880051Y-103457816D01*
X147976557Y-103268412D01*
X148042246Y-103066243D01*
X148075500Y-102856287D01*
X148075500Y-102643713D01*
X148042246Y-102433757D01*
X147976557Y-102231588D01*
X147880051Y-102042184D01*
X147880049Y-102042181D01*
X147880048Y-102042179D01*
X147755109Y-101870213D01*
X147604792Y-101719896D01*
X147604784Y-101719890D01*
X147440204Y-101600316D01*
X147397540Y-101544989D01*
X147391561Y-101475376D01*
X147424166Y-101413580D01*
X147440199Y-101399686D01*
X147604792Y-101280104D01*
X147755104Y-101129792D01*
X147755106Y-101129788D01*
X147755109Y-101129786D01*
X147880048Y-100957820D01*
X147880047Y-100957820D01*
X147880051Y-100957816D01*
X147976557Y-100768412D01*
X148042246Y-100566243D01*
X148075500Y-100356287D01*
X148075500Y-100143713D01*
X148042246Y-99933757D01*
X147976557Y-99731588D01*
X147880051Y-99542184D01*
X147880049Y-99542181D01*
X147880048Y-99542179D01*
X147755109Y-99370213D01*
X147604786Y-99219890D01*
X147432820Y-99094951D01*
X147243414Y-98998444D01*
X147243413Y-98998443D01*
X147243412Y-98998443D01*
X147041243Y-98932754D01*
X147041241Y-98932753D01*
X147041240Y-98932753D01*
X146879957Y-98907208D01*
X146831287Y-98899500D01*
X146368713Y-98899500D01*
X146320042Y-98907208D01*
X146158760Y-98932753D01*
X146158757Y-98932754D01*
X146018859Y-98978210D01*
X145956585Y-98998444D01*
X145767179Y-99094951D01*
X145595213Y-99219890D01*
X145444890Y-99370213D01*
X145319951Y-99542179D01*
X145223444Y-99731585D01*
X145157753Y-99933760D01*
X145136183Y-100069950D01*
X145124500Y-100143713D01*
X127188365Y-100143713D01*
X127221789Y-100110289D01*
X127309394Y-99979179D01*
X127369737Y-99833497D01*
X127400500Y-99678842D01*
X127400500Y-99521158D01*
X127400500Y-99521155D01*
X127400499Y-99521153D01*
X127389803Y-99467383D01*
X127369737Y-99366503D01*
X127369735Y-99366498D01*
X127309397Y-99220827D01*
X127309390Y-99220814D01*
X127221789Y-99089711D01*
X127221786Y-99089707D01*
X127110292Y-98978213D01*
X127110288Y-98978210D01*
X126979185Y-98890609D01*
X126979172Y-98890602D01*
X126833501Y-98830264D01*
X126833489Y-98830261D01*
X126678845Y-98799500D01*
X126678842Y-98799500D01*
X126521158Y-98799500D01*
X126521155Y-98799500D01*
X126366510Y-98830261D01*
X126366498Y-98830264D01*
X126220827Y-98890602D01*
X126220814Y-98890609D01*
X126089711Y-98978210D01*
X126089707Y-98978213D01*
X125978213Y-99089707D01*
X125978210Y-99089711D01*
X125890609Y-99220814D01*
X125890602Y-99220827D01*
X125830264Y-99366498D01*
X125830261Y-99366510D01*
X125799500Y-99521153D01*
X102508540Y-99521153D01*
X102526973Y-99471733D01*
X102526974Y-99471731D01*
X102528595Y-99467383D01*
X102528598Y-99467372D01*
X102534999Y-99407844D01*
X102535000Y-99407827D01*
X102535000Y-98760000D01*
X101618012Y-98760000D01*
X101650925Y-98702993D01*
X101685000Y-98575826D01*
X101685000Y-98444174D01*
X101650925Y-98317007D01*
X101618012Y-98260000D01*
X102535000Y-98260000D01*
X102535000Y-97612172D01*
X102534999Y-97612155D01*
X102528598Y-97552627D01*
X102528596Y-97552620D01*
X102478354Y-97417913D01*
X102478350Y-97417906D01*
X102392190Y-97302812D01*
X102392187Y-97302809D01*
X102277093Y-97216649D01*
X102277088Y-97216646D01*
X102145528Y-97167577D01*
X102089595Y-97125705D01*
X102065178Y-97060241D01*
X102080030Y-96991968D01*
X102101175Y-96963720D01*
X102215104Y-96849792D01*
X102244453Y-96809397D01*
X102340048Y-96677820D01*
X102340047Y-96677820D01*
X102340051Y-96677816D01*
X102436557Y-96488412D01*
X102466534Y-96396153D01*
X114999500Y-96396153D01*
X114999500Y-96553846D01*
X115030261Y-96708489D01*
X115030264Y-96708501D01*
X115090602Y-96854172D01*
X115090609Y-96854185D01*
X115178210Y-96985288D01*
X115178213Y-96985292D01*
X115289707Y-97096786D01*
X115289711Y-97096789D01*
X115420814Y-97184390D01*
X115420827Y-97184397D01*
X115566498Y-97244735D01*
X115566503Y-97244737D01*
X115721153Y-97275499D01*
X115721156Y-97275500D01*
X115721158Y-97275500D01*
X115878844Y-97275500D01*
X115878845Y-97275499D01*
X116033497Y-97244737D01*
X116179179Y-97184394D01*
X116310289Y-97096789D01*
X116421789Y-96985289D01*
X116464643Y-96921153D01*
X132399500Y-96921153D01*
X132399500Y-97078846D01*
X132430261Y-97233489D01*
X132430264Y-97233501D01*
X132490602Y-97379172D01*
X132490609Y-97379185D01*
X132578210Y-97510288D01*
X132578213Y-97510292D01*
X132689707Y-97621786D01*
X132689711Y-97621789D01*
X132820814Y-97709390D01*
X132820827Y-97709397D01*
X132966498Y-97769735D01*
X132966503Y-97769737D01*
X133121153Y-97800499D01*
X133121156Y-97800500D01*
X133121158Y-97800500D01*
X133278844Y-97800500D01*
X133278845Y-97800499D01*
X133433497Y-97769737D01*
X133579179Y-97709394D01*
X133710289Y-97621789D01*
X133821789Y-97510289D01*
X133909394Y-97379179D01*
X133969737Y-97233497D01*
X134000500Y-97078842D01*
X134000500Y-96921158D01*
X134000500Y-96921155D01*
X134000499Y-96921153D01*
X133987176Y-96854174D01*
X133969737Y-96766503D01*
X133945712Y-96708501D01*
X133909397Y-96620827D01*
X133909390Y-96620814D01*
X133821789Y-96489711D01*
X133821786Y-96489707D01*
X133710292Y-96378213D01*
X133710288Y-96378210D01*
X133579185Y-96290609D01*
X133579172Y-96290602D01*
X133433501Y-96230264D01*
X133433489Y-96230261D01*
X133278845Y-96199500D01*
X133278842Y-96199500D01*
X133121158Y-96199500D01*
X133121155Y-96199500D01*
X132966510Y-96230261D01*
X132966498Y-96230264D01*
X132820827Y-96290602D01*
X132820814Y-96290609D01*
X132689711Y-96378210D01*
X132689707Y-96378213D01*
X132578213Y-96489707D01*
X132578210Y-96489711D01*
X132490609Y-96620814D01*
X132490602Y-96620827D01*
X132430264Y-96766498D01*
X132430261Y-96766510D01*
X132399500Y-96921153D01*
X116464643Y-96921153D01*
X116509394Y-96854179D01*
X116569737Y-96708497D01*
X116600500Y-96553842D01*
X116600500Y-96396158D01*
X116600500Y-96396155D01*
X116600499Y-96396153D01*
X116595245Y-96369738D01*
X116569737Y-96241503D01*
X116565081Y-96230263D01*
X116509397Y-96095827D01*
X116509390Y-96095814D01*
X116421789Y-95964711D01*
X116421786Y-95964707D01*
X116310292Y-95853213D01*
X116310288Y-95853210D01*
X116179185Y-95765609D01*
X116179172Y-95765602D01*
X116033501Y-95705264D01*
X116033489Y-95705261D01*
X115878845Y-95674500D01*
X115878842Y-95674500D01*
X115721158Y-95674500D01*
X115721155Y-95674500D01*
X115566510Y-95705261D01*
X115566498Y-95705264D01*
X115420827Y-95765602D01*
X115420814Y-95765609D01*
X115289711Y-95853210D01*
X115289707Y-95853213D01*
X115178213Y-95964707D01*
X115178210Y-95964711D01*
X115090609Y-96095814D01*
X115090602Y-96095827D01*
X115030264Y-96241498D01*
X115030261Y-96241510D01*
X114999500Y-96396153D01*
X102466534Y-96396153D01*
X102502246Y-96286243D01*
X102535500Y-96076287D01*
X102535500Y-95863713D01*
X102502246Y-95653757D01*
X102436557Y-95451588D01*
X102340051Y-95262184D01*
X102340049Y-95262181D01*
X102340048Y-95262179D01*
X102215109Y-95090213D01*
X102064786Y-94939890D01*
X101892820Y-94814951D01*
X101892115Y-94814591D01*
X101884054Y-94810485D01*
X101833259Y-94762512D01*
X101816463Y-94694692D01*
X101838999Y-94628556D01*
X101884054Y-94589515D01*
X101892816Y-94585051D01*
X101914789Y-94569086D01*
X102064786Y-94460109D01*
X102064788Y-94460106D01*
X102064792Y-94460104D01*
X102215104Y-94309792D01*
X102215106Y-94309788D01*
X102215109Y-94309786D01*
X102340048Y-94137820D01*
X102340047Y-94137820D01*
X102340051Y-94137816D01*
X102436557Y-93948412D01*
X102502246Y-93746243D01*
X102535500Y-93536287D01*
X102535500Y-93323713D01*
X102502246Y-93113757D01*
X102436557Y-92911588D01*
X102340051Y-92722184D01*
X102317111Y-92690609D01*
X102315182Y-92687954D01*
X102315179Y-92687951D01*
X102273267Y-92630264D01*
X102266648Y-92621153D01*
X104899500Y-92621153D01*
X104899500Y-92778846D01*
X104930261Y-92933489D01*
X104930264Y-92933501D01*
X104990602Y-93079172D01*
X104990609Y-93079185D01*
X105078210Y-93210288D01*
X105078213Y-93210292D01*
X105189707Y-93321786D01*
X105189711Y-93321789D01*
X105320814Y-93409390D01*
X105320827Y-93409397D01*
X105466498Y-93469735D01*
X105466503Y-93469737D01*
X105621153Y-93500499D01*
X105621156Y-93500500D01*
X105621158Y-93500500D01*
X105778844Y-93500500D01*
X105792617Y-93497759D01*
X105808802Y-93494540D01*
X105878393Y-93500764D01*
X105933572Y-93543625D01*
X105936099Y-93547265D01*
X105978210Y-93610288D01*
X105978213Y-93610292D01*
X106089707Y-93721786D01*
X106089711Y-93721789D01*
X106220814Y-93809390D01*
X106220827Y-93809397D01*
X106366498Y-93869735D01*
X106366503Y-93869737D01*
X106521153Y-93900499D01*
X106521156Y-93900500D01*
X106521158Y-93900500D01*
X106678844Y-93900500D01*
X106678845Y-93900499D01*
X106833497Y-93869737D01*
X106979179Y-93809394D01*
X107110289Y-93721789D01*
X107221789Y-93610289D01*
X107309394Y-93479179D01*
X107369737Y-93333497D01*
X107372066Y-93321789D01*
X107372193Y-93321153D01*
X121499500Y-93321153D01*
X121499500Y-93478846D01*
X121530261Y-93633489D01*
X121530264Y-93633501D01*
X121590602Y-93779172D01*
X121590609Y-93779185D01*
X121678210Y-93910288D01*
X121678213Y-93910292D01*
X121789707Y-94021786D01*
X121789711Y-94021789D01*
X121920814Y-94109390D01*
X121920827Y-94109397D01*
X122066498Y-94169735D01*
X122066503Y-94169737D01*
X122221153Y-94200499D01*
X122221156Y-94200500D01*
X122221158Y-94200500D01*
X122378844Y-94200500D01*
X122378845Y-94200499D01*
X122533497Y-94169737D01*
X122679179Y-94109394D01*
X122810289Y-94021789D01*
X122921789Y-93910289D01*
X123009394Y-93779179D01*
X123069737Y-93633497D01*
X123100500Y-93478842D01*
X123100500Y-93321158D01*
X123100500Y-93321155D01*
X123100499Y-93321153D01*
X123078447Y-93210292D01*
X123069737Y-93166503D01*
X123069735Y-93166498D01*
X123009397Y-93020827D01*
X123009390Y-93020814D01*
X122921789Y-92889711D01*
X122921786Y-92889707D01*
X122810292Y-92778213D01*
X122810288Y-92778210D01*
X122679185Y-92690609D01*
X122679172Y-92690602D01*
X122533501Y-92630264D01*
X122533489Y-92630261D01*
X122378845Y-92599500D01*
X122378842Y-92599500D01*
X122221158Y-92599500D01*
X122221155Y-92599500D01*
X122066510Y-92630261D01*
X122066498Y-92630264D01*
X121920827Y-92690602D01*
X121920814Y-92690609D01*
X121789711Y-92778210D01*
X121789707Y-92778213D01*
X121678213Y-92889707D01*
X121678210Y-92889711D01*
X121590609Y-93020814D01*
X121590602Y-93020827D01*
X121530264Y-93166498D01*
X121530261Y-93166510D01*
X121499500Y-93321153D01*
X107372193Y-93321153D01*
X107378216Y-93290874D01*
X107378216Y-93290873D01*
X107400499Y-93178846D01*
X107400500Y-93178844D01*
X107400500Y-93021155D01*
X107400499Y-93021153D01*
X107374353Y-92889711D01*
X107369737Y-92866503D01*
X107333427Y-92778842D01*
X107309397Y-92720827D01*
X107309390Y-92720814D01*
X107221789Y-92589711D01*
X107221786Y-92589707D01*
X107110292Y-92478213D01*
X107110288Y-92478210D01*
X106979185Y-92390609D01*
X106979172Y-92390602D01*
X106833501Y-92330264D01*
X106833489Y-92330261D01*
X106678845Y-92299500D01*
X106678842Y-92299500D01*
X106521158Y-92299500D01*
X106521156Y-92299500D01*
X106491189Y-92305460D01*
X106421598Y-92299231D01*
X106366422Y-92256366D01*
X106363899Y-92252732D01*
X106321792Y-92189715D01*
X106321786Y-92189707D01*
X106210292Y-92078213D01*
X106210288Y-92078210D01*
X106079185Y-91990609D01*
X106079172Y-91990602D01*
X105933501Y-91930264D01*
X105933489Y-91930261D01*
X105778845Y-91899500D01*
X105778842Y-91899500D01*
X105621158Y-91899500D01*
X105621155Y-91899500D01*
X105466510Y-91930261D01*
X105466498Y-91930264D01*
X105320827Y-91990602D01*
X105320814Y-91990609D01*
X105189711Y-92078210D01*
X105189707Y-92078213D01*
X105078213Y-92189707D01*
X105078210Y-92189711D01*
X104990609Y-92320814D01*
X104990602Y-92320827D01*
X104930264Y-92466498D01*
X104930261Y-92466510D01*
X104899500Y-92621153D01*
X102266648Y-92621153D01*
X102215104Y-92550208D01*
X102064792Y-92399896D01*
X102064786Y-92399890D01*
X101892820Y-92274951D01*
X101892115Y-92274591D01*
X101884054Y-92270485D01*
X101833259Y-92222512D01*
X101816463Y-92154692D01*
X101838999Y-92088556D01*
X101884054Y-92049515D01*
X101892816Y-92045051D01*
X101967759Y-91990602D01*
X102064786Y-91920109D01*
X102064788Y-91920106D01*
X102064792Y-91920104D01*
X102215104Y-91769792D01*
X102215106Y-91769788D01*
X102215109Y-91769786D01*
X102340048Y-91597820D01*
X102340047Y-91597820D01*
X102340051Y-91597816D01*
X102436557Y-91408412D01*
X102502246Y-91206243D01*
X102535500Y-90996287D01*
X102535500Y-90783713D01*
X102502246Y-90573757D01*
X102485154Y-90521153D01*
X103299500Y-90521153D01*
X103299500Y-90678846D01*
X103330261Y-90833489D01*
X103330264Y-90833501D01*
X103390602Y-90979172D01*
X103390609Y-90979185D01*
X103478210Y-91110288D01*
X103478213Y-91110292D01*
X103589707Y-91221786D01*
X103589711Y-91221789D01*
X103720814Y-91309390D01*
X103720827Y-91309397D01*
X103866498Y-91369735D01*
X103866503Y-91369737D01*
X104021153Y-91400499D01*
X104021156Y-91400500D01*
X104021158Y-91400500D01*
X104178844Y-91400500D01*
X104178845Y-91400499D01*
X104333497Y-91369737D01*
X104479179Y-91309394D01*
X104610289Y-91221789D01*
X104721789Y-91110289D01*
X104809394Y-90979179D01*
X104869737Y-90833497D01*
X104900500Y-90678842D01*
X104900500Y-90521158D01*
X104900500Y-90521155D01*
X104900499Y-90521153D01*
X104869737Y-90366503D01*
X104850955Y-90321158D01*
X104850953Y-90321153D01*
X123199500Y-90321153D01*
X123199500Y-90478846D01*
X123230261Y-90633489D01*
X123230264Y-90633501D01*
X123290604Y-90779177D01*
X123290605Y-90779179D01*
X123291899Y-90781115D01*
X123292264Y-90782282D01*
X123293476Y-90784549D01*
X123293045Y-90784778D01*
X123312773Y-90847794D01*
X123294285Y-90915173D01*
X123291899Y-90918885D01*
X123290605Y-90920820D01*
X123290604Y-90920822D01*
X123230264Y-91066498D01*
X123230261Y-91066510D01*
X123199500Y-91221153D01*
X123199500Y-91378846D01*
X123230261Y-91533489D01*
X123230264Y-91533501D01*
X123290602Y-91679172D01*
X123290609Y-91679185D01*
X123378210Y-91810288D01*
X123378213Y-91810292D01*
X123489707Y-91921786D01*
X123489711Y-91921789D01*
X123620814Y-92009390D01*
X123620827Y-92009397D01*
X123766498Y-92069735D01*
X123766503Y-92069737D01*
X123906031Y-92097491D01*
X123921153Y-92100499D01*
X123921156Y-92100500D01*
X123921158Y-92100500D01*
X124078844Y-92100500D01*
X124078845Y-92100499D01*
X124233497Y-92069737D01*
X124379179Y-92009394D01*
X124510289Y-91921789D01*
X124613872Y-91818206D01*
X132999500Y-91818206D01*
X132999500Y-92181794D01*
X133008675Y-92274949D01*
X133035137Y-92543630D01*
X133106064Y-92900212D01*
X133106067Y-92900223D01*
X133211614Y-93248165D01*
X133303392Y-93469737D01*
X133335505Y-93547265D01*
X133350754Y-93584078D01*
X133350756Y-93584083D01*
X133522140Y-93904720D01*
X133522144Y-93904727D01*
X133522147Y-93904732D01*
X133658895Y-94109390D01*
X133724140Y-94207035D01*
X133724150Y-94207049D01*
X133954807Y-94488106D01*
X134211893Y-94745192D01*
X134211898Y-94745196D01*
X134211899Y-94745197D01*
X134492956Y-94975854D01*
X134795268Y-95177853D01*
X134795277Y-95177858D01*
X134795279Y-95177859D01*
X135115916Y-95349243D01*
X135115918Y-95349243D01*
X135115924Y-95349247D01*
X135451836Y-95488386D01*
X135799767Y-95593930D01*
X135876447Y-95609182D01*
X135938357Y-95641565D01*
X135972932Y-95702280D01*
X135969193Y-95772050D01*
X135966817Y-95778251D01*
X135930264Y-95866498D01*
X135930261Y-95866510D01*
X135899500Y-96021153D01*
X135899500Y-96178846D01*
X135930261Y-96333489D01*
X135930264Y-96333501D01*
X135990602Y-96479172D01*
X135990609Y-96479185D01*
X136078210Y-96610288D01*
X136078213Y-96610292D01*
X136189707Y-96721786D01*
X136189711Y-96721789D01*
X136320814Y-96809390D01*
X136320827Y-96809397D01*
X136466498Y-96869735D01*
X136466503Y-96869737D01*
X136621153Y-96900499D01*
X136621156Y-96900500D01*
X136621158Y-96900500D01*
X136778844Y-96900500D01*
X136778845Y-96900499D01*
X136933497Y-96869737D01*
X137079179Y-96809394D01*
X137210289Y-96721789D01*
X137321789Y-96610289D01*
X137409394Y-96479179D01*
X137469737Y-96333497D01*
X137500500Y-96178842D01*
X137500500Y-96021158D01*
X137500500Y-96021155D01*
X137500499Y-96021153D01*
X137469738Y-95866510D01*
X137469737Y-95866503D01*
X137433181Y-95778249D01*
X137425713Y-95708784D01*
X137456988Y-95646305D01*
X137517076Y-95610652D01*
X137523547Y-95609183D01*
X137600233Y-95593930D01*
X137840146Y-95521153D01*
X145299500Y-95521153D01*
X145299500Y-95678846D01*
X145330261Y-95833489D01*
X145330264Y-95833501D01*
X145390602Y-95979172D01*
X145390609Y-95979185D01*
X145478210Y-96110288D01*
X145478213Y-96110292D01*
X145589707Y-96221786D01*
X145589711Y-96221789D01*
X145720814Y-96309390D01*
X145720827Y-96309397D01*
X145823073Y-96351748D01*
X145866503Y-96369737D01*
X146021153Y-96400499D01*
X146021156Y-96400500D01*
X146021158Y-96400500D01*
X146178844Y-96400500D01*
X146178845Y-96400499D01*
X146333497Y-96369737D01*
X146479179Y-96309394D01*
X146610289Y-96221789D01*
X146721789Y-96110289D01*
X146809394Y-95979179D01*
X146815389Y-95964707D01*
X146823067Y-95946166D01*
X146869737Y-95833497D01*
X146900500Y-95678842D01*
X146900500Y-95521158D01*
X146900500Y-95521155D01*
X146900499Y-95521153D01*
X146893981Y-95488385D01*
X146869737Y-95366503D01*
X146869735Y-95366498D01*
X146809397Y-95220827D01*
X146809390Y-95220814D01*
X146721789Y-95089711D01*
X146721786Y-95089707D01*
X146610292Y-94978213D01*
X146610288Y-94978210D01*
X146479185Y-94890609D01*
X146479172Y-94890602D01*
X146333501Y-94830264D01*
X146333489Y-94830261D01*
X146178845Y-94799500D01*
X146178842Y-94799500D01*
X146021158Y-94799500D01*
X146021155Y-94799500D01*
X145866510Y-94830261D01*
X145866498Y-94830264D01*
X145720827Y-94890602D01*
X145720814Y-94890609D01*
X145589711Y-94978210D01*
X145589707Y-94978213D01*
X145478213Y-95089707D01*
X145478210Y-95089711D01*
X145390609Y-95220814D01*
X145390602Y-95220827D01*
X145330264Y-95366498D01*
X145330261Y-95366510D01*
X145299500Y-95521153D01*
X137840146Y-95521153D01*
X137948164Y-95488386D01*
X138284076Y-95349247D01*
X138604732Y-95177853D01*
X138907044Y-94975854D01*
X139188101Y-94745197D01*
X139445197Y-94488101D01*
X139675854Y-94207044D01*
X139877853Y-93904732D01*
X140006225Y-93664563D01*
X140055184Y-93614724D01*
X140123321Y-93599263D01*
X140189001Y-93623094D01*
X140203261Y-93635340D01*
X140289707Y-93721786D01*
X140289711Y-93721789D01*
X140420814Y-93809390D01*
X140420827Y-93809397D01*
X140566498Y-93869735D01*
X140566503Y-93869737D01*
X140721153Y-93900499D01*
X140721156Y-93900500D01*
X140721158Y-93900500D01*
X140878844Y-93900500D01*
X140878845Y-93900499D01*
X141033497Y-93869737D01*
X141179179Y-93809394D01*
X141310289Y-93721789D01*
X141421789Y-93610289D01*
X141509394Y-93479179D01*
X141569737Y-93333497D01*
X141600500Y-93178842D01*
X141600500Y-93021158D01*
X141600500Y-93021155D01*
X141600499Y-93021153D01*
X141574353Y-92889711D01*
X141569737Y-92866503D01*
X141533427Y-92778842D01*
X141509397Y-92720827D01*
X141509390Y-92720814D01*
X141421789Y-92589711D01*
X141421786Y-92589707D01*
X141310292Y-92478213D01*
X141310288Y-92478210D01*
X141179185Y-92390609D01*
X141179172Y-92390602D01*
X141033501Y-92330264D01*
X141033489Y-92330261D01*
X140878845Y-92299500D01*
X140878842Y-92299500D01*
X140721158Y-92299500D01*
X140721155Y-92299500D01*
X140566510Y-92330261D01*
X140560676Y-92332031D01*
X140560088Y-92330093D01*
X140499820Y-92336554D01*
X140437350Y-92305259D01*
X140401717Y-92245159D01*
X140398472Y-92202380D01*
X140400500Y-92181794D01*
X140400500Y-91818206D01*
X140377936Y-91589114D01*
X140390955Y-91520470D01*
X140439020Y-91469760D01*
X140506871Y-91453085D01*
X140548789Y-91462399D01*
X140566503Y-91469737D01*
X140721153Y-91500499D01*
X140721156Y-91500500D01*
X140721158Y-91500500D01*
X140878844Y-91500500D01*
X140878845Y-91500499D01*
X141033497Y-91469737D01*
X141179179Y-91409394D01*
X141310289Y-91321789D01*
X141421789Y-91210289D01*
X141509394Y-91079179D01*
X141569737Y-90933497D01*
X141600500Y-90778842D01*
X141600500Y-90621158D01*
X141600500Y-90621155D01*
X141600499Y-90621153D01*
X141587019Y-90553384D01*
X141569737Y-90466503D01*
X141548787Y-90415924D01*
X141509397Y-90320827D01*
X141509390Y-90320814D01*
X141421789Y-90189711D01*
X141421786Y-90189707D01*
X141310292Y-90078213D01*
X141310288Y-90078210D01*
X141179185Y-89990609D01*
X141179172Y-89990602D01*
X141033501Y-89930264D01*
X141033489Y-89930261D01*
X140878845Y-89899500D01*
X140878842Y-89899500D01*
X140721158Y-89899500D01*
X140721155Y-89899500D01*
X140566510Y-89930261D01*
X140566498Y-89930264D01*
X140420827Y-89990602D01*
X140420814Y-89990609D01*
X140289711Y-90078210D01*
X140289707Y-90078213D01*
X140178213Y-90189707D01*
X140178208Y-90189713D01*
X140154322Y-90225461D01*
X140100709Y-90270266D01*
X140031384Y-90278972D01*
X139968357Y-90248816D01*
X139941863Y-90215022D01*
X139877859Y-90095279D01*
X139877858Y-90095277D01*
X139877853Y-90095268D01*
X139675854Y-89792956D01*
X139445197Y-89511899D01*
X139445196Y-89511898D01*
X139445192Y-89511893D01*
X139188106Y-89254807D01*
X138907049Y-89024150D01*
X138907048Y-89024149D01*
X138907044Y-89024146D01*
X138604732Y-88822147D01*
X138604727Y-88822144D01*
X138604720Y-88822140D01*
X138284083Y-88650756D01*
X138284078Y-88650754D01*
X138206002Y-88618414D01*
X138111264Y-88579172D01*
X137948165Y-88511614D01*
X137600223Y-88406067D01*
X137600212Y-88406064D01*
X137243630Y-88335137D01*
X136971111Y-88308296D01*
X136881794Y-88299500D01*
X136518206Y-88299500D01*
X136435679Y-88307628D01*
X136156369Y-88335137D01*
X135799787Y-88406064D01*
X135799776Y-88406067D01*
X135451834Y-88511614D01*
X135115921Y-88650754D01*
X135115916Y-88650756D01*
X134795279Y-88822140D01*
X134795261Y-88822151D01*
X134492964Y-89024140D01*
X134492950Y-89024150D01*
X134211893Y-89254807D01*
X133954807Y-89511893D01*
X133724150Y-89792950D01*
X133724140Y-89792964D01*
X133522151Y-90095261D01*
X133522140Y-90095279D01*
X133350756Y-90415916D01*
X133350754Y-90415921D01*
X133211614Y-90751834D01*
X133106067Y-91099776D01*
X133106064Y-91099787D01*
X133035137Y-91456369D01*
X133021206Y-91597820D01*
X132999500Y-91818206D01*
X124613872Y-91818206D01*
X124621789Y-91810289D01*
X124709394Y-91679179D01*
X124769737Y-91533497D01*
X124800500Y-91378842D01*
X124800500Y-91221158D01*
X124800500Y-91221155D01*
X124800499Y-91221153D01*
X124778447Y-91110292D01*
X124769737Y-91066503D01*
X124740653Y-90996287D01*
X124709397Y-90920827D01*
X124709394Y-90920822D01*
X124709394Y-90920821D01*
X124708103Y-90918889D01*
X124707737Y-90917723D01*
X124706525Y-90915454D01*
X124706955Y-90915223D01*
X124687226Y-90852214D01*
X124705710Y-90784834D01*
X124708100Y-90781115D01*
X124709394Y-90779179D01*
X124769737Y-90633497D01*
X124800500Y-90478842D01*
X124800500Y-90321158D01*
X124800500Y-90321155D01*
X124800499Y-90321153D01*
X124786110Y-90248816D01*
X124769737Y-90166503D01*
X124769735Y-90166498D01*
X124709397Y-90020827D01*
X124709390Y-90020814D01*
X124621789Y-89889711D01*
X124621786Y-89889707D01*
X124510292Y-89778213D01*
X124510288Y-89778210D01*
X124379185Y-89690609D01*
X124379172Y-89690602D01*
X124233501Y-89630264D01*
X124233489Y-89630261D01*
X124078845Y-89599500D01*
X124078842Y-89599500D01*
X123921158Y-89599500D01*
X123921155Y-89599500D01*
X123766510Y-89630261D01*
X123766498Y-89630264D01*
X123620827Y-89690602D01*
X123620814Y-89690609D01*
X123489711Y-89778210D01*
X123489707Y-89778213D01*
X123378213Y-89889707D01*
X123378210Y-89889711D01*
X123290609Y-90020814D01*
X123290602Y-90020827D01*
X123230264Y-90166498D01*
X123230261Y-90166510D01*
X123199500Y-90321153D01*
X104850953Y-90321153D01*
X104809397Y-90220827D01*
X104809390Y-90220814D01*
X104721789Y-90089711D01*
X104721786Y-90089707D01*
X104610292Y-89978213D01*
X104610288Y-89978210D01*
X104479185Y-89890609D01*
X104479172Y-89890602D01*
X104333501Y-89830264D01*
X104333489Y-89830261D01*
X104178845Y-89799500D01*
X104178842Y-89799500D01*
X104021158Y-89799500D01*
X104021155Y-89799500D01*
X103866510Y-89830261D01*
X103866498Y-89830264D01*
X103720827Y-89890602D01*
X103720814Y-89890609D01*
X103589711Y-89978210D01*
X103589707Y-89978213D01*
X103478213Y-90089707D01*
X103478210Y-90089711D01*
X103390609Y-90220814D01*
X103390602Y-90220827D01*
X103330264Y-90366498D01*
X103330261Y-90366510D01*
X103299500Y-90521153D01*
X102485154Y-90521153D01*
X102436557Y-90371588D01*
X102340051Y-90182184D01*
X102340049Y-90182181D01*
X102340048Y-90182179D01*
X102215109Y-90010213D01*
X102064786Y-89859890D01*
X101892820Y-89734951D01*
X101703414Y-89638444D01*
X101703413Y-89638443D01*
X101703412Y-89638443D01*
X101501243Y-89572754D01*
X101501241Y-89572753D01*
X101501240Y-89572753D01*
X101339957Y-89547208D01*
X101291287Y-89539500D01*
X101078713Y-89539500D01*
X101030042Y-89547208D01*
X100868760Y-89572753D01*
X100868757Y-89572754D01*
X100691770Y-89630261D01*
X100666585Y-89638444D01*
X100477179Y-89734951D01*
X100305213Y-89859890D01*
X100154890Y-90010213D01*
X100029951Y-90182179D01*
X99933444Y-90371585D01*
X99867753Y-90573760D01*
X99851109Y-90678846D01*
X99834500Y-90783713D01*
X97200500Y-90783713D01*
X97200500Y-88121153D01*
X119999500Y-88121153D01*
X119999500Y-88278846D01*
X120030261Y-88433489D01*
X120030264Y-88433501D01*
X120090602Y-88579172D01*
X120090609Y-88579185D01*
X120178210Y-88710288D01*
X120178213Y-88710292D01*
X120289707Y-88821786D01*
X120289711Y-88821789D01*
X120420814Y-88909390D01*
X120420827Y-88909397D01*
X120566498Y-88969735D01*
X120566503Y-88969737D01*
X120721153Y-89000499D01*
X120721156Y-89000500D01*
X120721158Y-89000500D01*
X120878844Y-89000500D01*
X120878845Y-89000499D01*
X121033497Y-88969737D01*
X121179179Y-88909394D01*
X121310289Y-88821789D01*
X121421789Y-88710289D01*
X121509394Y-88579179D01*
X121533429Y-88521153D01*
X131299500Y-88521153D01*
X131299500Y-88678846D01*
X131330261Y-88833489D01*
X131330264Y-88833501D01*
X131390602Y-88979172D01*
X131390609Y-88979185D01*
X131478210Y-89110288D01*
X131478213Y-89110292D01*
X131589707Y-89221786D01*
X131589711Y-89221789D01*
X131720814Y-89309390D01*
X131720827Y-89309397D01*
X131866498Y-89369735D01*
X131866503Y-89369737D01*
X132021153Y-89400499D01*
X132021156Y-89400500D01*
X132021158Y-89400500D01*
X132178844Y-89400500D01*
X132178845Y-89400499D01*
X132333497Y-89369737D01*
X132479179Y-89309394D01*
X132610289Y-89221789D01*
X132721789Y-89110289D01*
X132809394Y-88979179D01*
X132869737Y-88833497D01*
X132900500Y-88678842D01*
X132900500Y-88521158D01*
X132900500Y-88521155D01*
X132900499Y-88521153D01*
X132869738Y-88366510D01*
X132869737Y-88366503D01*
X132833427Y-88278842D01*
X132809397Y-88220827D01*
X132809390Y-88220814D01*
X132721789Y-88089711D01*
X132721786Y-88089707D01*
X132610292Y-87978213D01*
X132610288Y-87978210D01*
X132479185Y-87890609D01*
X132479172Y-87890602D01*
X132333501Y-87830264D01*
X132333489Y-87830261D01*
X132178845Y-87799500D01*
X132178842Y-87799500D01*
X132021158Y-87799500D01*
X132021155Y-87799500D01*
X131866510Y-87830261D01*
X131866498Y-87830264D01*
X131720827Y-87890602D01*
X131720814Y-87890609D01*
X131589711Y-87978210D01*
X131589707Y-87978213D01*
X131478213Y-88089707D01*
X131478210Y-88089711D01*
X131390609Y-88220814D01*
X131390602Y-88220827D01*
X131330264Y-88366498D01*
X131330261Y-88366510D01*
X131299500Y-88521153D01*
X121533429Y-88521153D01*
X121537380Y-88511614D01*
X121555603Y-88467621D01*
X121555605Y-88467614D01*
X121569737Y-88433497D01*
X121600500Y-88278842D01*
X121600500Y-88121158D01*
X121600500Y-88121155D01*
X121600499Y-88121153D01*
X121572066Y-87978211D01*
X121569737Y-87966503D01*
X121538298Y-87890602D01*
X121509397Y-87820827D01*
X121509390Y-87820814D01*
X121421789Y-87689711D01*
X121421786Y-87689707D01*
X121310292Y-87578213D01*
X121310288Y-87578210D01*
X121179185Y-87490609D01*
X121179172Y-87490602D01*
X121033501Y-87430264D01*
X121033489Y-87430261D01*
X120878845Y-87399500D01*
X120878842Y-87399500D01*
X120721158Y-87399500D01*
X120721155Y-87399500D01*
X120566510Y-87430261D01*
X120566498Y-87430264D01*
X120420827Y-87490602D01*
X120420814Y-87490609D01*
X120289711Y-87578210D01*
X120289707Y-87578213D01*
X120178213Y-87689707D01*
X120178210Y-87689711D01*
X120090609Y-87820814D01*
X120090602Y-87820827D01*
X120030264Y-87966498D01*
X120030261Y-87966510D01*
X119999500Y-88121153D01*
X97200500Y-88121153D01*
X97200500Y-86621153D01*
X112899500Y-86621153D01*
X112899500Y-86778846D01*
X112930261Y-86933489D01*
X112930264Y-86933501D01*
X112990602Y-87079172D01*
X112990609Y-87079185D01*
X113078210Y-87210288D01*
X113078213Y-87210292D01*
X113189707Y-87321786D01*
X113189711Y-87321789D01*
X113320814Y-87409390D01*
X113320827Y-87409397D01*
X113466498Y-87469735D01*
X113466503Y-87469737D01*
X113621153Y-87500499D01*
X113621156Y-87500500D01*
X113621158Y-87500500D01*
X113778844Y-87500500D01*
X113778845Y-87500499D01*
X113933497Y-87469737D01*
X114079179Y-87409394D01*
X114210289Y-87321789D01*
X114321789Y-87210289D01*
X114409394Y-87079179D01*
X114469737Y-86933497D01*
X114500500Y-86778842D01*
X114500500Y-86621158D01*
X114500500Y-86621155D01*
X114500499Y-86621153D01*
X114469738Y-86466510D01*
X114469737Y-86466503D01*
X114445276Y-86407449D01*
X114409397Y-86320827D01*
X114409390Y-86320814D01*
X114321789Y-86189711D01*
X114321786Y-86189707D01*
X114210292Y-86078213D01*
X114210288Y-86078210D01*
X114079185Y-85990609D01*
X114079172Y-85990602D01*
X113933501Y-85930264D01*
X113933489Y-85930261D01*
X113778845Y-85899500D01*
X113778842Y-85899500D01*
X113621158Y-85899500D01*
X113621155Y-85899500D01*
X113466510Y-85930261D01*
X113466498Y-85930264D01*
X113320827Y-85990602D01*
X113320814Y-85990609D01*
X113189711Y-86078210D01*
X113189707Y-86078213D01*
X113078213Y-86189707D01*
X113078210Y-86189711D01*
X112990609Y-86320814D01*
X112990602Y-86320827D01*
X112930264Y-86466498D01*
X112930261Y-86466510D01*
X112899500Y-86621153D01*
X97200500Y-86621153D01*
X97200500Y-86431004D01*
X97173581Y-86295677D01*
X97173580Y-86295676D01*
X97173580Y-86295672D01*
X97134159Y-86200500D01*
X97120778Y-86168195D01*
X97120771Y-86168182D01*
X97044114Y-86053458D01*
X97044111Y-86053454D01*
X96946545Y-85955888D01*
X96946541Y-85955885D01*
X96831817Y-85879228D01*
X96831804Y-85879221D01*
X96704332Y-85826421D01*
X96704322Y-85826418D01*
X96568995Y-85799500D01*
X96568993Y-85799500D01*
X96539882Y-85799500D01*
X92822378Y-85799500D01*
X92755339Y-85779815D01*
X92709584Y-85727011D01*
X92698380Y-85676122D01*
X92694605Y-84921153D01*
X101199500Y-84921153D01*
X101199500Y-85078846D01*
X101230261Y-85233489D01*
X101230264Y-85233501D01*
X101290602Y-85379172D01*
X101290609Y-85379185D01*
X101378210Y-85510288D01*
X101378213Y-85510292D01*
X101489707Y-85621786D01*
X101489711Y-85621789D01*
X101620814Y-85709390D01*
X101620827Y-85709397D01*
X101766498Y-85769735D01*
X101766503Y-85769737D01*
X101916131Y-85799500D01*
X101921153Y-85800499D01*
X101921156Y-85800500D01*
X101921158Y-85800500D01*
X102078844Y-85800500D01*
X102078845Y-85800499D01*
X102233497Y-85769737D01*
X102379179Y-85709394D01*
X102510289Y-85621789D01*
X102621789Y-85510289D01*
X102709394Y-85379179D01*
X102733429Y-85321153D01*
X127499500Y-85321153D01*
X127499500Y-85478846D01*
X127530261Y-85633489D01*
X127530264Y-85633501D01*
X127590602Y-85779172D01*
X127590609Y-85779185D01*
X127678210Y-85910288D01*
X127678213Y-85910292D01*
X127789707Y-86021786D01*
X127789711Y-86021789D01*
X127920814Y-86109390D01*
X127920827Y-86109397D01*
X128062749Y-86168182D01*
X128066503Y-86169737D01*
X128221153Y-86200499D01*
X128221156Y-86200500D01*
X128221158Y-86200500D01*
X128378844Y-86200500D01*
X128378845Y-86200499D01*
X128533497Y-86169737D01*
X128657403Y-86118414D01*
X128679172Y-86109397D01*
X128679172Y-86109396D01*
X128679179Y-86109394D01*
X128810289Y-86021789D01*
X128921789Y-85910289D01*
X129009394Y-85779179D01*
X129069737Y-85633497D01*
X129085048Y-85556520D01*
X129097542Y-85493713D01*
X145124500Y-85493713D01*
X145124500Y-85706287D01*
X145124992Y-85709394D01*
X145156810Y-85910288D01*
X145157754Y-85916243D01*
X145210381Y-86078213D01*
X145223444Y-86118414D01*
X145319951Y-86307820D01*
X145444890Y-86479786D01*
X145595209Y-86630105D01*
X145595214Y-86630109D01*
X145759793Y-86749682D01*
X145802459Y-86805011D01*
X145808438Y-86874625D01*
X145775833Y-86936420D01*
X145759793Y-86950318D01*
X145595214Y-87069890D01*
X145595209Y-87069894D01*
X145444890Y-87220213D01*
X145319951Y-87392179D01*
X145223444Y-87581585D01*
X145157753Y-87783760D01*
X145124500Y-87993713D01*
X145124500Y-88206286D01*
X145156142Y-88406070D01*
X145157754Y-88416243D01*
X145210697Y-88579185D01*
X145223444Y-88618414D01*
X145319951Y-88807820D01*
X145444890Y-88979786D01*
X145583705Y-89118601D01*
X145617190Y-89179924D01*
X145612206Y-89249616D01*
X145570334Y-89305549D01*
X145561121Y-89311821D01*
X145406342Y-89407289D01*
X145282289Y-89531342D01*
X145190187Y-89680663D01*
X145190185Y-89680668D01*
X145186892Y-89690606D01*
X145135001Y-89847203D01*
X145135001Y-89847204D01*
X145135000Y-89847204D01*
X145124500Y-89949983D01*
X145124500Y-91250001D01*
X145124501Y-91250018D01*
X145135000Y-91352796D01*
X145135001Y-91352799D01*
X145190185Y-91519331D01*
X145190187Y-91519336D01*
X145198917Y-91533489D01*
X145282288Y-91668656D01*
X145406344Y-91792712D01*
X145555666Y-91884814D01*
X145722203Y-91939999D01*
X145824991Y-91950500D01*
X147375008Y-91950499D01*
X147477797Y-91939999D01*
X147644334Y-91884814D01*
X147793656Y-91792712D01*
X147917712Y-91668656D01*
X148009814Y-91519334D01*
X148064999Y-91352797D01*
X148075500Y-91250009D01*
X148075499Y-89949992D01*
X148073483Y-89930261D01*
X148064999Y-89847203D01*
X148064998Y-89847200D01*
X148027802Y-89734951D01*
X148009814Y-89680666D01*
X147917712Y-89531344D01*
X147793656Y-89407288D01*
X147644334Y-89315186D01*
X147644333Y-89315185D01*
X147638878Y-89311821D01*
X147592154Y-89259873D01*
X147580931Y-89190910D01*
X147608775Y-89126828D01*
X147616272Y-89118623D01*
X147755104Y-88979792D01*
X147755550Y-88979179D01*
X147880048Y-88807820D01*
X147880047Y-88807820D01*
X147880051Y-88807816D01*
X147976557Y-88618412D01*
X148042246Y-88416243D01*
X148075500Y-88206287D01*
X148075500Y-87993713D01*
X148042246Y-87783757D01*
X147976557Y-87581588D01*
X147880051Y-87392184D01*
X147880049Y-87392181D01*
X147880048Y-87392179D01*
X147755109Y-87220213D01*
X147604792Y-87069896D01*
X147604784Y-87069890D01*
X147440204Y-86950316D01*
X147397540Y-86894989D01*
X147391561Y-86825376D01*
X147424166Y-86763580D01*
X147440199Y-86749686D01*
X147604792Y-86630104D01*
X147755104Y-86479792D01*
X147755106Y-86479788D01*
X147755109Y-86479786D01*
X147880048Y-86307820D01*
X147880047Y-86307820D01*
X147880051Y-86307816D01*
X147976557Y-86118412D01*
X148042246Y-85916243D01*
X148075500Y-85706287D01*
X148075500Y-85493713D01*
X148042246Y-85283757D01*
X147976557Y-85081588D01*
X147880051Y-84892184D01*
X147880049Y-84892181D01*
X147880048Y-84892179D01*
X147755109Y-84720213D01*
X147604786Y-84569890D01*
X147432820Y-84444951D01*
X147243414Y-84348444D01*
X147243413Y-84348443D01*
X147243412Y-84348443D01*
X147041243Y-84282754D01*
X147041241Y-84282753D01*
X147041240Y-84282753D01*
X146879957Y-84257208D01*
X146831287Y-84249500D01*
X146368713Y-84249500D01*
X146320042Y-84257208D01*
X146158760Y-84282753D01*
X145956585Y-84348444D01*
X145767179Y-84444951D01*
X145595213Y-84569890D01*
X145444890Y-84720213D01*
X145319951Y-84892179D01*
X145223444Y-85081585D01*
X145157753Y-85283760D01*
X145126855Y-85478842D01*
X145124500Y-85493713D01*
X129097542Y-85493713D01*
X129100500Y-85478845D01*
X129100500Y-85321155D01*
X129100499Y-85321153D01*
X129069738Y-85166510D01*
X129069737Y-85166503D01*
X129069735Y-85166498D01*
X129009397Y-85020827D01*
X129009390Y-85020814D01*
X128921789Y-84889711D01*
X128921786Y-84889707D01*
X128810292Y-84778213D01*
X128810288Y-84778210D01*
X128679185Y-84690609D01*
X128679172Y-84690602D01*
X128533501Y-84630264D01*
X128533489Y-84630261D01*
X128378845Y-84599500D01*
X128378842Y-84599500D01*
X128221158Y-84599500D01*
X128221155Y-84599500D01*
X128066510Y-84630261D01*
X128066498Y-84630264D01*
X127920827Y-84690602D01*
X127920814Y-84690609D01*
X127789711Y-84778210D01*
X127789707Y-84778213D01*
X127678213Y-84889707D01*
X127678210Y-84889711D01*
X127590609Y-85020814D01*
X127590602Y-85020827D01*
X127530264Y-85166498D01*
X127530261Y-85166510D01*
X127499500Y-85321153D01*
X102733429Y-85321153D01*
X102748919Y-85283757D01*
X102755603Y-85267621D01*
X102755605Y-85267614D01*
X102769737Y-85233497D01*
X102800500Y-85078842D01*
X102800500Y-84921158D01*
X102800500Y-84921155D01*
X102800499Y-84921153D01*
X102772066Y-84778211D01*
X102769737Y-84766503D01*
X102738298Y-84690602D01*
X102709397Y-84620827D01*
X102709390Y-84620814D01*
X102621789Y-84489711D01*
X102621786Y-84489707D01*
X102510292Y-84378213D01*
X102510288Y-84378210D01*
X102379185Y-84290609D01*
X102379172Y-84290602D01*
X102233501Y-84230264D01*
X102233489Y-84230261D01*
X102078845Y-84199500D01*
X102078842Y-84199500D01*
X101921158Y-84199500D01*
X101921155Y-84199500D01*
X101766510Y-84230261D01*
X101766498Y-84230264D01*
X101620827Y-84290602D01*
X101620814Y-84290609D01*
X101489711Y-84378210D01*
X101489707Y-84378213D01*
X101378213Y-84489707D01*
X101378210Y-84489711D01*
X101290609Y-84620814D01*
X101290602Y-84620827D01*
X101230264Y-84766498D01*
X101230261Y-84766510D01*
X101199500Y-84921153D01*
X92694605Y-84921153D01*
X92681057Y-82211533D01*
X97409120Y-82211533D01*
X97409120Y-82369226D01*
X97439881Y-82523869D01*
X97439884Y-82523881D01*
X97500222Y-82669552D01*
X97500229Y-82669565D01*
X97587830Y-82800668D01*
X97587833Y-82800672D01*
X97699327Y-82912166D01*
X97699331Y-82912169D01*
X97830434Y-82999770D01*
X97830447Y-82999777D01*
X97976118Y-83060115D01*
X97976123Y-83060117D01*
X98093682Y-83083501D01*
X98130773Y-83090879D01*
X98130776Y-83090880D01*
X98130778Y-83090880D01*
X98288464Y-83090880D01*
X98288465Y-83090879D01*
X98443117Y-83060117D01*
X98588799Y-82999774D01*
X98719909Y-82912169D01*
X98831409Y-82800669D01*
X98919014Y-82669559D01*
X98979357Y-82523877D01*
X99010120Y-82369222D01*
X99010120Y-82211538D01*
X99010120Y-82211535D01*
X99010119Y-82211533D01*
X98995743Y-82139257D01*
X98992142Y-82121153D01*
X100099500Y-82121153D01*
X100099500Y-82278846D01*
X100130261Y-82433489D01*
X100130264Y-82433501D01*
X100190602Y-82579172D01*
X100190609Y-82579185D01*
X100278210Y-82710288D01*
X100278213Y-82710292D01*
X100389707Y-82821786D01*
X100389711Y-82821789D01*
X100520814Y-82909390D01*
X100520827Y-82909397D01*
X100666498Y-82969735D01*
X100666503Y-82969737D01*
X100817488Y-82999770D01*
X100821153Y-83000499D01*
X100821156Y-83000500D01*
X100821158Y-83000500D01*
X100978844Y-83000500D01*
X100978845Y-83000499D01*
X101133497Y-82969737D01*
X101279179Y-82909394D01*
X101410289Y-82821789D01*
X101460925Y-82771153D01*
X117199500Y-82771153D01*
X117199500Y-82928846D01*
X117230261Y-83083489D01*
X117230264Y-83083501D01*
X117290602Y-83229172D01*
X117290609Y-83229185D01*
X117378210Y-83360288D01*
X117378213Y-83360292D01*
X117489707Y-83471786D01*
X117489711Y-83471789D01*
X117620814Y-83559390D01*
X117620827Y-83559397D01*
X117766498Y-83619735D01*
X117766503Y-83619737D01*
X117921153Y-83650499D01*
X117921156Y-83650500D01*
X117921158Y-83650500D01*
X118078844Y-83650500D01*
X118078845Y-83650499D01*
X118233497Y-83619737D01*
X118379179Y-83559394D01*
X118510289Y-83471789D01*
X118621789Y-83360289D01*
X118709394Y-83229179D01*
X118769737Y-83083497D01*
X118800500Y-82928842D01*
X118800500Y-82771158D01*
X118800500Y-82771155D01*
X118800499Y-82771153D01*
X118785585Y-82696175D01*
X118769737Y-82616503D01*
X118767163Y-82610288D01*
X118709397Y-82470827D01*
X118709390Y-82470814D01*
X118621789Y-82339711D01*
X118621786Y-82339707D01*
X118510292Y-82228213D01*
X118510288Y-82228210D01*
X118379185Y-82140609D01*
X118379173Y-82140602D01*
X118352674Y-82129627D01*
X118233501Y-82080264D01*
X118233489Y-82080261D01*
X118078845Y-82049500D01*
X118078842Y-82049500D01*
X117921158Y-82049500D01*
X117921155Y-82049500D01*
X117766510Y-82080261D01*
X117766498Y-82080264D01*
X117620827Y-82140602D01*
X117620814Y-82140609D01*
X117489711Y-82228210D01*
X117489707Y-82228213D01*
X117378213Y-82339707D01*
X117378210Y-82339711D01*
X117290609Y-82470814D01*
X117290602Y-82470827D01*
X117230264Y-82616498D01*
X117230261Y-82616510D01*
X117199500Y-82771153D01*
X101460925Y-82771153D01*
X101521789Y-82710289D01*
X101609394Y-82579179D01*
X101669737Y-82433497D01*
X101700500Y-82278842D01*
X101700500Y-82121158D01*
X101700500Y-82121155D01*
X101700499Y-82121153D01*
X101686246Y-82049500D01*
X101680607Y-82021153D01*
X124699500Y-82021153D01*
X124699500Y-82178846D01*
X124730261Y-82333489D01*
X124730264Y-82333501D01*
X124790602Y-82479172D01*
X124790609Y-82479185D01*
X124878210Y-82610288D01*
X124878213Y-82610292D01*
X124989707Y-82721786D01*
X124989711Y-82721789D01*
X125120814Y-82809390D01*
X125120827Y-82809397D01*
X125266498Y-82869735D01*
X125266503Y-82869737D01*
X125421153Y-82900499D01*
X125421156Y-82900500D01*
X125421158Y-82900500D01*
X125578844Y-82900500D01*
X125578845Y-82900499D01*
X125733497Y-82869737D01*
X125879179Y-82809394D01*
X126010289Y-82721789D01*
X126121789Y-82610289D01*
X126209394Y-82479179D01*
X126212854Y-82470827D01*
X126241984Y-82400499D01*
X126269737Y-82333497D01*
X126300500Y-82178842D01*
X126300500Y-82021158D01*
X126300500Y-82021155D01*
X126300499Y-82021153D01*
X126278628Y-81911201D01*
X126269737Y-81866503D01*
X126234930Y-81782471D01*
X126209397Y-81720827D01*
X126209390Y-81720814D01*
X126121789Y-81589711D01*
X126121786Y-81589707D01*
X126010292Y-81478213D01*
X126010288Y-81478210D01*
X125879185Y-81390609D01*
X125879172Y-81390602D01*
X125733501Y-81330264D01*
X125733489Y-81330261D01*
X125578845Y-81299500D01*
X125578842Y-81299500D01*
X125421158Y-81299500D01*
X125421155Y-81299500D01*
X125266510Y-81330261D01*
X125266498Y-81330264D01*
X125120827Y-81390602D01*
X125120814Y-81390609D01*
X124989711Y-81478210D01*
X124989707Y-81478213D01*
X124878213Y-81589707D01*
X124878210Y-81589711D01*
X124790609Y-81720814D01*
X124790602Y-81720827D01*
X124730264Y-81866498D01*
X124730261Y-81866510D01*
X124699500Y-82021153D01*
X101680607Y-82021153D01*
X101669737Y-81966503D01*
X101646833Y-81911207D01*
X101609397Y-81820827D01*
X101609390Y-81820814D01*
X101521789Y-81689711D01*
X101521786Y-81689707D01*
X101410292Y-81578213D01*
X101410288Y-81578210D01*
X101279185Y-81490609D01*
X101279172Y-81490602D01*
X101133501Y-81430264D01*
X101133489Y-81430261D01*
X100978845Y-81399500D01*
X100978842Y-81399500D01*
X100821158Y-81399500D01*
X100821155Y-81399500D01*
X100666510Y-81430261D01*
X100666498Y-81430264D01*
X100520827Y-81490602D01*
X100520814Y-81490609D01*
X100389711Y-81578210D01*
X100389707Y-81578213D01*
X100278213Y-81689707D01*
X100278210Y-81689711D01*
X100190609Y-81820814D01*
X100190602Y-81820827D01*
X100130264Y-81966498D01*
X100130261Y-81966510D01*
X100099500Y-82121153D01*
X98992142Y-82121153D01*
X98979358Y-82056888D01*
X98979357Y-82056887D01*
X98979357Y-82056883D01*
X98976299Y-82049500D01*
X98919017Y-81911207D01*
X98919010Y-81911194D01*
X98831409Y-81780091D01*
X98831406Y-81780087D01*
X98719912Y-81668593D01*
X98719908Y-81668590D01*
X98588805Y-81580989D01*
X98588792Y-81580982D01*
X98443121Y-81520644D01*
X98443109Y-81520641D01*
X98288465Y-81489880D01*
X98288462Y-81489880D01*
X98130778Y-81489880D01*
X98130775Y-81489880D01*
X97976130Y-81520641D01*
X97976118Y-81520644D01*
X97830447Y-81580982D01*
X97830434Y-81580989D01*
X97699331Y-81668590D01*
X97699327Y-81668593D01*
X97587833Y-81780087D01*
X97587830Y-81780091D01*
X97500229Y-81911194D01*
X97500222Y-81911207D01*
X97439884Y-82056878D01*
X97439881Y-82056890D01*
X97409120Y-82211533D01*
X92681057Y-82211533D01*
X92679523Y-81904706D01*
X92698872Y-81837571D01*
X92751446Y-81791553D01*
X92779330Y-81782471D01*
X92862658Y-81765896D01*
X92862661Y-81765894D01*
X92862666Y-81765894D01*
X93026547Y-81698013D01*
X93174035Y-81599464D01*
X93299464Y-81474035D01*
X93398013Y-81326547D01*
X93465894Y-81162666D01*
X93481590Y-81083760D01*
X93500499Y-80988695D01*
X93500500Y-80988693D01*
X93500500Y-80811306D01*
X93500499Y-80811304D01*
X93465896Y-80637341D01*
X93465893Y-80637332D01*
X93459192Y-80621155D01*
X93448923Y-80596363D01*
X93398016Y-80473459D01*
X93398009Y-80473446D01*
X93299464Y-80325965D01*
X93299461Y-80325961D01*
X93174038Y-80200538D01*
X93174034Y-80200535D01*
X93026553Y-80101990D01*
X93026540Y-80101983D01*
X92862667Y-80034106D01*
X92862659Y-80034104D01*
X92769278Y-80015529D01*
X92741412Y-80000953D01*
X92712737Y-79988030D01*
X92710692Y-79984883D01*
X92707367Y-79983144D01*
X92691803Y-79955812D01*
X92674669Y-79929442D01*
X92673919Y-79924405D01*
X92672793Y-79922428D01*
X92669472Y-79894537D01*
X92668681Y-79736304D01*
X97099500Y-79736304D01*
X97099500Y-79913695D01*
X97134103Y-80087658D01*
X97134106Y-80087667D01*
X97201983Y-80251540D01*
X97201990Y-80251553D01*
X97300535Y-80399034D01*
X97300538Y-80399038D01*
X97425961Y-80524461D01*
X97425965Y-80524464D01*
X97573446Y-80623009D01*
X97573459Y-80623016D01*
X97696363Y-80673923D01*
X97737334Y-80690894D01*
X97737336Y-80690894D01*
X97737341Y-80690896D01*
X97911304Y-80725499D01*
X97911307Y-80725500D01*
X97911309Y-80725500D01*
X98088693Y-80725500D01*
X98088694Y-80725499D01*
X98146682Y-80713964D01*
X98262658Y-80690896D01*
X98262661Y-80690894D01*
X98262666Y-80690894D01*
X98426547Y-80623013D01*
X98429331Y-80621153D01*
X127324500Y-80621153D01*
X127324500Y-80778846D01*
X127355261Y-80933489D01*
X127355264Y-80933501D01*
X127415602Y-81079172D01*
X127415609Y-81079185D01*
X127503210Y-81210288D01*
X127503213Y-81210292D01*
X127614707Y-81321786D01*
X127614711Y-81321789D01*
X127745814Y-81409390D01*
X127745827Y-81409397D01*
X127891498Y-81469735D01*
X127891503Y-81469737D01*
X128046153Y-81500499D01*
X128046156Y-81500500D01*
X128046158Y-81500500D01*
X128203844Y-81500500D01*
X128203845Y-81500499D01*
X128358497Y-81469737D01*
X128504179Y-81409394D01*
X128635289Y-81321789D01*
X128746789Y-81210289D01*
X128834394Y-81079179D01*
X128894737Y-80933497D01*
X128925500Y-80778842D01*
X128925500Y-80621158D01*
X128925500Y-80621155D01*
X128925499Y-80621153D01*
X128906266Y-80524464D01*
X128894737Y-80466503D01*
X128869955Y-80406673D01*
X128834397Y-80320827D01*
X128834390Y-80320814D01*
X128746789Y-80189711D01*
X128746786Y-80189707D01*
X128635292Y-80078213D01*
X128635288Y-80078210D01*
X128504185Y-79990609D01*
X128504172Y-79990602D01*
X128358501Y-79930264D01*
X128358489Y-79930261D01*
X128203845Y-79899500D01*
X128203842Y-79899500D01*
X128046158Y-79899500D01*
X128046155Y-79899500D01*
X127891510Y-79930261D01*
X127891498Y-79930264D01*
X127745827Y-79990602D01*
X127745814Y-79990609D01*
X127614711Y-80078210D01*
X127614707Y-80078213D01*
X127503213Y-80189707D01*
X127503210Y-80189711D01*
X127415609Y-80320814D01*
X127415602Y-80320827D01*
X127355264Y-80466498D01*
X127355261Y-80466510D01*
X127324500Y-80621153D01*
X98429331Y-80621153D01*
X98574035Y-80524464D01*
X98699464Y-80399035D01*
X98798013Y-80251547D01*
X98865894Y-80087666D01*
X98867775Y-80078213D01*
X98897203Y-79930264D01*
X98900500Y-79913691D01*
X98900500Y-79736309D01*
X98900500Y-79736306D01*
X98900499Y-79736304D01*
X98865896Y-79562341D01*
X98865893Y-79562332D01*
X98798016Y-79398459D01*
X98798009Y-79398446D01*
X98699464Y-79250965D01*
X98699461Y-79250961D01*
X98574038Y-79125538D01*
X98574034Y-79125535D01*
X98426553Y-79026990D01*
X98426540Y-79026983D01*
X98262667Y-78959106D01*
X98262658Y-78959103D01*
X98088694Y-78924500D01*
X98088691Y-78924500D01*
X97911309Y-78924500D01*
X97911306Y-78924500D01*
X97737341Y-78959103D01*
X97737332Y-78959106D01*
X97573459Y-79026983D01*
X97573446Y-79026990D01*
X97425965Y-79125535D01*
X97425961Y-79125538D01*
X97300538Y-79250961D01*
X97300535Y-79250965D01*
X97201990Y-79398446D01*
X97201983Y-79398459D01*
X97134106Y-79562332D01*
X97134103Y-79562341D01*
X97099500Y-79736304D01*
X92668681Y-79736304D01*
X92665083Y-79016719D01*
X92684431Y-78949588D01*
X92720188Y-78913004D01*
X92813476Y-78850672D01*
X92925672Y-78738476D01*
X93013824Y-78606547D01*
X93074545Y-78459956D01*
X93105500Y-78304335D01*
X93105500Y-78145665D01*
X93105500Y-78145662D01*
X93074545Y-77990045D01*
X93074545Y-77990044D01*
X93064649Y-77966153D01*
X95288322Y-77966153D01*
X95288322Y-78123846D01*
X95319083Y-78278489D01*
X95319086Y-78278501D01*
X95379424Y-78424172D01*
X95379431Y-78424185D01*
X95467032Y-78555288D01*
X95467035Y-78555292D01*
X95578529Y-78666786D01*
X95578533Y-78666789D01*
X95709636Y-78754390D01*
X95709649Y-78754397D01*
X95855320Y-78814735D01*
X95855325Y-78814737D01*
X96009975Y-78845499D01*
X96009978Y-78845500D01*
X96009980Y-78845500D01*
X96167666Y-78845500D01*
X96167667Y-78845499D01*
X96322319Y-78814737D01*
X96468001Y-78754394D01*
X96599111Y-78666789D01*
X96710611Y-78555289D01*
X96798216Y-78424179D01*
X96858559Y-78278497D01*
X96889322Y-78123842D01*
X96889322Y-77966158D01*
X96888522Y-77962135D01*
X136854500Y-77962135D01*
X136854500Y-79757870D01*
X136854501Y-79757876D01*
X136860908Y-79817483D01*
X136911202Y-79952328D01*
X136911206Y-79952335D01*
X136997452Y-80067544D01*
X136997455Y-80067547D01*
X137112664Y-80153793D01*
X137112671Y-80153797D01*
X137244082Y-80202810D01*
X137300016Y-80244681D01*
X137324433Y-80310145D01*
X137309582Y-80378418D01*
X137288431Y-80406673D01*
X137174889Y-80520215D01*
X137049951Y-80692179D01*
X136953444Y-80881585D01*
X136887753Y-81083760D01*
X136866046Y-81220814D01*
X136854500Y-81293713D01*
X136854500Y-81506287D01*
X136856774Y-81520643D01*
X136884866Y-81698013D01*
X136887754Y-81716243D01*
X136925852Y-81833497D01*
X136953444Y-81918414D01*
X137049951Y-82107820D01*
X137174890Y-82279786D01*
X137325213Y-82430109D01*
X137497179Y-82555048D01*
X137497181Y-82555049D01*
X137497184Y-82555051D01*
X137686588Y-82651557D01*
X137888757Y-82717246D01*
X138098713Y-82750500D01*
X138098714Y-82750500D01*
X138311286Y-82750500D01*
X138311287Y-82750500D01*
X138521243Y-82717246D01*
X138723412Y-82651557D01*
X138912816Y-82555051D01*
X138955735Y-82523869D01*
X139084786Y-82430109D01*
X139084788Y-82430106D01*
X139084792Y-82430104D01*
X139235104Y-82279792D01*
X139235106Y-82279788D01*
X139235109Y-82279786D01*
X139360048Y-82107820D01*
X139360047Y-82107820D01*
X139360051Y-82107816D01*
X139456557Y-81918412D01*
X139522246Y-81716243D01*
X139553145Y-81521153D01*
X145299500Y-81521153D01*
X145299500Y-81678846D01*
X145330261Y-81833489D01*
X145330264Y-81833501D01*
X145390602Y-81979172D01*
X145390609Y-81979185D01*
X145478210Y-82110288D01*
X145478213Y-82110292D01*
X145589707Y-82221786D01*
X145589711Y-82221789D01*
X145720814Y-82309390D01*
X145720827Y-82309397D01*
X145865264Y-82369224D01*
X145866503Y-82369737D01*
X146021153Y-82400499D01*
X146021156Y-82400500D01*
X146021158Y-82400500D01*
X146178844Y-82400500D01*
X146178845Y-82400499D01*
X146333497Y-82369737D01*
X146479179Y-82309394D01*
X146610289Y-82221789D01*
X146721789Y-82110289D01*
X146809394Y-81979179D01*
X146869737Y-81833497D01*
X146900500Y-81678842D01*
X146900500Y-81521158D01*
X146900500Y-81521155D01*
X146900499Y-81521153D01*
X146891127Y-81474038D01*
X146869737Y-81366503D01*
X146869735Y-81366498D01*
X146809397Y-81220827D01*
X146809390Y-81220814D01*
X146721789Y-81089711D01*
X146721786Y-81089707D01*
X146610292Y-80978213D01*
X146610288Y-80978210D01*
X146479185Y-80890609D01*
X146479172Y-80890602D01*
X146333501Y-80830264D01*
X146333489Y-80830261D01*
X146178845Y-80799500D01*
X146178842Y-80799500D01*
X146021158Y-80799500D01*
X146021155Y-80799500D01*
X145866510Y-80830261D01*
X145866498Y-80830264D01*
X145720827Y-80890602D01*
X145720814Y-80890609D01*
X145589711Y-80978210D01*
X145589707Y-80978213D01*
X145478213Y-81089707D01*
X145478210Y-81089711D01*
X145390609Y-81220814D01*
X145390602Y-81220827D01*
X145330264Y-81366498D01*
X145330261Y-81366510D01*
X145299500Y-81521153D01*
X139553145Y-81521153D01*
X139555500Y-81506287D01*
X139555500Y-81293713D01*
X139522246Y-81083757D01*
X139456557Y-80881588D01*
X139360051Y-80692184D01*
X139360049Y-80692181D01*
X139360048Y-80692179D01*
X139235109Y-80520213D01*
X139121569Y-80406673D01*
X139088084Y-80345350D01*
X139093068Y-80275658D01*
X139134940Y-80219725D01*
X139165915Y-80202810D01*
X139297331Y-80153796D01*
X139412546Y-80067546D01*
X139498796Y-79952331D01*
X139549091Y-79817483D01*
X139555500Y-79757873D01*
X139555499Y-77962128D01*
X139549091Y-77902517D01*
X139527062Y-77843455D01*
X139498797Y-77767671D01*
X139498793Y-77767664D01*
X139412547Y-77652455D01*
X139412544Y-77652452D01*
X139297335Y-77566206D01*
X139297328Y-77566202D01*
X139162482Y-77515908D01*
X139162483Y-77515908D01*
X139102883Y-77509501D01*
X139102881Y-77509500D01*
X139102873Y-77509500D01*
X139102864Y-77509500D01*
X137307129Y-77509500D01*
X137307123Y-77509501D01*
X137247516Y-77515908D01*
X137112671Y-77566202D01*
X137112664Y-77566206D01*
X136997455Y-77652452D01*
X136997452Y-77652455D01*
X136911206Y-77767664D01*
X136911202Y-77767671D01*
X136860908Y-77902517D01*
X136854501Y-77962116D01*
X136854501Y-77962123D01*
X136854500Y-77962135D01*
X96888522Y-77962135D01*
X96858559Y-77811503D01*
X96851264Y-77793891D01*
X96798219Y-77665827D01*
X96798212Y-77665814D01*
X96710611Y-77534711D01*
X96710608Y-77534707D01*
X96599114Y-77423213D01*
X96599110Y-77423210D01*
X96468007Y-77335609D01*
X96467994Y-77335602D01*
X96322323Y-77275264D01*
X96322311Y-77275261D01*
X96167667Y-77244500D01*
X96167664Y-77244500D01*
X96009980Y-77244500D01*
X96009977Y-77244500D01*
X95855332Y-77275261D01*
X95855320Y-77275264D01*
X95709649Y-77335602D01*
X95709636Y-77335609D01*
X95578533Y-77423210D01*
X95578529Y-77423213D01*
X95467035Y-77534707D01*
X95467032Y-77534711D01*
X95379431Y-77665814D01*
X95379424Y-77665827D01*
X95319086Y-77811498D01*
X95319083Y-77811510D01*
X95288322Y-77966153D01*
X93064649Y-77966153D01*
X93013824Y-77843453D01*
X92980706Y-77793889D01*
X92959829Y-77727214D01*
X92978313Y-77659834D01*
X92980691Y-77656133D01*
X93013824Y-77606547D01*
X93074545Y-77459956D01*
X93105500Y-77304335D01*
X93105500Y-77145665D01*
X93105500Y-77145662D01*
X93105499Y-77145660D01*
X93074546Y-76990051D01*
X93074545Y-76990044D01*
X93013824Y-76843453D01*
X93013822Y-76843450D01*
X93013820Y-76843446D01*
X92925672Y-76711524D01*
X92925669Y-76711520D01*
X92813479Y-76599330D01*
X92813475Y-76599327D01*
X92707235Y-76528339D01*
X92662430Y-76474726D01*
X92652129Y-76425862D01*
X92649053Y-75810766D01*
X92668402Y-75743632D01*
X92720976Y-75697614D01*
X92748860Y-75688532D01*
X92862658Y-75665896D01*
X92862661Y-75665894D01*
X92862666Y-75665894D01*
X93026547Y-75598013D01*
X93174035Y-75499464D01*
X93299464Y-75374035D01*
X93398013Y-75226547D01*
X93465894Y-75062666D01*
X93470225Y-75040896D01*
X93500499Y-74888695D01*
X93500500Y-74888693D01*
X93500500Y-74711306D01*
X93500499Y-74711304D01*
X93465896Y-74537341D01*
X93465893Y-74537332D01*
X93398016Y-74373459D01*
X93398009Y-74373446D01*
X93344630Y-74293559D01*
X93323752Y-74226881D01*
X93342236Y-74159501D01*
X93394215Y-74112811D01*
X93463185Y-74101635D01*
X93479806Y-74104889D01*
X93708884Y-74166270D01*
X93968880Y-74200500D01*
X93968887Y-74200500D01*
X94231113Y-74200500D01*
X94231120Y-74200500D01*
X94491116Y-74166270D01*
X94744419Y-74098398D01*
X94773616Y-74086304D01*
X97499500Y-74086304D01*
X97499500Y-74263695D01*
X97534103Y-74437658D01*
X97534106Y-74437667D01*
X97601983Y-74601540D01*
X97601990Y-74601553D01*
X97700535Y-74749034D01*
X97700538Y-74749038D01*
X97825961Y-74874461D01*
X97825965Y-74874464D01*
X97973446Y-74973009D01*
X97973459Y-74973016D01*
X98096363Y-75023923D01*
X98137334Y-75040894D01*
X98137336Y-75040894D01*
X98137341Y-75040896D01*
X98311304Y-75075499D01*
X98311307Y-75075500D01*
X98311309Y-75075500D01*
X98488693Y-75075500D01*
X98488694Y-75075499D01*
X98546682Y-75063964D01*
X98662658Y-75040896D01*
X98662661Y-75040894D01*
X98662666Y-75040894D01*
X98826547Y-74973013D01*
X98974035Y-74874464D01*
X99099464Y-74749035D01*
X99198013Y-74601547D01*
X99265894Y-74437666D01*
X99300500Y-74263691D01*
X99300500Y-74086309D01*
X99300500Y-74086306D01*
X99300499Y-74086304D01*
X99265896Y-73912341D01*
X99265893Y-73912332D01*
X99198016Y-73748459D01*
X99198009Y-73748446D01*
X99099464Y-73600965D01*
X99099461Y-73600961D01*
X98974038Y-73475538D01*
X98974034Y-73475535D01*
X98826553Y-73376990D01*
X98826540Y-73376983D01*
X98662667Y-73309106D01*
X98662657Y-73309103D01*
X98549942Y-73286683D01*
X98488694Y-73274500D01*
X98488691Y-73274500D01*
X98311309Y-73274500D01*
X98311306Y-73274500D01*
X98137341Y-73309103D01*
X98137332Y-73309106D01*
X97973459Y-73376983D01*
X97973446Y-73376990D01*
X97825965Y-73475535D01*
X97825961Y-73475538D01*
X97700538Y-73600961D01*
X97700535Y-73600965D01*
X97601990Y-73748446D01*
X97601983Y-73748459D01*
X97534106Y-73912332D01*
X97534103Y-73912341D01*
X97499500Y-74086304D01*
X94773616Y-74086304D01*
X94959303Y-74009390D01*
X94986690Y-73998046D01*
X94986690Y-73998045D01*
X94986697Y-73998043D01*
X95213803Y-73866924D01*
X95421851Y-73707282D01*
X95421855Y-73707277D01*
X95421860Y-73707274D01*
X95607274Y-73521860D01*
X95607277Y-73521855D01*
X95607282Y-73521851D01*
X95766924Y-73313803D01*
X95849283Y-73171153D01*
X112299500Y-73171153D01*
X112299500Y-73328846D01*
X112330261Y-73483489D01*
X112330264Y-73483501D01*
X112390602Y-73629172D01*
X112390609Y-73629185D01*
X112478210Y-73760288D01*
X112478213Y-73760292D01*
X112589707Y-73871786D01*
X112589711Y-73871789D01*
X112720814Y-73959390D01*
X112720827Y-73959397D01*
X112866498Y-74019735D01*
X112866503Y-74019737D01*
X113021153Y-74050499D01*
X113021156Y-74050500D01*
X113021158Y-74050500D01*
X113178844Y-74050500D01*
X113178845Y-74050499D01*
X113333497Y-74019737D01*
X113479179Y-73959394D01*
X113610289Y-73871789D01*
X113721789Y-73760289D01*
X113809394Y-73629179D01*
X113869737Y-73483497D01*
X113900500Y-73328842D01*
X113900500Y-73171158D01*
X113900500Y-73171155D01*
X113900499Y-73171153D01*
X115099500Y-73171153D01*
X115099500Y-73328846D01*
X115130261Y-73483489D01*
X115130264Y-73483501D01*
X115190602Y-73629172D01*
X115190609Y-73629185D01*
X115278210Y-73760288D01*
X115278213Y-73760292D01*
X115389707Y-73871786D01*
X115389711Y-73871789D01*
X115520814Y-73959390D01*
X115520827Y-73959397D01*
X115666498Y-74019735D01*
X115666503Y-74019737D01*
X115821153Y-74050499D01*
X115821156Y-74050500D01*
X115821158Y-74050500D01*
X115978844Y-74050500D01*
X115978845Y-74050499D01*
X116133497Y-74019737D01*
X116279179Y-73959394D01*
X116410289Y-73871789D01*
X116521789Y-73760289D01*
X116609394Y-73629179D01*
X116669737Y-73483497D01*
X116700500Y-73328842D01*
X116700500Y-73221153D01*
X126299500Y-73221153D01*
X126299500Y-73378846D01*
X126330261Y-73533489D01*
X126330264Y-73533501D01*
X126390602Y-73679172D01*
X126390609Y-73679185D01*
X126478210Y-73810288D01*
X126478213Y-73810292D01*
X126589707Y-73921786D01*
X126589711Y-73921789D01*
X126720814Y-74009390D01*
X126720827Y-74009397D01*
X126820060Y-74050500D01*
X126866503Y-74069737D01*
X127010586Y-74098397D01*
X127021153Y-74100499D01*
X127021156Y-74100500D01*
X127021158Y-74100500D01*
X127178844Y-74100500D01*
X127178845Y-74100499D01*
X127333497Y-74069737D01*
X127450790Y-74021153D01*
X140199500Y-74021153D01*
X140199500Y-74178846D01*
X140230261Y-74333489D01*
X140230264Y-74333501D01*
X140290602Y-74479172D01*
X140290609Y-74479185D01*
X140378210Y-74610288D01*
X140378213Y-74610292D01*
X140489707Y-74721786D01*
X140489711Y-74721789D01*
X140620814Y-74809390D01*
X140620827Y-74809397D01*
X140766498Y-74869735D01*
X140766503Y-74869737D01*
X140861791Y-74888691D01*
X140921153Y-74900499D01*
X140921156Y-74900500D01*
X140921158Y-74900500D01*
X141078844Y-74900500D01*
X141078845Y-74900499D01*
X141233497Y-74869737D01*
X141379179Y-74809394D01*
X141510289Y-74721789D01*
X141621789Y-74610289D01*
X141709394Y-74479179D01*
X141769737Y-74333497D01*
X141800500Y-74178842D01*
X141800500Y-74021158D01*
X141800500Y-74021155D01*
X141800499Y-74021153D01*
X141790887Y-73972829D01*
X141769737Y-73866503D01*
X141746452Y-73810288D01*
X141709397Y-73720827D01*
X141709390Y-73720814D01*
X141621789Y-73589711D01*
X141621786Y-73589707D01*
X141510292Y-73478213D01*
X141510288Y-73478210D01*
X141379185Y-73390609D01*
X141379172Y-73390602D01*
X141233501Y-73330264D01*
X141233489Y-73330261D01*
X141078845Y-73299500D01*
X141078842Y-73299500D01*
X140921158Y-73299500D01*
X140921155Y-73299500D01*
X140766510Y-73330261D01*
X140766498Y-73330264D01*
X140620827Y-73390602D01*
X140620814Y-73390609D01*
X140489711Y-73478210D01*
X140489707Y-73478213D01*
X140378213Y-73589707D01*
X140378210Y-73589711D01*
X140290609Y-73720814D01*
X140290602Y-73720827D01*
X140230264Y-73866498D01*
X140230261Y-73866510D01*
X140199500Y-74021153D01*
X127450790Y-74021153D01*
X127479179Y-74009394D01*
X127610289Y-73921789D01*
X127721789Y-73810289D01*
X127809394Y-73679179D01*
X127869737Y-73533497D01*
X127900500Y-73378842D01*
X127900500Y-73221158D01*
X127900500Y-73221155D01*
X127900499Y-73221153D01*
X127869738Y-73066510D01*
X127869737Y-73066503D01*
X127869735Y-73066498D01*
X127809397Y-72920827D01*
X127809390Y-72920814D01*
X127721789Y-72789711D01*
X127721786Y-72789707D01*
X127610292Y-72678213D01*
X127610288Y-72678210D01*
X127479185Y-72590609D01*
X127479172Y-72590602D01*
X127333501Y-72530264D01*
X127333489Y-72530261D01*
X127178845Y-72499500D01*
X127178842Y-72499500D01*
X127021158Y-72499500D01*
X127021155Y-72499500D01*
X126866510Y-72530261D01*
X126866498Y-72530264D01*
X126720827Y-72590602D01*
X126720814Y-72590609D01*
X126589711Y-72678210D01*
X126589707Y-72678213D01*
X126478213Y-72789707D01*
X126478210Y-72789711D01*
X126390609Y-72920814D01*
X126390602Y-72920827D01*
X126330264Y-73066498D01*
X126330261Y-73066510D01*
X126299500Y-73221153D01*
X116700500Y-73221153D01*
X116700500Y-73171158D01*
X116700500Y-73171155D01*
X116700499Y-73171153D01*
X116683700Y-73086700D01*
X116669737Y-73016503D01*
X116630102Y-72920814D01*
X116609397Y-72870827D01*
X116609390Y-72870814D01*
X116521789Y-72739711D01*
X116521786Y-72739707D01*
X116410292Y-72628213D01*
X116410288Y-72628210D01*
X116279185Y-72540609D01*
X116279172Y-72540602D01*
X116133501Y-72480264D01*
X116133489Y-72480261D01*
X115978845Y-72449500D01*
X115978842Y-72449500D01*
X115821158Y-72449500D01*
X115821155Y-72449500D01*
X115666510Y-72480261D01*
X115666498Y-72480264D01*
X115520827Y-72540602D01*
X115520814Y-72540609D01*
X115389711Y-72628210D01*
X115389707Y-72628213D01*
X115278213Y-72739707D01*
X115278210Y-72739711D01*
X115190609Y-72870814D01*
X115190602Y-72870827D01*
X115130264Y-73016498D01*
X115130261Y-73016510D01*
X115099500Y-73171153D01*
X113900499Y-73171153D01*
X113883700Y-73086700D01*
X113869737Y-73016503D01*
X113830102Y-72920814D01*
X113809397Y-72870827D01*
X113809390Y-72870814D01*
X113721789Y-72739711D01*
X113721786Y-72739707D01*
X113610292Y-72628213D01*
X113610288Y-72628210D01*
X113479185Y-72540609D01*
X113479172Y-72540602D01*
X113333501Y-72480264D01*
X113333489Y-72480261D01*
X113178845Y-72449500D01*
X113178842Y-72449500D01*
X113021158Y-72449500D01*
X113021155Y-72449500D01*
X112866510Y-72480261D01*
X112866498Y-72480264D01*
X112720827Y-72540602D01*
X112720814Y-72540609D01*
X112589711Y-72628210D01*
X112589707Y-72628213D01*
X112478213Y-72739707D01*
X112478210Y-72739711D01*
X112390609Y-72870814D01*
X112390602Y-72870827D01*
X112330264Y-73016498D01*
X112330261Y-73016510D01*
X112299500Y-73171153D01*
X95849283Y-73171153D01*
X95898043Y-73086697D01*
X95998398Y-72844419D01*
X96066270Y-72591116D01*
X96100500Y-72331120D01*
X96100500Y-72068880D01*
X96066270Y-71808884D01*
X95998398Y-71555581D01*
X95998394Y-71555571D01*
X95898046Y-71313309D01*
X95898041Y-71313299D01*
X95766924Y-71086196D01*
X95607281Y-70878148D01*
X95607274Y-70878140D01*
X95421860Y-70692726D01*
X95421851Y-70692718D01*
X95213803Y-70533075D01*
X95022197Y-70422453D01*
X94986699Y-70401958D01*
X94986690Y-70401953D01*
X94791621Y-70321153D01*
X137299500Y-70321153D01*
X137299500Y-70478846D01*
X137330261Y-70633489D01*
X137330264Y-70633501D01*
X137390602Y-70779172D01*
X137390609Y-70779185D01*
X137478210Y-70910288D01*
X137478213Y-70910292D01*
X137589707Y-71021786D01*
X137589711Y-71021789D01*
X137720814Y-71109390D01*
X137720827Y-71109397D01*
X137866498Y-71169735D01*
X137866503Y-71169737D01*
X138021153Y-71200499D01*
X138021156Y-71200500D01*
X138021158Y-71200500D01*
X138178844Y-71200500D01*
X138178845Y-71200499D01*
X138333497Y-71169737D01*
X138479179Y-71109394D01*
X138610289Y-71021789D01*
X138721789Y-70910289D01*
X138809394Y-70779179D01*
X138869737Y-70633497D01*
X138900500Y-70478842D01*
X138900500Y-70321158D01*
X138900500Y-70321155D01*
X138900499Y-70321153D01*
X138883109Y-70233730D01*
X138869737Y-70166503D01*
X138869735Y-70166498D01*
X138809397Y-70020827D01*
X138809390Y-70020814D01*
X138721789Y-69889711D01*
X138721786Y-69889707D01*
X138610292Y-69778213D01*
X138610288Y-69778210D01*
X138479185Y-69690609D01*
X138479172Y-69690602D01*
X138333501Y-69630264D01*
X138333489Y-69630261D01*
X138178845Y-69599500D01*
X138178842Y-69599500D01*
X138021158Y-69599500D01*
X138021155Y-69599500D01*
X137866510Y-69630261D01*
X137866498Y-69630264D01*
X137720827Y-69690602D01*
X137720814Y-69690609D01*
X137589711Y-69778210D01*
X137589707Y-69778213D01*
X137478213Y-69889707D01*
X137478210Y-69889711D01*
X137390609Y-70020814D01*
X137390602Y-70020827D01*
X137330264Y-70166498D01*
X137330261Y-70166510D01*
X137299500Y-70321153D01*
X94791621Y-70321153D01*
X94744428Y-70301605D01*
X94744421Y-70301603D01*
X94744419Y-70301602D01*
X94491116Y-70233730D01*
X94433339Y-70226123D01*
X94231127Y-70199500D01*
X94231120Y-70199500D01*
X93968880Y-70199500D01*
X93968872Y-70199500D01*
X93737772Y-70229926D01*
X93708884Y-70233730D01*
X93455581Y-70301602D01*
X93455571Y-70301605D01*
X93213309Y-70401953D01*
X93213299Y-70401958D01*
X92986201Y-70533072D01*
X92822289Y-70658848D01*
X92757119Y-70684042D01*
X92688675Y-70670004D01*
X92638685Y-70621190D01*
X92622805Y-70561096D01*
X92602847Y-66569448D01*
X95689500Y-66569448D01*
X95689500Y-66750551D01*
X95717829Y-66929410D01*
X95773787Y-67101636D01*
X95773788Y-67101639D01*
X95856006Y-67262997D01*
X95962441Y-67409494D01*
X95962445Y-67409499D01*
X96090500Y-67537554D01*
X96090505Y-67537558D01*
X96218287Y-67630396D01*
X96237006Y-67643996D01*
X96342484Y-67697740D01*
X96398360Y-67726211D01*
X96398363Y-67726212D01*
X96484476Y-67754191D01*
X96570591Y-67782171D01*
X96653429Y-67795291D01*
X96749449Y-67810500D01*
X96749454Y-67810500D01*
X96930551Y-67810500D01*
X97017259Y-67796765D01*
X97109409Y-67782171D01*
X97281639Y-67726211D01*
X97442994Y-67643996D01*
X97589501Y-67537553D01*
X97717553Y-67409501D01*
X97823996Y-67262994D01*
X97906211Y-67101639D01*
X97962171Y-66929409D01*
X97988019Y-66766212D01*
X97990500Y-66750551D01*
X97990500Y-66569448D01*
X97970256Y-66441639D01*
X97962171Y-66390591D01*
X97906211Y-66218361D01*
X97906211Y-66218360D01*
X97841088Y-66090551D01*
X97823996Y-66057006D01*
X97823993Y-66057002D01*
X97808488Y-66035660D01*
X97808487Y-66035659D01*
X97759074Y-65967648D01*
X112999500Y-65967648D01*
X112999500Y-66172352D01*
X113003878Y-66199995D01*
X113031522Y-66374534D01*
X113094781Y-66569223D01*
X113153260Y-66683993D01*
X113187173Y-66750551D01*
X113187715Y-66751613D01*
X113308028Y-66917213D01*
X113452786Y-67061971D01*
X113607749Y-67174556D01*
X113618390Y-67182287D01*
X113734607Y-67241503D01*
X113800776Y-67275218D01*
X113800778Y-67275218D01*
X113800781Y-67275220D01*
X113905137Y-67309127D01*
X113995465Y-67338477D01*
X114096557Y-67354488D01*
X114197648Y-67370500D01*
X114197649Y-67370500D01*
X114402351Y-67370500D01*
X114402352Y-67370500D01*
X114604534Y-67338477D01*
X114799219Y-67275220D01*
X114981610Y-67182287D01*
X115074590Y-67114732D01*
X115147213Y-67061971D01*
X115147215Y-67061968D01*
X115147219Y-67061966D01*
X115291966Y-66917219D01*
X115291968Y-66917215D01*
X115291971Y-66917213D01*
X115361022Y-66822171D01*
X115412287Y-66751610D01*
X115505220Y-66569219D01*
X115505219Y-66569219D01*
X115507432Y-66564878D01*
X115509430Y-66565896D01*
X115547437Y-66518727D01*
X115613730Y-66496658D01*
X115681430Y-66513933D01*
X115705844Y-66532898D01*
X115750500Y-66577554D01*
X115750505Y-66577558D01*
X115878287Y-66670396D01*
X115897006Y-66683996D01*
X116002484Y-66737740D01*
X116058360Y-66766211D01*
X116058363Y-66766212D01*
X116144476Y-66794191D01*
X116230591Y-66822171D01*
X116313429Y-66835291D01*
X116409449Y-66850500D01*
X116409454Y-66850500D01*
X116590551Y-66850500D01*
X116677259Y-66836765D01*
X116769409Y-66822171D01*
X116941639Y-66766211D01*
X117102994Y-66683996D01*
X117249501Y-66577553D01*
X117280750Y-66546303D01*
X117342069Y-66512820D01*
X117411761Y-66517804D01*
X117467695Y-66559674D01*
X117486360Y-66595668D01*
X117533787Y-66741636D01*
X117533788Y-66741639D01*
X117616006Y-66902997D01*
X117722441Y-67049494D01*
X117722445Y-67049499D01*
X117850500Y-67177554D01*
X117850505Y-67177558D01*
X117968099Y-67262994D01*
X117997006Y-67283996D01*
X118102484Y-67337740D01*
X118158360Y-67366211D01*
X118158363Y-67366212D01*
X118244476Y-67394191D01*
X118330591Y-67422171D01*
X118413429Y-67435291D01*
X118509449Y-67450500D01*
X118509454Y-67450500D01*
X118690551Y-67450500D01*
X118777259Y-67436765D01*
X118869409Y-67422171D01*
X119041639Y-67366211D01*
X119202994Y-67283996D01*
X119349501Y-67177553D01*
X119477553Y-67049501D01*
X119583996Y-66902994D01*
X119666211Y-66741639D01*
X119722171Y-66569409D01*
X119736765Y-66477259D01*
X119750500Y-66390551D01*
X119750500Y-66209448D01*
X119722171Y-66030592D01*
X119712587Y-66001095D01*
X119712586Y-66001092D01*
X119707031Y-65983996D01*
X119701719Y-65967648D01*
X124699500Y-65967648D01*
X124699500Y-66172352D01*
X124703878Y-66199995D01*
X124731522Y-66374534D01*
X124794781Y-66569223D01*
X124853260Y-66683993D01*
X124887173Y-66750551D01*
X124887715Y-66751613D01*
X125008028Y-66917213D01*
X125152786Y-67061971D01*
X125307749Y-67174556D01*
X125318390Y-67182287D01*
X125434607Y-67241503D01*
X125500776Y-67275218D01*
X125500778Y-67275218D01*
X125500781Y-67275220D01*
X125605137Y-67309127D01*
X125695465Y-67338477D01*
X125796557Y-67354488D01*
X125897648Y-67370500D01*
X125897649Y-67370500D01*
X126102351Y-67370500D01*
X126102352Y-67370500D01*
X126304534Y-67338477D01*
X126499219Y-67275220D01*
X126681610Y-67182287D01*
X126774590Y-67114732D01*
X126847213Y-67061971D01*
X126847215Y-67061968D01*
X126847219Y-67061966D01*
X126991966Y-66917219D01*
X126991968Y-66917215D01*
X126991971Y-66917213D01*
X127061022Y-66822171D01*
X127112287Y-66751610D01*
X127205220Y-66569219D01*
X127268477Y-66374534D01*
X127294624Y-66209448D01*
X129749500Y-66209448D01*
X129749500Y-66390551D01*
X129777829Y-66569410D01*
X129833787Y-66741636D01*
X129833788Y-66741639D01*
X129916006Y-66902997D01*
X130022441Y-67049494D01*
X130022445Y-67049499D01*
X130150500Y-67177554D01*
X130150505Y-67177558D01*
X130268099Y-67262994D01*
X130297006Y-67283996D01*
X130402484Y-67337740D01*
X130458360Y-67366211D01*
X130458363Y-67366212D01*
X130544476Y-67394191D01*
X130630591Y-67422171D01*
X130713429Y-67435291D01*
X130809449Y-67450500D01*
X130809454Y-67450500D01*
X130990551Y-67450500D01*
X131077259Y-67436765D01*
X131169409Y-67422171D01*
X131341639Y-67366211D01*
X131502994Y-67283996D01*
X131649501Y-67177553D01*
X131777553Y-67049501D01*
X131883996Y-66902994D01*
X131966211Y-66741639D01*
X132022171Y-66569409D01*
X132036765Y-66477259D01*
X132050500Y-66390551D01*
X132050500Y-66274500D01*
X132070185Y-66207461D01*
X132122989Y-66161706D01*
X132174500Y-66150500D01*
X132190551Y-66150500D01*
X132277259Y-66136765D01*
X132369409Y-66122171D01*
X132541639Y-66066211D01*
X132702994Y-65983996D01*
X132805601Y-65909448D01*
X138949500Y-65909448D01*
X138949500Y-66090551D01*
X138977829Y-66269410D01*
X139033787Y-66441636D01*
X139033788Y-66441639D01*
X139080288Y-66532898D01*
X139112271Y-66595668D01*
X139116006Y-66602997D01*
X139222441Y-66749494D01*
X139222445Y-66749499D01*
X139350500Y-66877554D01*
X139350505Y-66877558D01*
X139421873Y-66929409D01*
X139497006Y-66983996D01*
X139602484Y-67037740D01*
X139658360Y-67066211D01*
X139658363Y-67066212D01*
X139744476Y-67094191D01*
X139830591Y-67122171D01*
X139913429Y-67135291D01*
X140009449Y-67150500D01*
X140009454Y-67150500D01*
X140190551Y-67150500D01*
X140277259Y-67136765D01*
X140369409Y-67122171D01*
X140541639Y-67066211D01*
X140702994Y-66983996D01*
X140849501Y-66877553D01*
X140977553Y-66749501D01*
X141083996Y-66602994D01*
X141166211Y-66441639D01*
X141222171Y-66269409D01*
X141237544Y-66172347D01*
X141250500Y-66090551D01*
X141250500Y-65909448D01*
X141549500Y-65909448D01*
X141549500Y-66090551D01*
X141577829Y-66269410D01*
X141633787Y-66441636D01*
X141633788Y-66441639D01*
X141680288Y-66532898D01*
X141712271Y-66595668D01*
X141716006Y-66602997D01*
X141822441Y-66749494D01*
X141822445Y-66749499D01*
X141950500Y-66877554D01*
X141950505Y-66877558D01*
X142021873Y-66929409D01*
X142097006Y-66983996D01*
X142202484Y-67037740D01*
X142258360Y-67066211D01*
X142258363Y-67066212D01*
X142344476Y-67094191D01*
X142430591Y-67122171D01*
X142513429Y-67135291D01*
X142609449Y-67150500D01*
X142609454Y-67150500D01*
X142790551Y-67150500D01*
X142877259Y-67136765D01*
X142969409Y-67122171D01*
X143141639Y-67066211D01*
X143302994Y-66983996D01*
X143449501Y-66877553D01*
X143577553Y-66749501D01*
X143683996Y-66602994D01*
X143766211Y-66441639D01*
X143822171Y-66269409D01*
X143837544Y-66172347D01*
X143850500Y-66090551D01*
X143850500Y-65909448D01*
X143830383Y-65782441D01*
X143822171Y-65730591D01*
X143777722Y-65593788D01*
X143766212Y-65558363D01*
X143766211Y-65558360D01*
X143712881Y-65453696D01*
X143683996Y-65397006D01*
X143663400Y-65368658D01*
X143577558Y-65250505D01*
X143577554Y-65250500D01*
X143449499Y-65122445D01*
X143449494Y-65122441D01*
X143302997Y-65016006D01*
X143302996Y-65016005D01*
X143302994Y-65016004D01*
X143251300Y-64989664D01*
X143141639Y-64933788D01*
X143141636Y-64933787D01*
X142969410Y-64877829D01*
X142790551Y-64849500D01*
X142790546Y-64849500D01*
X142609454Y-64849500D01*
X142609449Y-64849500D01*
X142430589Y-64877829D01*
X142258363Y-64933787D01*
X142258360Y-64933788D01*
X142097002Y-65016006D01*
X141950505Y-65122441D01*
X141950500Y-65122445D01*
X141822445Y-65250500D01*
X141822441Y-65250505D01*
X141716006Y-65397002D01*
X141633788Y-65558360D01*
X141633787Y-65558363D01*
X141577829Y-65730589D01*
X141549500Y-65909448D01*
X141250500Y-65909448D01*
X141230383Y-65782441D01*
X141222171Y-65730591D01*
X141177722Y-65593788D01*
X141166212Y-65558363D01*
X141166211Y-65558360D01*
X141112881Y-65453696D01*
X141083996Y-65397006D01*
X141063400Y-65368658D01*
X140977558Y-65250505D01*
X140977554Y-65250500D01*
X140909235Y-65182181D01*
X140875750Y-65120858D01*
X140880734Y-65051166D01*
X140922606Y-64995233D01*
X140988070Y-64970816D01*
X140996916Y-64970500D01*
X141102351Y-64970500D01*
X141102352Y-64970500D01*
X141304534Y-64938477D01*
X141499219Y-64875220D01*
X141681610Y-64782287D01*
X141796050Y-64699142D01*
X141847213Y-64661971D01*
X141847215Y-64661968D01*
X141847219Y-64661966D01*
X141991966Y-64517219D01*
X141991968Y-64517215D01*
X141991971Y-64517213D01*
X142079308Y-64397002D01*
X142112287Y-64351610D01*
X142205220Y-64169219D01*
X142268477Y-63974534D01*
X142300500Y-63772352D01*
X142300500Y-63567648D01*
X142268477Y-63365466D01*
X142205220Y-63170781D01*
X142205218Y-63170778D01*
X142205218Y-63170776D01*
X142171503Y-63104607D01*
X142112287Y-62988390D01*
X142104556Y-62977749D01*
X141991971Y-62822786D01*
X141847213Y-62678028D01*
X141681613Y-62557715D01*
X141681612Y-62557714D01*
X141681610Y-62557713D01*
X141624653Y-62528691D01*
X141499223Y-62464781D01*
X141304534Y-62401522D01*
X141129995Y-62373878D01*
X141102352Y-62369500D01*
X140897648Y-62369500D01*
X140873329Y-62373351D01*
X140695465Y-62401522D01*
X140500776Y-62464781D01*
X140318386Y-62557715D01*
X140152786Y-62678028D01*
X140008028Y-62822786D01*
X139887715Y-62988386D01*
X139794781Y-63170776D01*
X139731522Y-63365465D01*
X139699500Y-63567648D01*
X139699500Y-63772351D01*
X139731522Y-63974534D01*
X139794781Y-64169223D01*
X139887715Y-64351613D01*
X140008028Y-64517213D01*
X140128634Y-64637819D01*
X140162119Y-64699142D01*
X140157135Y-64768834D01*
X140115263Y-64824767D01*
X140049799Y-64849184D01*
X140040953Y-64849500D01*
X140009449Y-64849500D01*
X139830589Y-64877829D01*
X139658363Y-64933787D01*
X139658360Y-64933788D01*
X139497002Y-65016006D01*
X139350505Y-65122441D01*
X139350500Y-65122445D01*
X139222445Y-65250500D01*
X139222441Y-65250505D01*
X139116006Y-65397002D01*
X139033788Y-65558360D01*
X139033787Y-65558363D01*
X138977829Y-65730589D01*
X138949500Y-65909448D01*
X132805601Y-65909448D01*
X132849501Y-65877553D01*
X132977553Y-65749501D01*
X133083996Y-65602994D01*
X133166211Y-65441639D01*
X133222171Y-65269409D01*
X133241163Y-65149500D01*
X133250500Y-65090551D01*
X133250500Y-64909448D01*
X133230358Y-64782284D01*
X133222171Y-64730591D01*
X133190718Y-64633787D01*
X133166212Y-64558363D01*
X133166211Y-64558360D01*
X133137740Y-64502484D01*
X133083996Y-64397006D01*
X133051014Y-64351610D01*
X132977558Y-64250505D01*
X132977554Y-64250500D01*
X132849499Y-64122445D01*
X132849494Y-64122441D01*
X132702997Y-64016006D01*
X132702996Y-64016005D01*
X132702994Y-64016004D01*
X132651300Y-63989664D01*
X132541639Y-63933788D01*
X132541636Y-63933787D01*
X132369410Y-63877829D01*
X132190551Y-63849500D01*
X132190546Y-63849500D01*
X132009454Y-63849500D01*
X132009449Y-63849500D01*
X131830589Y-63877829D01*
X131658363Y-63933787D01*
X131658360Y-63933788D01*
X131497002Y-64016006D01*
X131350505Y-64122441D01*
X131350500Y-64122445D01*
X131222445Y-64250500D01*
X131222441Y-64250505D01*
X131116006Y-64397002D01*
X131033788Y-64558360D01*
X131033787Y-64558363D01*
X130977829Y-64730589D01*
X130949500Y-64909448D01*
X130949500Y-65025500D01*
X130929815Y-65092539D01*
X130877011Y-65138294D01*
X130825500Y-65149500D01*
X130809449Y-65149500D01*
X130630589Y-65177829D01*
X130458363Y-65233787D01*
X130458360Y-65233788D01*
X130297002Y-65316006D01*
X130150505Y-65422441D01*
X130150500Y-65422445D01*
X130022445Y-65550500D01*
X130022441Y-65550505D01*
X129916006Y-65697002D01*
X129833788Y-65858360D01*
X129833787Y-65858363D01*
X129777829Y-66030589D01*
X129749500Y-66209448D01*
X127294624Y-66209448D01*
X127300500Y-66172352D01*
X127300500Y-65967648D01*
X127291449Y-65910505D01*
X127268477Y-65765465D01*
X127230806Y-65649526D01*
X127205220Y-65570781D01*
X127205218Y-65570778D01*
X127205218Y-65570776D01*
X127162623Y-65487180D01*
X127112287Y-65388390D01*
X127097951Y-65368658D01*
X126991971Y-65222786D01*
X126847213Y-65078028D01*
X126681613Y-64957715D01*
X126681612Y-64957714D01*
X126681610Y-64957713D01*
X126586885Y-64909448D01*
X126499223Y-64864781D01*
X126304534Y-64801522D01*
X126129995Y-64773878D01*
X126102352Y-64769500D01*
X125897648Y-64769500D01*
X125873329Y-64773351D01*
X125695465Y-64801522D01*
X125500776Y-64864781D01*
X125318386Y-64957715D01*
X125152786Y-65078028D01*
X125008028Y-65222786D01*
X124887715Y-65388386D01*
X124794781Y-65570776D01*
X124731522Y-65765465D01*
X124699500Y-65967648D01*
X119701719Y-65967648D01*
X119682810Y-65909448D01*
X119666213Y-65858366D01*
X119666211Y-65858360D01*
X119637740Y-65802484D01*
X119583996Y-65697006D01*
X119509005Y-65593789D01*
X119477558Y-65550505D01*
X119477554Y-65550500D01*
X119349499Y-65422445D01*
X119349494Y-65422441D01*
X119202997Y-65316006D01*
X119202996Y-65316005D01*
X119202994Y-65316004D01*
X119111547Y-65269409D01*
X119041639Y-65233788D01*
X119041636Y-65233787D01*
X118869410Y-65177829D01*
X118690551Y-65149500D01*
X118690546Y-65149500D01*
X118509454Y-65149500D01*
X118509449Y-65149500D01*
X118330589Y-65177829D01*
X118158363Y-65233787D01*
X118158360Y-65233788D01*
X117997002Y-65316006D01*
X117850505Y-65422440D01*
X117819250Y-65453696D01*
X117757926Y-65487180D01*
X117688235Y-65482194D01*
X117632302Y-65440322D01*
X117613639Y-65404330D01*
X117566213Y-65258366D01*
X117566211Y-65258360D01*
X117527395Y-65182181D01*
X117483996Y-65097006D01*
X117470208Y-65078028D01*
X117377558Y-64950505D01*
X117377554Y-64950500D01*
X117249499Y-64822445D01*
X117249494Y-64822441D01*
X117102997Y-64716006D01*
X117102996Y-64716005D01*
X117102994Y-64716004D01*
X117051300Y-64689664D01*
X116941639Y-64633788D01*
X116941636Y-64633787D01*
X116769410Y-64577829D01*
X116590551Y-64549500D01*
X116590546Y-64549500D01*
X116409454Y-64549500D01*
X116409449Y-64549500D01*
X116230589Y-64577829D01*
X116058363Y-64633787D01*
X116058360Y-64633788D01*
X115897002Y-64716006D01*
X115750505Y-64822441D01*
X115750500Y-64822445D01*
X115622445Y-64950500D01*
X115622441Y-64950505D01*
X115516005Y-65097002D01*
X115475409Y-65176675D01*
X115427434Y-65227470D01*
X115359612Y-65244264D01*
X115293478Y-65221725D01*
X115277244Y-65208059D01*
X115147213Y-65078028D01*
X114981613Y-64957715D01*
X114981612Y-64957714D01*
X114981610Y-64957713D01*
X114886885Y-64909448D01*
X114799223Y-64864781D01*
X114604534Y-64801522D01*
X114429995Y-64773878D01*
X114402352Y-64769500D01*
X114197648Y-64769500D01*
X114173329Y-64773351D01*
X113995465Y-64801522D01*
X113800776Y-64864781D01*
X113618386Y-64957715D01*
X113452786Y-65078028D01*
X113308028Y-65222786D01*
X113187715Y-65388386D01*
X113094781Y-65570776D01*
X113031522Y-65765465D01*
X112999500Y-65967648D01*
X97759074Y-65967648D01*
X97717558Y-65910505D01*
X97717554Y-65910500D01*
X97589499Y-65782445D01*
X97589494Y-65782441D01*
X97442997Y-65676006D01*
X97442996Y-65676005D01*
X97442994Y-65676004D01*
X97391028Y-65649526D01*
X97281639Y-65593788D01*
X97281636Y-65593787D01*
X97109410Y-65537829D01*
X96930551Y-65509500D01*
X96930546Y-65509500D01*
X96749454Y-65509500D01*
X96749449Y-65509500D01*
X96570589Y-65537829D01*
X96398363Y-65593787D01*
X96398360Y-65593788D01*
X96237002Y-65676006D01*
X96090505Y-65782441D01*
X96090500Y-65782445D01*
X95962445Y-65910500D01*
X95962441Y-65910505D01*
X95856006Y-66057002D01*
X95773788Y-66218360D01*
X95773787Y-66218363D01*
X95717829Y-66390589D01*
X95689500Y-66569448D01*
X92602847Y-66569448D01*
X92579849Y-61969983D01*
X112999500Y-61969983D01*
X112999500Y-63170001D01*
X112999501Y-63170018D01*
X113010000Y-63272796D01*
X113010001Y-63272799D01*
X113065185Y-63439331D01*
X113065186Y-63439334D01*
X113157288Y-63588656D01*
X113281344Y-63712712D01*
X113430666Y-63804814D01*
X113597203Y-63859999D01*
X113699991Y-63870500D01*
X114900008Y-63870499D01*
X115002797Y-63859999D01*
X115169334Y-63804814D01*
X115318656Y-63712712D01*
X115442712Y-63588656D01*
X115534814Y-63439334D01*
X115589999Y-63272797D01*
X115600500Y-63170009D01*
X115600499Y-61969992D01*
X115600498Y-61969983D01*
X124699500Y-61969983D01*
X124699500Y-63170001D01*
X124699501Y-63170018D01*
X124710000Y-63272796D01*
X124710001Y-63272799D01*
X124765185Y-63439331D01*
X124765186Y-63439334D01*
X124857288Y-63588656D01*
X124981344Y-63712712D01*
X125130666Y-63804814D01*
X125297203Y-63859999D01*
X125399991Y-63870500D01*
X126600008Y-63870499D01*
X126702797Y-63859999D01*
X126869334Y-63804814D01*
X127018656Y-63712712D01*
X127142712Y-63588656D01*
X127234814Y-63439334D01*
X127289999Y-63272797D01*
X127300500Y-63170009D01*
X127300499Y-61969992D01*
X127289999Y-61867203D01*
X127234814Y-61700666D01*
X127142712Y-61551344D01*
X127018656Y-61427288D01*
X126869334Y-61335186D01*
X126702797Y-61280001D01*
X126702795Y-61280000D01*
X126600010Y-61269500D01*
X125399998Y-61269500D01*
X125399981Y-61269501D01*
X125297203Y-61280000D01*
X125297200Y-61280001D01*
X125130668Y-61335185D01*
X125130663Y-61335187D01*
X124981342Y-61427289D01*
X124857289Y-61551342D01*
X124765187Y-61700663D01*
X124765186Y-61700666D01*
X124710001Y-61867203D01*
X124710001Y-61867204D01*
X124710000Y-61867204D01*
X124699500Y-61969983D01*
X115600498Y-61969983D01*
X115589999Y-61867203D01*
X115534814Y-61700666D01*
X115442712Y-61551344D01*
X115318656Y-61427288D01*
X115169334Y-61335186D01*
X115002797Y-61280001D01*
X115002795Y-61280000D01*
X114900010Y-61269500D01*
X113699998Y-61269500D01*
X113699981Y-61269501D01*
X113597203Y-61280000D01*
X113597200Y-61280001D01*
X113430668Y-61335185D01*
X113430663Y-61335187D01*
X113281342Y-61427289D01*
X113157289Y-61551342D01*
X113065187Y-61700663D01*
X113065186Y-61700666D01*
X113010001Y-61867203D01*
X113010001Y-61867204D01*
X113010000Y-61867204D01*
X112999500Y-61969983D01*
X92579849Y-61969983D01*
X92567849Y-59570013D01*
X139700000Y-59570013D01*
X139700000Y-59920000D01*
X140684314Y-59920000D01*
X140679920Y-59924394D01*
X140627259Y-60015606D01*
X140600000Y-60117339D01*
X140600000Y-60222661D01*
X140627259Y-60324394D01*
X140679920Y-60415606D01*
X140684314Y-60420000D01*
X139700001Y-60420000D01*
X139700001Y-60769986D01*
X139710494Y-60872697D01*
X139765641Y-61039119D01*
X139765643Y-61039124D01*
X139857684Y-61188345D01*
X139981654Y-61312315D01*
X140130875Y-61404356D01*
X140130880Y-61404358D01*
X140297302Y-61459505D01*
X140297309Y-61459506D01*
X140400019Y-61469999D01*
X140749999Y-61469999D01*
X140750000Y-61469998D01*
X140750000Y-60485686D01*
X140754394Y-60490080D01*
X140845606Y-60542741D01*
X140947339Y-60570000D01*
X141052661Y-60570000D01*
X141154394Y-60542741D01*
X141245606Y-60490080D01*
X141250000Y-60485686D01*
X141250000Y-61469999D01*
X141599972Y-61469999D01*
X141599986Y-61469998D01*
X141702697Y-61459505D01*
X141869119Y-61404358D01*
X141869124Y-61404356D01*
X142018345Y-61312315D01*
X142142315Y-61188345D01*
X142234356Y-61039124D01*
X142234358Y-61039119D01*
X142289505Y-60872697D01*
X142289506Y-60872690D01*
X142299999Y-60769986D01*
X142300000Y-60769973D01*
X142300000Y-60420000D01*
X141315686Y-60420000D01*
X141320080Y-60415606D01*
X141372741Y-60324394D01*
X141400000Y-60222661D01*
X141400000Y-60117339D01*
X141372741Y-60015606D01*
X141320080Y-59924394D01*
X141315686Y-59920000D01*
X142299999Y-59920000D01*
X142299999Y-59570028D01*
X142299998Y-59570013D01*
X142289505Y-59467302D01*
X142234358Y-59300880D01*
X142234356Y-59300875D01*
X142142315Y-59151654D01*
X142018345Y-59027684D01*
X141869124Y-58935643D01*
X141869119Y-58935641D01*
X141702697Y-58880494D01*
X141702690Y-58880493D01*
X141599986Y-58870000D01*
X141250000Y-58870000D01*
X141250000Y-59854314D01*
X141245606Y-59849920D01*
X141154394Y-59797259D01*
X141052661Y-59770000D01*
X140947339Y-59770000D01*
X140845606Y-59797259D01*
X140754394Y-59849920D01*
X140750000Y-59854314D01*
X140750000Y-58870000D01*
X140400028Y-58870000D01*
X140400012Y-58870001D01*
X140297302Y-58880494D01*
X140130880Y-58935641D01*
X140130875Y-58935643D01*
X139981654Y-59027684D01*
X139857684Y-59151654D01*
X139765643Y-59300875D01*
X139765641Y-59300880D01*
X139710494Y-59467302D01*
X139710493Y-59467309D01*
X139700000Y-59570013D01*
X92567849Y-59570013D01*
X92543605Y-54721153D01*
X114199500Y-54721153D01*
X114199500Y-54878846D01*
X114230261Y-55033489D01*
X114230264Y-55033501D01*
X114290602Y-55179172D01*
X114290609Y-55179185D01*
X114378210Y-55310288D01*
X114378213Y-55310292D01*
X114489707Y-55421786D01*
X114489711Y-55421789D01*
X114620814Y-55509390D01*
X114620827Y-55509397D01*
X114766498Y-55569735D01*
X114766503Y-55569737D01*
X114921153Y-55600499D01*
X114921156Y-55600500D01*
X114921158Y-55600500D01*
X115078844Y-55600500D01*
X115078845Y-55600499D01*
X115233497Y-55569737D01*
X115379179Y-55509394D01*
X115510289Y-55421789D01*
X115621789Y-55310289D01*
X115709394Y-55179179D01*
X115769737Y-55033497D01*
X115800500Y-54878842D01*
X115800500Y-54721158D01*
X115800500Y-54721155D01*
X115780787Y-54622057D01*
X115787014Y-54552466D01*
X115829876Y-54497288D01*
X115895766Y-54474043D01*
X115963763Y-54490110D01*
X115998257Y-54519200D01*
X116054807Y-54588106D01*
X116311893Y-54845192D01*
X116311898Y-54845196D01*
X116311899Y-54845197D01*
X116592956Y-55075854D01*
X116895268Y-55277853D01*
X116895277Y-55277858D01*
X116895279Y-55277859D01*
X117215916Y-55449243D01*
X117215918Y-55449243D01*
X117215924Y-55449247D01*
X117551836Y-55588386D01*
X117899767Y-55693930D01*
X117899773Y-55693931D01*
X117899776Y-55693932D01*
X117899787Y-55693935D01*
X118256369Y-55764862D01*
X118618206Y-55800500D01*
X118618209Y-55800500D01*
X118981791Y-55800500D01*
X118981794Y-55800500D01*
X119343631Y-55764862D01*
X119413045Y-55751054D01*
X119700212Y-55693935D01*
X119700223Y-55693932D01*
X119700223Y-55693931D01*
X119700233Y-55693930D01*
X120048164Y-55588386D01*
X120384076Y-55449247D01*
X120704732Y-55277853D01*
X121007044Y-55075854D01*
X121288101Y-54845197D01*
X121288106Y-54845192D01*
X121412146Y-54721153D01*
X121999500Y-54721153D01*
X121999500Y-54878846D01*
X122030261Y-55033489D01*
X122030264Y-55033501D01*
X122090602Y-55179172D01*
X122090609Y-55179185D01*
X122178210Y-55310288D01*
X122178213Y-55310292D01*
X122289707Y-55421786D01*
X122289711Y-55421789D01*
X122420814Y-55509390D01*
X122420827Y-55509397D01*
X122566498Y-55569735D01*
X122566503Y-55569737D01*
X122721153Y-55600499D01*
X122721156Y-55600500D01*
X122721158Y-55600500D01*
X122878844Y-55600500D01*
X122878845Y-55600499D01*
X123033497Y-55569737D01*
X123179179Y-55509394D01*
X123310289Y-55421789D01*
X123421789Y-55310289D01*
X123509394Y-55179179D01*
X123569737Y-55033497D01*
X123600500Y-54878842D01*
X123600500Y-54721158D01*
X123600500Y-54721155D01*
X123600499Y-54721153D01*
X123569738Y-54566510D01*
X123569737Y-54566503D01*
X123550144Y-54519200D01*
X123509397Y-54420827D01*
X123509390Y-54420814D01*
X123421789Y-54289711D01*
X123421786Y-54289707D01*
X123310292Y-54178213D01*
X123310288Y-54178210D01*
X123179185Y-54090609D01*
X123179172Y-54090602D01*
X123033501Y-54030264D01*
X123033489Y-54030261D01*
X122878845Y-53999500D01*
X122878842Y-53999500D01*
X122721158Y-53999500D01*
X122721155Y-53999500D01*
X122566510Y-54030261D01*
X122566498Y-54030264D01*
X122420827Y-54090602D01*
X122420814Y-54090609D01*
X122289711Y-54178210D01*
X122289707Y-54178213D01*
X122178213Y-54289707D01*
X122178210Y-54289711D01*
X122090609Y-54420814D01*
X122090602Y-54420827D01*
X122030264Y-54566498D01*
X122030261Y-54566510D01*
X121999500Y-54721153D01*
X121412146Y-54721153D01*
X121505914Y-54627385D01*
X121545192Y-54588106D01*
X121545197Y-54588101D01*
X121775854Y-54307044D01*
X121977853Y-54004732D01*
X122149247Y-53684076D01*
X122288386Y-53348164D01*
X122393930Y-53000233D01*
X122393932Y-53000223D01*
X122393935Y-53000212D01*
X122464862Y-52643630D01*
X122500500Y-52281790D01*
X122500500Y-51918209D01*
X122464862Y-51556369D01*
X122393935Y-51199787D01*
X122393932Y-51199776D01*
X122393931Y-51199773D01*
X122393930Y-51199767D01*
X122288386Y-50851836D01*
X122149247Y-50515924D01*
X122041610Y-50314550D01*
X122027369Y-50246149D01*
X122052369Y-50180905D01*
X122108674Y-50139534D01*
X122178407Y-50135172D01*
X122198421Y-50141537D01*
X122266498Y-50169735D01*
X122266503Y-50169737D01*
X122421153Y-50200499D01*
X122421156Y-50200500D01*
X122421158Y-50200500D01*
X122578844Y-50200500D01*
X122578845Y-50200499D01*
X122733497Y-50169737D01*
X122879179Y-50109394D01*
X123010289Y-50021789D01*
X123121789Y-49910289D01*
X123209394Y-49779179D01*
X123210066Y-49777558D01*
X123256186Y-49666212D01*
X123269737Y-49633497D01*
X123300500Y-49478842D01*
X123300500Y-49321158D01*
X123300500Y-49321155D01*
X123300499Y-49321153D01*
X123276996Y-49202997D01*
X123269737Y-49166503D01*
X123218016Y-49041636D01*
X123209397Y-49020827D01*
X123209390Y-49020814D01*
X123121789Y-48889711D01*
X123121786Y-48889707D01*
X123041527Y-48809448D01*
X125849500Y-48809448D01*
X125849500Y-48990551D01*
X125877829Y-49169410D01*
X125933787Y-49341636D01*
X125933788Y-49341639D01*
X126016006Y-49502997D01*
X126122441Y-49649494D01*
X126122445Y-49649499D01*
X126250500Y-49777554D01*
X126250505Y-49777558D01*
X126378287Y-49870396D01*
X126397006Y-49883996D01*
X126492616Y-49932712D01*
X126558360Y-49966211D01*
X126558363Y-49966212D01*
X126644476Y-49994191D01*
X126730591Y-50022171D01*
X126813429Y-50035291D01*
X126909449Y-50050500D01*
X126909454Y-50050500D01*
X127090551Y-50050500D01*
X127177259Y-50036765D01*
X127269409Y-50022171D01*
X127441639Y-49966211D01*
X127602994Y-49883996D01*
X127749501Y-49777553D01*
X127877553Y-49649501D01*
X127983996Y-49502994D01*
X128066211Y-49341639D01*
X128122171Y-49169409D01*
X128145705Y-49020821D01*
X128150500Y-48990551D01*
X128150500Y-48809448D01*
X128131667Y-48690546D01*
X128122171Y-48630591D01*
X128081712Y-48506070D01*
X128066212Y-48458363D01*
X128066211Y-48458360D01*
X128036220Y-48399500D01*
X127983996Y-48297006D01*
X127883267Y-48158363D01*
X127877558Y-48150505D01*
X127877554Y-48150500D01*
X127749499Y-48022445D01*
X127749494Y-48022441D01*
X127602997Y-47916006D01*
X127602996Y-47916005D01*
X127602994Y-47916004D01*
X127551300Y-47889664D01*
X127441639Y-47833788D01*
X127441636Y-47833787D01*
X127269410Y-47777829D01*
X127090551Y-47749500D01*
X127090546Y-47749500D01*
X126909454Y-47749500D01*
X126909449Y-47749500D01*
X126730589Y-47777829D01*
X126558363Y-47833787D01*
X126558360Y-47833788D01*
X126397002Y-47916006D01*
X126250505Y-48022441D01*
X126250500Y-48022445D01*
X126122445Y-48150500D01*
X126122441Y-48150505D01*
X126016006Y-48297002D01*
X125933788Y-48458360D01*
X125933787Y-48458363D01*
X125877829Y-48630589D01*
X125849500Y-48809448D01*
X123041527Y-48809448D01*
X123010292Y-48778213D01*
X123010288Y-48778210D01*
X122879185Y-48690609D01*
X122879172Y-48690602D01*
X122733501Y-48630264D01*
X122733489Y-48630261D01*
X122578845Y-48599500D01*
X122578842Y-48599500D01*
X122421158Y-48599500D01*
X122421155Y-48599500D01*
X122266510Y-48630261D01*
X122266498Y-48630264D01*
X122120827Y-48690602D01*
X122120814Y-48690609D01*
X121989711Y-48778210D01*
X121989707Y-48778213D01*
X121878213Y-48889707D01*
X121878210Y-48889711D01*
X121790609Y-49020814D01*
X121790602Y-49020827D01*
X121730264Y-49166498D01*
X121730261Y-49166510D01*
X121699500Y-49321153D01*
X121699500Y-49466839D01*
X121679815Y-49533878D01*
X121627011Y-49579633D01*
X121557853Y-49589577D01*
X121494297Y-49560552D01*
X121487819Y-49554520D01*
X121288106Y-49354807D01*
X121007049Y-49124150D01*
X121007048Y-49124149D01*
X121007044Y-49124146D01*
X120704732Y-48922147D01*
X120704727Y-48922144D01*
X120704720Y-48922140D01*
X120384083Y-48750756D01*
X120384078Y-48750754D01*
X120048165Y-48611614D01*
X119734803Y-48516556D01*
X119700233Y-48506070D01*
X119700232Y-48506069D01*
X119700223Y-48506067D01*
X119700212Y-48506064D01*
X119343630Y-48435137D01*
X119071111Y-48408296D01*
X118981794Y-48399500D01*
X118618206Y-48399500D01*
X118535679Y-48407628D01*
X118256369Y-48435137D01*
X117899787Y-48506064D01*
X117899776Y-48506067D01*
X117551834Y-48611614D01*
X117215921Y-48750754D01*
X117215916Y-48750756D01*
X116895279Y-48922140D01*
X116895261Y-48922151D01*
X116592964Y-49124140D01*
X116592950Y-49124150D01*
X116311893Y-49354807D01*
X116054807Y-49611893D01*
X115829434Y-49886511D01*
X115829428Y-49886519D01*
X115824146Y-49892956D01*
X115698711Y-50080681D01*
X115698629Y-50080804D01*
X115622148Y-50195266D01*
X115622140Y-50195279D01*
X115450756Y-50515916D01*
X115450754Y-50515921D01*
X115311614Y-50851834D01*
X115206067Y-51199776D01*
X115206064Y-51199787D01*
X115135137Y-51556369D01*
X115099500Y-51918209D01*
X115099500Y-52281790D01*
X115135137Y-52643630D01*
X115206064Y-53000212D01*
X115206067Y-53000223D01*
X115311614Y-53348165D01*
X115450754Y-53684078D01*
X115450756Y-53684083D01*
X115595175Y-53954272D01*
X115609417Y-54022675D01*
X115584417Y-54087919D01*
X115528112Y-54129289D01*
X115458378Y-54133651D01*
X115416926Y-54115827D01*
X115379185Y-54090609D01*
X115379172Y-54090602D01*
X115233501Y-54030264D01*
X115233489Y-54030261D01*
X115078845Y-53999500D01*
X115078842Y-53999500D01*
X114921158Y-53999500D01*
X114921155Y-53999500D01*
X114766510Y-54030261D01*
X114766498Y-54030264D01*
X114620827Y-54090602D01*
X114620814Y-54090609D01*
X114489711Y-54178210D01*
X114489707Y-54178213D01*
X114378213Y-54289707D01*
X114378210Y-54289711D01*
X114290609Y-54420814D01*
X114290602Y-54420827D01*
X114230264Y-54566498D01*
X114230261Y-54566510D01*
X114199500Y-54721153D01*
X92543605Y-54721153D01*
X92512546Y-48509448D01*
X93649500Y-48509448D01*
X93649500Y-48690551D01*
X93677829Y-48869410D01*
X93733787Y-49041636D01*
X93733788Y-49041639D01*
X93789664Y-49151300D01*
X93798891Y-49169409D01*
X93816006Y-49202997D01*
X93922441Y-49349494D01*
X93922445Y-49349499D01*
X94050500Y-49477554D01*
X94050505Y-49477558D01*
X94164738Y-49560552D01*
X94197006Y-49583996D01*
X94302484Y-49637740D01*
X94358360Y-49666211D01*
X94358363Y-49666212D01*
X94444476Y-49694191D01*
X94530591Y-49722171D01*
X94613429Y-49735291D01*
X94709449Y-49750500D01*
X94709454Y-49750500D01*
X94890551Y-49750500D01*
X94977259Y-49736765D01*
X95069409Y-49722171D01*
X95241639Y-49666211D01*
X95402994Y-49583996D01*
X95549501Y-49477553D01*
X95677553Y-49349501D01*
X95698145Y-49321158D01*
X95698149Y-49321153D01*
X114099500Y-49321153D01*
X114099500Y-49478846D01*
X114130261Y-49633489D01*
X114130264Y-49633501D01*
X114190602Y-49779172D01*
X114190609Y-49779185D01*
X114278210Y-49910288D01*
X114278213Y-49910292D01*
X114389707Y-50021786D01*
X114389711Y-50021789D01*
X114520814Y-50109390D01*
X114520827Y-50109397D01*
X114666498Y-50169735D01*
X114666503Y-50169737D01*
X114821153Y-50200499D01*
X114821156Y-50200500D01*
X114821158Y-50200500D01*
X114978844Y-50200500D01*
X114978845Y-50200499D01*
X115133497Y-50169737D01*
X115279179Y-50109394D01*
X115410289Y-50021789D01*
X115521789Y-49910289D01*
X115609394Y-49779179D01*
X115669737Y-49633497D01*
X115700500Y-49478842D01*
X115700500Y-49321158D01*
X115700500Y-49321155D01*
X115700499Y-49321153D01*
X115676996Y-49202997D01*
X115669737Y-49166503D01*
X115618016Y-49041636D01*
X115609397Y-49020827D01*
X115609390Y-49020814D01*
X115521789Y-48889711D01*
X115521786Y-48889707D01*
X115410292Y-48778213D01*
X115410288Y-48778210D01*
X115279185Y-48690609D01*
X115279172Y-48690602D01*
X115133501Y-48630264D01*
X115133489Y-48630261D01*
X114978845Y-48599500D01*
X114978842Y-48599500D01*
X114821158Y-48599500D01*
X114821155Y-48599500D01*
X114666510Y-48630261D01*
X114666498Y-48630264D01*
X114520827Y-48690602D01*
X114520814Y-48690609D01*
X114389711Y-48778210D01*
X114389707Y-48778213D01*
X114278213Y-48889707D01*
X114278210Y-48889711D01*
X114190609Y-49020814D01*
X114190602Y-49020827D01*
X114130264Y-49166498D01*
X114130261Y-49166510D01*
X114099500Y-49321153D01*
X95698149Y-49321153D01*
X95755526Y-49242181D01*
X95770182Y-49222007D01*
X95783996Y-49202994D01*
X95866211Y-49041639D01*
X95922171Y-48869409D01*
X95940964Y-48750753D01*
X95950500Y-48690551D01*
X95950500Y-48509448D01*
X95933085Y-48399500D01*
X95922171Y-48330591D01*
X95866211Y-48158361D01*
X95866211Y-48158360D01*
X95837740Y-48102484D01*
X95783996Y-47997006D01*
X95770396Y-47978287D01*
X95677558Y-47850505D01*
X95677554Y-47850500D01*
X95549499Y-47722445D01*
X95549494Y-47722441D01*
X95402997Y-47616006D01*
X95402996Y-47616005D01*
X95402994Y-47616004D01*
X95351300Y-47589664D01*
X95241639Y-47533788D01*
X95241636Y-47533787D01*
X95069410Y-47477829D01*
X94890551Y-47449500D01*
X94890546Y-47449500D01*
X94709454Y-47449500D01*
X94709449Y-47449500D01*
X94530589Y-47477829D01*
X94358363Y-47533787D01*
X94358360Y-47533788D01*
X94197002Y-47616006D01*
X94050505Y-47722441D01*
X94050500Y-47722445D01*
X93922445Y-47850500D01*
X93922441Y-47850505D01*
X93816006Y-47997002D01*
X93733788Y-48158360D01*
X93733787Y-48158363D01*
X93677829Y-48330589D01*
X93649500Y-48509448D01*
X92512546Y-48509448D01*
X92502552Y-46510640D01*
X92503537Y-46494423D01*
X92516945Y-46388844D01*
X92525215Y-46357457D01*
X92557995Y-46277474D01*
X92601632Y-46222909D01*
X92667843Y-46200596D01*
X92672732Y-46200500D01*
X148160118Y-46200500D01*
X148190243Y-46200500D01*
X148209640Y-46202027D01*
G37*
%TD.AperFunction*%
%TD*%
%TA.AperFunction,Conductor*%
%TO.N,+12V*%
G36*
X89820498Y-46220185D02*
G01*
X89829114Y-46226253D01*
X89841170Y-46235539D01*
X89863983Y-46258419D01*
X89923358Y-46335999D01*
X89939485Y-46363996D01*
X89976803Y-46454282D01*
X89985149Y-46485492D01*
X89998943Y-46590460D01*
X90000000Y-46606616D01*
X90000000Y-48506297D01*
X89999500Y-48509454D01*
X89999500Y-48690546D01*
X90000000Y-48693702D01*
X90000000Y-66188426D01*
X89980315Y-66255465D01*
X89927511Y-66301220D01*
X89858353Y-66311164D01*
X89803116Y-66288745D01*
X89702996Y-66216005D01*
X89541639Y-66133788D01*
X89541636Y-66133787D01*
X89369410Y-66077829D01*
X89190551Y-66049500D01*
X89190546Y-66049500D01*
X89009454Y-66049500D01*
X89009449Y-66049500D01*
X88830589Y-66077829D01*
X88658363Y-66133787D01*
X88658360Y-66133788D01*
X88497002Y-66216006D01*
X88350505Y-66322441D01*
X88350500Y-66322445D01*
X88222445Y-66450500D01*
X88222441Y-66450505D01*
X88116006Y-66597002D01*
X88033788Y-66758360D01*
X88033787Y-66758363D01*
X87977829Y-66930589D01*
X87949500Y-67109448D01*
X87949500Y-67290551D01*
X87977829Y-67469410D01*
X88033787Y-67641636D01*
X88033788Y-67641639D01*
X88116006Y-67802997D01*
X88222441Y-67949494D01*
X88222445Y-67949499D01*
X88350500Y-68077554D01*
X88350505Y-68077558D01*
X88478287Y-68170396D01*
X88497006Y-68183996D01*
X88551129Y-68211573D01*
X88658360Y-68266211D01*
X88658363Y-68266212D01*
X88744476Y-68294191D01*
X88830591Y-68322171D01*
X88913429Y-68335291D01*
X89009449Y-68350500D01*
X89009454Y-68350500D01*
X89190551Y-68350500D01*
X89277259Y-68336765D01*
X89369409Y-68322171D01*
X89541639Y-68266211D01*
X89702994Y-68183996D01*
X89754397Y-68146649D01*
X89803115Y-68111255D01*
X89868921Y-68087775D01*
X89936975Y-68103601D01*
X89985670Y-68153707D01*
X90000000Y-68211573D01*
X90000000Y-74189151D01*
X89980315Y-74256190D01*
X89979102Y-74258042D01*
X89901990Y-74373446D01*
X89901983Y-74373459D01*
X89834106Y-74537332D01*
X89834103Y-74537341D01*
X89799500Y-74711304D01*
X89799500Y-74888695D01*
X89834103Y-75062658D01*
X89834106Y-75062667D01*
X89901984Y-75226542D01*
X89901985Y-75226543D01*
X89901987Y-75226547D01*
X89979102Y-75341957D01*
X89999980Y-75408633D01*
X90000000Y-75410847D01*
X90000000Y-80366974D01*
X89980315Y-80434013D01*
X89927511Y-80479768D01*
X89858353Y-80489712D01*
X89794797Y-80460687D01*
X89772898Y-80435865D01*
X89699464Y-80325965D01*
X89699461Y-80325961D01*
X89574038Y-80200538D01*
X89574034Y-80200535D01*
X89426553Y-80101990D01*
X89426540Y-80101983D01*
X89262667Y-80034106D01*
X89262658Y-80034103D01*
X89088694Y-79999500D01*
X89088691Y-79999500D01*
X88911309Y-79999500D01*
X88911306Y-79999500D01*
X88737341Y-80034103D01*
X88737332Y-80034106D01*
X88573459Y-80101983D01*
X88573446Y-80101990D01*
X88425965Y-80200535D01*
X88425961Y-80200538D01*
X88300538Y-80325961D01*
X88300535Y-80325965D01*
X88201990Y-80473446D01*
X88201983Y-80473459D01*
X88134106Y-80637332D01*
X88134103Y-80637341D01*
X88099500Y-80811304D01*
X88099500Y-80988695D01*
X88134103Y-81162658D01*
X88134106Y-81162667D01*
X88201983Y-81326540D01*
X88201990Y-81326553D01*
X88300535Y-81474034D01*
X88300538Y-81474038D01*
X88425961Y-81599461D01*
X88425965Y-81599464D01*
X88573446Y-81698009D01*
X88573459Y-81698016D01*
X88696363Y-81748923D01*
X88737334Y-81765894D01*
X88737336Y-81765894D01*
X88737341Y-81765896D01*
X88911304Y-81800499D01*
X88911307Y-81800500D01*
X88911309Y-81800500D01*
X89088693Y-81800500D01*
X89088694Y-81800499D01*
X89146682Y-81788964D01*
X89262658Y-81765896D01*
X89262661Y-81765894D01*
X89262666Y-81765894D01*
X89426547Y-81698013D01*
X89574035Y-81599464D01*
X89699464Y-81474035D01*
X89772898Y-81364134D01*
X89826510Y-81319329D01*
X89895835Y-81310622D01*
X89958863Y-81340776D01*
X89995582Y-81400219D01*
X90000000Y-81433025D01*
X90000000Y-85490369D01*
X89998935Y-85506584D01*
X89985038Y-85611942D01*
X89976629Y-85643262D01*
X89943514Y-85723039D01*
X89899634Y-85777409D01*
X89833323Y-85799424D01*
X89828990Y-85799500D01*
X73309757Y-85799500D01*
X73290360Y-85797973D01*
X73249549Y-85791509D01*
X73226845Y-85787913D01*
X73224604Y-85787184D01*
X73223358Y-85787310D01*
X73189950Y-85775925D01*
X73141457Y-85751217D01*
X73110070Y-85728413D01*
X73071586Y-85689929D01*
X73048782Y-85658542D01*
X73025039Y-85611942D01*
X73024073Y-85610046D01*
X73012086Y-85573152D01*
X73011427Y-85568993D01*
X73002027Y-85509639D01*
X73000500Y-85490242D01*
X73000500Y-80669997D01*
X77899500Y-80669997D01*
X77899500Y-80874700D01*
X77931522Y-81076883D01*
X77994781Y-81271572D01*
X78087715Y-81453962D01*
X78208028Y-81619562D01*
X78352786Y-81764320D01*
X78507749Y-81876905D01*
X78518390Y-81884636D01*
X78634607Y-81943852D01*
X78700776Y-81977567D01*
X78700778Y-81977567D01*
X78700781Y-81977569D01*
X78805137Y-82011476D01*
X78895465Y-82040826D01*
X78996557Y-82056837D01*
X79097648Y-82072849D01*
X79097649Y-82072849D01*
X79302351Y-82072849D01*
X79302352Y-82072849D01*
X79504534Y-82040826D01*
X79699219Y-81977569D01*
X79881610Y-81884636D01*
X79997416Y-81800499D01*
X80047213Y-81764320D01*
X80047215Y-81764317D01*
X80047219Y-81764315D01*
X80191966Y-81619568D01*
X80191968Y-81619564D01*
X80191971Y-81619562D01*
X80244732Y-81546939D01*
X80312287Y-81453959D01*
X80405220Y-81271568D01*
X80468477Y-81076883D01*
X80500500Y-80874701D01*
X80500500Y-80669997D01*
X80495326Y-80637332D01*
X80468477Y-80467814D01*
X80405218Y-80273125D01*
X80352371Y-80169409D01*
X80312287Y-80090739D01*
X80245999Y-79999500D01*
X80191971Y-79925135D01*
X80076284Y-79809448D01*
X81449500Y-79809448D01*
X81449500Y-79990551D01*
X81477829Y-80169410D01*
X81533787Y-80341636D01*
X81533788Y-80341639D01*
X81580856Y-80434013D01*
X81609236Y-80489712D01*
X81616006Y-80502997D01*
X81722441Y-80649494D01*
X81722445Y-80649499D01*
X81850500Y-80777554D01*
X81850505Y-80777558D01*
X81896960Y-80811309D01*
X81997006Y-80883996D01*
X82102484Y-80937740D01*
X82158360Y-80966211D01*
X82158363Y-80966212D01*
X82227548Y-80988691D01*
X82330591Y-81022171D01*
X82413429Y-81035291D01*
X82509449Y-81050500D01*
X82509454Y-81050500D01*
X82690551Y-81050500D01*
X82777259Y-81036765D01*
X82869409Y-81022171D01*
X83041639Y-80966211D01*
X83202994Y-80883996D01*
X83349501Y-80777553D01*
X83477553Y-80649501D01*
X83583996Y-80502994D01*
X83666211Y-80341639D01*
X83722171Y-80169409D01*
X83743601Y-80034106D01*
X83750500Y-79990551D01*
X83750500Y-79809448D01*
X83726839Y-79660064D01*
X83722171Y-79630591D01*
X83680998Y-79503871D01*
X83666212Y-79458363D01*
X83666211Y-79458360D01*
X83637740Y-79402484D01*
X83583996Y-79297006D01*
X83570396Y-79278287D01*
X83477558Y-79150505D01*
X83477554Y-79150500D01*
X83349499Y-79022445D01*
X83349494Y-79022441D01*
X83202997Y-78916006D01*
X83202996Y-78916005D01*
X83202994Y-78916004D01*
X83151300Y-78889664D01*
X83041639Y-78833788D01*
X83041636Y-78833787D01*
X82869410Y-78777829D01*
X82690551Y-78749500D01*
X82690546Y-78749500D01*
X82509454Y-78749500D01*
X82509449Y-78749500D01*
X82330589Y-78777829D01*
X82158363Y-78833787D01*
X82158360Y-78833788D01*
X81997002Y-78916006D01*
X81850505Y-79022441D01*
X81850500Y-79022445D01*
X81722445Y-79150500D01*
X81722441Y-79150505D01*
X81616006Y-79297002D01*
X81533788Y-79458360D01*
X81533787Y-79458363D01*
X81477829Y-79630589D01*
X81449500Y-79809448D01*
X80076284Y-79809448D01*
X80047213Y-79780377D01*
X79881613Y-79660064D01*
X79881612Y-79660063D01*
X79881610Y-79660062D01*
X79823766Y-79630589D01*
X79699223Y-79567130D01*
X79504534Y-79503871D01*
X79329995Y-79476227D01*
X79302352Y-79471849D01*
X79097648Y-79471849D01*
X79073329Y-79475700D01*
X78895465Y-79503871D01*
X78700776Y-79567130D01*
X78518386Y-79660064D01*
X78352786Y-79780377D01*
X78208028Y-79925135D01*
X78087715Y-80090735D01*
X77994781Y-80273125D01*
X77931522Y-80467814D01*
X77899500Y-80669997D01*
X73000500Y-80669997D01*
X73000500Y-77931004D01*
X72973581Y-77795677D01*
X72973580Y-77795676D01*
X72973580Y-77795672D01*
X72934159Y-77700500D01*
X72920778Y-77668195D01*
X72920771Y-77668182D01*
X72844114Y-77553458D01*
X72844111Y-77553454D01*
X72746545Y-77455888D01*
X72746541Y-77455885D01*
X72631817Y-77379228D01*
X72631804Y-77379221D01*
X72504332Y-77326421D01*
X72504322Y-77326418D01*
X72368995Y-77299500D01*
X72368993Y-77299500D01*
X72339882Y-77299500D01*
X57109757Y-77299500D01*
X57090360Y-77297973D01*
X57049549Y-77291509D01*
X57026845Y-77287913D01*
X56989950Y-77275925D01*
X56941457Y-77251217D01*
X56910070Y-77228413D01*
X56871586Y-77189929D01*
X56848782Y-77158542D01*
X56824073Y-77110046D01*
X56812086Y-77073152D01*
X56811427Y-77068993D01*
X56802027Y-77009639D01*
X56800500Y-76990242D01*
X56800500Y-76672362D01*
X77900000Y-76672362D01*
X77900000Y-77022349D01*
X78884314Y-77022349D01*
X78879920Y-77026743D01*
X78827259Y-77117955D01*
X78800000Y-77219688D01*
X78800000Y-77325010D01*
X78827259Y-77426743D01*
X78879920Y-77517955D01*
X78884314Y-77522349D01*
X77900001Y-77522349D01*
X77900001Y-77872335D01*
X77910494Y-77975046D01*
X77965641Y-78141468D01*
X77965643Y-78141473D01*
X78057684Y-78290694D01*
X78181654Y-78414664D01*
X78330875Y-78506705D01*
X78330880Y-78506707D01*
X78497302Y-78561854D01*
X78497309Y-78561855D01*
X78600019Y-78572348D01*
X78949999Y-78572348D01*
X78950000Y-78572347D01*
X78950000Y-77588035D01*
X78954394Y-77592429D01*
X79045606Y-77645090D01*
X79147339Y-77672349D01*
X79252661Y-77672349D01*
X79354394Y-77645090D01*
X79445606Y-77592429D01*
X79450000Y-77588035D01*
X79450000Y-78572348D01*
X79799972Y-78572348D01*
X79799986Y-78572347D01*
X79902697Y-78561854D01*
X80069119Y-78506707D01*
X80069124Y-78506705D01*
X80218345Y-78414664D01*
X80342315Y-78290694D01*
X80434356Y-78141473D01*
X80434358Y-78141468D01*
X80489505Y-77975046D01*
X80489506Y-77975039D01*
X80499999Y-77872335D01*
X80500000Y-77872322D01*
X80500000Y-77522349D01*
X79515686Y-77522349D01*
X79520080Y-77517955D01*
X79572741Y-77426743D01*
X79600000Y-77325010D01*
X79600000Y-77219688D01*
X79572741Y-77117955D01*
X79520080Y-77026743D01*
X79515686Y-77022349D01*
X80499999Y-77022349D01*
X80499999Y-76672377D01*
X80499998Y-76672362D01*
X80489505Y-76569651D01*
X80434358Y-76403229D01*
X80434356Y-76403224D01*
X80342315Y-76254003D01*
X80218345Y-76130033D01*
X80069124Y-76037992D01*
X80069119Y-76037990D01*
X79902697Y-75982843D01*
X79902690Y-75982842D01*
X79799986Y-75972349D01*
X79450000Y-75972349D01*
X79450000Y-76956663D01*
X79445606Y-76952269D01*
X79354394Y-76899608D01*
X79252661Y-76872349D01*
X79147339Y-76872349D01*
X79045606Y-76899608D01*
X78954394Y-76952269D01*
X78950000Y-76956663D01*
X78950000Y-75972349D01*
X78600028Y-75972349D01*
X78600012Y-75972350D01*
X78497302Y-75982843D01*
X78330880Y-76037990D01*
X78330875Y-76037992D01*
X78181654Y-76130033D01*
X78057684Y-76254003D01*
X77965643Y-76403224D01*
X77965641Y-76403229D01*
X77910494Y-76569651D01*
X77910493Y-76569658D01*
X77900000Y-76672362D01*
X56800500Y-76672362D01*
X56800500Y-73668872D01*
X83399500Y-73668872D01*
X83399500Y-73931127D01*
X83426123Y-74133339D01*
X83433730Y-74191116D01*
X83501602Y-74444418D01*
X83501605Y-74444428D01*
X83601953Y-74686690D01*
X83601958Y-74686700D01*
X83733075Y-74913803D01*
X83892718Y-75121851D01*
X83892726Y-75121860D01*
X84078140Y-75307274D01*
X84078148Y-75307281D01*
X84286196Y-75466924D01*
X84513299Y-75598041D01*
X84513309Y-75598046D01*
X84755571Y-75698394D01*
X84755581Y-75698398D01*
X85008884Y-75766270D01*
X85268880Y-75800500D01*
X85268887Y-75800500D01*
X85531113Y-75800500D01*
X85531120Y-75800500D01*
X85791116Y-75766270D01*
X86044419Y-75698398D01*
X86286697Y-75598043D01*
X86513803Y-75466924D01*
X86721851Y-75307282D01*
X86721855Y-75307277D01*
X86721860Y-75307274D01*
X86907274Y-75121860D01*
X86907277Y-75121855D01*
X86907282Y-75121851D01*
X87066924Y-74913803D01*
X87198043Y-74686697D01*
X87298398Y-74444419D01*
X87366270Y-74191116D01*
X87400500Y-73931120D01*
X87400500Y-73668880D01*
X87366270Y-73408884D01*
X87298398Y-73155581D01*
X87210595Y-72943605D01*
X87198046Y-72913309D01*
X87198041Y-72913299D01*
X87066924Y-72686196D01*
X86907281Y-72478148D01*
X86907274Y-72478140D01*
X86721860Y-72292726D01*
X86721851Y-72292718D01*
X86513803Y-72133075D01*
X86286700Y-72001958D01*
X86286690Y-72001953D01*
X86044428Y-71901605D01*
X86044421Y-71901603D01*
X86044419Y-71901602D01*
X85791116Y-71833730D01*
X85733339Y-71826123D01*
X85531127Y-71799500D01*
X85531120Y-71799500D01*
X85268880Y-71799500D01*
X85268872Y-71799500D01*
X85037772Y-71829926D01*
X85008884Y-71833730D01*
X84755581Y-71901602D01*
X84755571Y-71901605D01*
X84513309Y-72001953D01*
X84513299Y-72001958D01*
X84286196Y-72133075D01*
X84078148Y-72292718D01*
X83892718Y-72478148D01*
X83733075Y-72686196D01*
X83601958Y-72913299D01*
X83601953Y-72913309D01*
X83501605Y-73155571D01*
X83501602Y-73155581D01*
X83433730Y-73408885D01*
X83399500Y-73668872D01*
X56800500Y-73668872D01*
X56800500Y-71116995D01*
X60234500Y-71116995D01*
X60234500Y-71353004D01*
X60234501Y-71353020D01*
X60265306Y-71587010D01*
X60326394Y-71814993D01*
X60416714Y-72033045D01*
X60416719Y-72033056D01*
X60487677Y-72155957D01*
X60534727Y-72237450D01*
X60534729Y-72237453D01*
X60534730Y-72237454D01*
X60678406Y-72424697D01*
X60678412Y-72424704D01*
X60845295Y-72591587D01*
X60845301Y-72591592D01*
X61032550Y-72735273D01*
X61163918Y-72811118D01*
X61236943Y-72853280D01*
X61236948Y-72853282D01*
X61236951Y-72853284D01*
X61455007Y-72943606D01*
X61682986Y-73004693D01*
X61916989Y-73035500D01*
X61916996Y-73035500D01*
X62153004Y-73035500D01*
X62153011Y-73035500D01*
X62387014Y-73004693D01*
X62614993Y-72943606D01*
X62833049Y-72853284D01*
X63037450Y-72735273D01*
X63224699Y-72591592D01*
X63391592Y-72424699D01*
X63535273Y-72237450D01*
X63653284Y-72033049D01*
X63743606Y-71814993D01*
X63804693Y-71587014D01*
X63835500Y-71353011D01*
X63835500Y-71116989D01*
X63804693Y-70882986D01*
X63743606Y-70655007D01*
X63653284Y-70436951D01*
X63653282Y-70436948D01*
X63653280Y-70436943D01*
X63611118Y-70363918D01*
X63535273Y-70232550D01*
X63391592Y-70045301D01*
X63391587Y-70045295D01*
X63224704Y-69878412D01*
X63224697Y-69878406D01*
X63037454Y-69734730D01*
X63037453Y-69734729D01*
X63037450Y-69734727D01*
X62955957Y-69687677D01*
X62833056Y-69616719D01*
X62833045Y-69616714D01*
X62614993Y-69526394D01*
X62387010Y-69465306D01*
X62153020Y-69434501D01*
X62153017Y-69434500D01*
X62153011Y-69434500D01*
X61916989Y-69434500D01*
X61916983Y-69434500D01*
X61916979Y-69434501D01*
X61682989Y-69465306D01*
X61455006Y-69526394D01*
X61236954Y-69616714D01*
X61236943Y-69616719D01*
X61032545Y-69734730D01*
X60845302Y-69878406D01*
X60845295Y-69878412D01*
X60678412Y-70045295D01*
X60678406Y-70045302D01*
X60534730Y-70232545D01*
X60416719Y-70436943D01*
X60416714Y-70436954D01*
X60326394Y-70655006D01*
X60265306Y-70882989D01*
X60234501Y-71116979D01*
X60234500Y-71116995D01*
X56800500Y-71116995D01*
X56800500Y-65054983D01*
X60234500Y-65054983D01*
X60234500Y-67255001D01*
X60234501Y-67255018D01*
X60245000Y-67357796D01*
X60245001Y-67357799D01*
X60281986Y-67469410D01*
X60300186Y-67524334D01*
X60392288Y-67673656D01*
X60516344Y-67797712D01*
X60665666Y-67889814D01*
X60832203Y-67944999D01*
X60934991Y-67955500D01*
X63135008Y-67955499D01*
X63237797Y-67944999D01*
X63404334Y-67889814D01*
X63553656Y-67797712D01*
X63677712Y-67673656D01*
X63769814Y-67524334D01*
X63824999Y-67357797D01*
X63835500Y-67255009D01*
X63835499Y-65054992D01*
X63824999Y-64952203D01*
X63769814Y-64785666D01*
X63677712Y-64636344D01*
X63553656Y-64512288D01*
X63404334Y-64420186D01*
X63237797Y-64365001D01*
X63237795Y-64365000D01*
X63135010Y-64354500D01*
X60934998Y-64354500D01*
X60934981Y-64354501D01*
X60832203Y-64365000D01*
X60832200Y-64365001D01*
X60665668Y-64420185D01*
X60665663Y-64420187D01*
X60516342Y-64512289D01*
X60392289Y-64636342D01*
X60300187Y-64785663D01*
X60300186Y-64785666D01*
X60245001Y-64952203D01*
X60245001Y-64952204D01*
X60245000Y-64952204D01*
X60234500Y-65054983D01*
X56800500Y-65054983D01*
X56800500Y-64109448D01*
X75249500Y-64109448D01*
X75249500Y-64290551D01*
X75277829Y-64469410D01*
X75333787Y-64641636D01*
X75333788Y-64641639D01*
X75389664Y-64751300D01*
X75407173Y-64785663D01*
X75416006Y-64802997D01*
X75522441Y-64949494D01*
X75522445Y-64949499D01*
X75650500Y-65077554D01*
X75650505Y-65077558D01*
X75778287Y-65170396D01*
X75797006Y-65183996D01*
X75902484Y-65237740D01*
X75958360Y-65266211D01*
X75958363Y-65266212D01*
X76044476Y-65294191D01*
X76130591Y-65322171D01*
X76213429Y-65335291D01*
X76309449Y-65350500D01*
X76309454Y-65350500D01*
X76490551Y-65350500D01*
X76577259Y-65336765D01*
X76669409Y-65322171D01*
X76841639Y-65266211D01*
X77002994Y-65183996D01*
X77149501Y-65077553D01*
X77277553Y-64949501D01*
X77383996Y-64802994D01*
X77466211Y-64641639D01*
X77466213Y-64641633D01*
X77482069Y-64592834D01*
X77521506Y-64535158D01*
X77585864Y-64507959D01*
X77654711Y-64519873D01*
X77706187Y-64567117D01*
X77717931Y-64592834D01*
X77733786Y-64641633D01*
X77733788Y-64641639D01*
X77789664Y-64751300D01*
X77807173Y-64785663D01*
X77816006Y-64802997D01*
X77922441Y-64949494D01*
X77922445Y-64949499D01*
X78050500Y-65077554D01*
X78050505Y-65077558D01*
X78178287Y-65170396D01*
X78197006Y-65183996D01*
X78302484Y-65237740D01*
X78358360Y-65266211D01*
X78358363Y-65266212D01*
X78444476Y-65294191D01*
X78530591Y-65322171D01*
X78613429Y-65335291D01*
X78709449Y-65350500D01*
X78709454Y-65350500D01*
X78890551Y-65350500D01*
X78977259Y-65336765D01*
X79069409Y-65322171D01*
X79241639Y-65266211D01*
X79402994Y-65183996D01*
X79549501Y-65077553D01*
X79677553Y-64949501D01*
X79783996Y-64802994D01*
X79866211Y-64641639D01*
X79922171Y-64469409D01*
X79940371Y-64354500D01*
X79950500Y-64290551D01*
X79950500Y-64109448D01*
X79934019Y-64005397D01*
X79922171Y-63930591D01*
X79890424Y-63832881D01*
X79866212Y-63758363D01*
X79866211Y-63758360D01*
X79837740Y-63702484D01*
X79783996Y-63597006D01*
X79770396Y-63578287D01*
X79677558Y-63450505D01*
X79677554Y-63450500D01*
X79549499Y-63322445D01*
X79549494Y-63322441D01*
X79402997Y-63216006D01*
X79402996Y-63216005D01*
X79402994Y-63216004D01*
X79351300Y-63189664D01*
X79241639Y-63133788D01*
X79241636Y-63133787D01*
X79069410Y-63077829D01*
X78890551Y-63049500D01*
X78890546Y-63049500D01*
X78709454Y-63049500D01*
X78709449Y-63049500D01*
X78530589Y-63077829D01*
X78358363Y-63133787D01*
X78358360Y-63133788D01*
X78197002Y-63216006D01*
X78050505Y-63322441D01*
X78050500Y-63322445D01*
X77922445Y-63450500D01*
X77922441Y-63450505D01*
X77816006Y-63597002D01*
X77733788Y-63758360D01*
X77733787Y-63758363D01*
X77717931Y-63807166D01*
X77678494Y-63864841D01*
X77614135Y-63892040D01*
X77545289Y-63880125D01*
X77493813Y-63832881D01*
X77482069Y-63807166D01*
X77466212Y-63758363D01*
X77466211Y-63758360D01*
X77437740Y-63702484D01*
X77383996Y-63597006D01*
X77370396Y-63578287D01*
X77277558Y-63450505D01*
X77277554Y-63450500D01*
X77149499Y-63322445D01*
X77149494Y-63322441D01*
X77002997Y-63216006D01*
X77002996Y-63216005D01*
X77002994Y-63216004D01*
X76951300Y-63189664D01*
X76841639Y-63133788D01*
X76841636Y-63133787D01*
X76669410Y-63077829D01*
X76490551Y-63049500D01*
X76490546Y-63049500D01*
X76309454Y-63049500D01*
X76309449Y-63049500D01*
X76130589Y-63077829D01*
X75958363Y-63133787D01*
X75958360Y-63133788D01*
X75797002Y-63216006D01*
X75650505Y-63322441D01*
X75650500Y-63322445D01*
X75522445Y-63450500D01*
X75522441Y-63450505D01*
X75416006Y-63597002D01*
X75333788Y-63758360D01*
X75333787Y-63758363D01*
X75277829Y-63930589D01*
X75249500Y-64109448D01*
X56800500Y-64109448D01*
X56800500Y-60597648D01*
X76099500Y-60597648D01*
X76099500Y-60802351D01*
X76131522Y-61004534D01*
X76194781Y-61199223D01*
X76287715Y-61381613D01*
X76408028Y-61547213D01*
X76552786Y-61691971D01*
X76707749Y-61804556D01*
X76718390Y-61812287D01*
X76834607Y-61871503D01*
X76900776Y-61905218D01*
X76900778Y-61905218D01*
X76900781Y-61905220D01*
X77005137Y-61939127D01*
X77095465Y-61968477D01*
X77196557Y-61984488D01*
X77297648Y-62000500D01*
X77297649Y-62000500D01*
X77502351Y-62000500D01*
X77502352Y-62000500D01*
X77704534Y-61968477D01*
X77899219Y-61905220D01*
X78081610Y-61812287D01*
X78174590Y-61744732D01*
X78247213Y-61691971D01*
X78247215Y-61691968D01*
X78247219Y-61691966D01*
X78391966Y-61547219D01*
X78391968Y-61547215D01*
X78391971Y-61547213D01*
X78444732Y-61474590D01*
X78512287Y-61381610D01*
X78605220Y-61199219D01*
X78668477Y-61004534D01*
X78700500Y-60802352D01*
X78700500Y-60597648D01*
X78668477Y-60395466D01*
X78605220Y-60200781D01*
X78605218Y-60200778D01*
X78605218Y-60200776D01*
X78571503Y-60134607D01*
X78512287Y-60018390D01*
X78504556Y-60007749D01*
X78391971Y-59852786D01*
X78247213Y-59708028D01*
X78081613Y-59587715D01*
X78081612Y-59587714D01*
X78081610Y-59587713D01*
X78024653Y-59558691D01*
X77899223Y-59494781D01*
X77704534Y-59431522D01*
X77529995Y-59403878D01*
X77502352Y-59399500D01*
X77297648Y-59399500D01*
X77273329Y-59403351D01*
X77095465Y-59431522D01*
X76900776Y-59494781D01*
X76718386Y-59587715D01*
X76552786Y-59708028D01*
X76408028Y-59852786D01*
X76287715Y-60018386D01*
X76194781Y-60200776D01*
X76131522Y-60395465D01*
X76099500Y-60597648D01*
X56800500Y-60597648D01*
X56800500Y-56600013D01*
X76100000Y-56600013D01*
X76100000Y-56950000D01*
X77084314Y-56950000D01*
X77079920Y-56954394D01*
X77027259Y-57045606D01*
X77000000Y-57147339D01*
X77000000Y-57252661D01*
X77027259Y-57354394D01*
X77079920Y-57445606D01*
X77084314Y-57450000D01*
X76100001Y-57450000D01*
X76100001Y-57799986D01*
X76110494Y-57902697D01*
X76165641Y-58069119D01*
X76165643Y-58069124D01*
X76257684Y-58218345D01*
X76381654Y-58342315D01*
X76530875Y-58434356D01*
X76530880Y-58434358D01*
X76697302Y-58489505D01*
X76697309Y-58489506D01*
X76800019Y-58499999D01*
X77149999Y-58499999D01*
X77150000Y-58499998D01*
X77150000Y-57515686D01*
X77154394Y-57520080D01*
X77245606Y-57572741D01*
X77347339Y-57600000D01*
X77452661Y-57600000D01*
X77554394Y-57572741D01*
X77645606Y-57520080D01*
X77650000Y-57515686D01*
X77650000Y-58499999D01*
X77999972Y-58499999D01*
X77999986Y-58499998D01*
X78102697Y-58489505D01*
X78269119Y-58434358D01*
X78269124Y-58434356D01*
X78418345Y-58342315D01*
X78542315Y-58218345D01*
X78634356Y-58069124D01*
X78634358Y-58069119D01*
X78689505Y-57902697D01*
X78689506Y-57902690D01*
X78699999Y-57799986D01*
X78700000Y-57799973D01*
X78700000Y-57450000D01*
X77715686Y-57450000D01*
X77720080Y-57445606D01*
X77772741Y-57354394D01*
X77800000Y-57252661D01*
X77800000Y-57147339D01*
X77772741Y-57045606D01*
X77720080Y-56954394D01*
X77715686Y-56950000D01*
X78699999Y-56950000D01*
X78699999Y-56600028D01*
X78699998Y-56600013D01*
X78689505Y-56497302D01*
X78634358Y-56330880D01*
X78634356Y-56330875D01*
X78542315Y-56181654D01*
X78418345Y-56057684D01*
X78269124Y-55965643D01*
X78269119Y-55965641D01*
X78102697Y-55910494D01*
X78102690Y-55910493D01*
X77999986Y-55900000D01*
X77650000Y-55900000D01*
X77650000Y-56884314D01*
X77645606Y-56879920D01*
X77554394Y-56827259D01*
X77452661Y-56800000D01*
X77347339Y-56800000D01*
X77245606Y-56827259D01*
X77154394Y-56879920D01*
X77150000Y-56884314D01*
X77150000Y-55900000D01*
X76800028Y-55900000D01*
X76800012Y-55900001D01*
X76697302Y-55910494D01*
X76530880Y-55965641D01*
X76530875Y-55965643D01*
X76381654Y-56057684D01*
X76257684Y-56181654D01*
X76165643Y-56330875D01*
X76165641Y-56330880D01*
X76110494Y-56497302D01*
X76110493Y-56497309D01*
X76100000Y-56600013D01*
X56800500Y-56600013D01*
X56800500Y-54009448D01*
X57249500Y-54009448D01*
X57249500Y-54190551D01*
X57277829Y-54369410D01*
X57333787Y-54541636D01*
X57333788Y-54541639D01*
X57416006Y-54702997D01*
X57522441Y-54849494D01*
X57522445Y-54849499D01*
X57650500Y-54977554D01*
X57650505Y-54977558D01*
X57778287Y-55070396D01*
X57797006Y-55083996D01*
X57902484Y-55137740D01*
X57958360Y-55166211D01*
X57958363Y-55166212D01*
X58044476Y-55194191D01*
X58130591Y-55222171D01*
X58213429Y-55235291D01*
X58309449Y-55250500D01*
X58309454Y-55250500D01*
X58490551Y-55250500D01*
X58577259Y-55236765D01*
X58669409Y-55222171D01*
X58841639Y-55166211D01*
X59002994Y-55083996D01*
X59149501Y-54977553D01*
X59277553Y-54849501D01*
X59383996Y-54702994D01*
X59466211Y-54541639D01*
X59522171Y-54369409D01*
X59527527Y-54335594D01*
X59557456Y-54272459D01*
X59616768Y-54235528D01*
X59686630Y-54236526D01*
X59744863Y-54275136D01*
X59772473Y-54335594D01*
X59777829Y-54369410D01*
X59833787Y-54541636D01*
X59833788Y-54541639D01*
X59916006Y-54702997D01*
X60022441Y-54849494D01*
X60022445Y-54849499D01*
X60150500Y-54977554D01*
X60150505Y-54977558D01*
X60278287Y-55070396D01*
X60297006Y-55083996D01*
X60402484Y-55137740D01*
X60458360Y-55166211D01*
X60458363Y-55166212D01*
X60544476Y-55194191D01*
X60630591Y-55222171D01*
X60713429Y-55235291D01*
X60809449Y-55250500D01*
X60809454Y-55250500D01*
X60990551Y-55250500D01*
X61077259Y-55236765D01*
X61169409Y-55222171D01*
X61341639Y-55166211D01*
X61502994Y-55083996D01*
X61649501Y-54977553D01*
X61777553Y-54849501D01*
X61883996Y-54702994D01*
X61966211Y-54541639D01*
X62022171Y-54369409D01*
X62043376Y-54235528D01*
X62050500Y-54190551D01*
X62050500Y-54009448D01*
X62034019Y-53905397D01*
X62022171Y-53830591D01*
X61966211Y-53658361D01*
X61966211Y-53658360D01*
X61937740Y-53602484D01*
X61883996Y-53497006D01*
X61870396Y-53478287D01*
X61777558Y-53350505D01*
X61777554Y-53350500D01*
X61649499Y-53222445D01*
X61649494Y-53222441D01*
X61502997Y-53116006D01*
X61502996Y-53116005D01*
X61502994Y-53116004D01*
X61451300Y-53089664D01*
X61341639Y-53033788D01*
X61341636Y-53033787D01*
X61169410Y-52977829D01*
X60990551Y-52949500D01*
X60990546Y-52949500D01*
X60809454Y-52949500D01*
X60809449Y-52949500D01*
X60630589Y-52977829D01*
X60458363Y-53033787D01*
X60458360Y-53033788D01*
X60297002Y-53116006D01*
X60150505Y-53222441D01*
X60150500Y-53222445D01*
X60022445Y-53350500D01*
X60022441Y-53350505D01*
X59916006Y-53497002D01*
X59833788Y-53658360D01*
X59833787Y-53658363D01*
X59777829Y-53830589D01*
X59772473Y-53864406D01*
X59742543Y-53927540D01*
X59683232Y-53964471D01*
X59613369Y-53963473D01*
X59555137Y-53924863D01*
X59527527Y-53864406D01*
X59526083Y-53855291D01*
X59522171Y-53830591D01*
X59466211Y-53658361D01*
X59466211Y-53658360D01*
X59437740Y-53602484D01*
X59383996Y-53497006D01*
X59370396Y-53478287D01*
X59277558Y-53350505D01*
X59277554Y-53350500D01*
X59149499Y-53222445D01*
X59149494Y-53222441D01*
X59002997Y-53116006D01*
X59002996Y-53116005D01*
X59002994Y-53116004D01*
X58951300Y-53089664D01*
X58841639Y-53033788D01*
X58841636Y-53033787D01*
X58669410Y-52977829D01*
X58490551Y-52949500D01*
X58490546Y-52949500D01*
X58309454Y-52949500D01*
X58309449Y-52949500D01*
X58130589Y-52977829D01*
X57958363Y-53033787D01*
X57958360Y-53033788D01*
X57797002Y-53116006D01*
X57650505Y-53222441D01*
X57650500Y-53222445D01*
X57522445Y-53350500D01*
X57522441Y-53350505D01*
X57416006Y-53497002D01*
X57333788Y-53658360D01*
X57333787Y-53658363D01*
X57277829Y-53830589D01*
X57249500Y-54009448D01*
X56800500Y-54009448D01*
X56800500Y-50979495D01*
X57919500Y-50979495D01*
X57919500Y-51215504D01*
X57919501Y-51215520D01*
X57950306Y-51449510D01*
X58011394Y-51677493D01*
X58101714Y-51895545D01*
X58101719Y-51895556D01*
X58172677Y-52018457D01*
X58219727Y-52099950D01*
X58219729Y-52099953D01*
X58219730Y-52099954D01*
X58363406Y-52287197D01*
X58363412Y-52287204D01*
X58530295Y-52454087D01*
X58530302Y-52454093D01*
X58546909Y-52466836D01*
X58717550Y-52597773D01*
X58848918Y-52673618D01*
X58921943Y-52715780D01*
X58921948Y-52715782D01*
X58921951Y-52715784D01*
X59140007Y-52806106D01*
X59367986Y-52867193D01*
X59601989Y-52898000D01*
X59601996Y-52898000D01*
X59838004Y-52898000D01*
X59838011Y-52898000D01*
X60072014Y-52867193D01*
X60299993Y-52806106D01*
X60518049Y-52715784D01*
X60722450Y-52597773D01*
X60909699Y-52454092D01*
X61076592Y-52287199D01*
X61220273Y-52099950D01*
X61338284Y-51895549D01*
X61428606Y-51677493D01*
X61489693Y-51449514D01*
X61520500Y-51215511D01*
X61520500Y-50979489D01*
X61489693Y-50745486D01*
X61428606Y-50517507D01*
X61338284Y-50299451D01*
X61338282Y-50299448D01*
X61338280Y-50299443D01*
X61282510Y-50202848D01*
X61220273Y-50095050D01*
X61145414Y-49997492D01*
X61145407Y-49997483D01*
X62999500Y-49997483D01*
X62999500Y-52197501D01*
X62999501Y-52197518D01*
X63010000Y-52300296D01*
X63010001Y-52300299D01*
X63060962Y-52454087D01*
X63065186Y-52466834D01*
X63157288Y-52616156D01*
X63281344Y-52740212D01*
X63430666Y-52832314D01*
X63597203Y-52887499D01*
X63699991Y-52898000D01*
X65900008Y-52897999D01*
X66002797Y-52887499D01*
X66169334Y-52832314D01*
X66318656Y-52740212D01*
X66442712Y-52616156D01*
X66534814Y-52466834D01*
X66589999Y-52300297D01*
X66600500Y-52197509D01*
X66600499Y-49997492D01*
X66589999Y-49894703D01*
X66534814Y-49728166D01*
X66442712Y-49578844D01*
X66318656Y-49454788D01*
X66169334Y-49362686D01*
X66002797Y-49307501D01*
X66002795Y-49307500D01*
X65900010Y-49297000D01*
X63699998Y-49297000D01*
X63699981Y-49297001D01*
X63597203Y-49307500D01*
X63597200Y-49307501D01*
X63430668Y-49362685D01*
X63430663Y-49362687D01*
X63281342Y-49454789D01*
X63157289Y-49578842D01*
X63065187Y-49728163D01*
X63065185Y-49728168D01*
X63060962Y-49740912D01*
X63010001Y-49894703D01*
X63010001Y-49894704D01*
X63010000Y-49894704D01*
X62999500Y-49997483D01*
X61145407Y-49997483D01*
X61076593Y-49907802D01*
X61076587Y-49907795D01*
X60909704Y-49740912D01*
X60909697Y-49740906D01*
X60722454Y-49597230D01*
X60722453Y-49597229D01*
X60722450Y-49597227D01*
X60640957Y-49550177D01*
X60518056Y-49479219D01*
X60518045Y-49479214D01*
X60299993Y-49388894D01*
X60072010Y-49327806D01*
X59838020Y-49297001D01*
X59838017Y-49297000D01*
X59838011Y-49297000D01*
X59601989Y-49297000D01*
X59601983Y-49297000D01*
X59601979Y-49297001D01*
X59367989Y-49327806D01*
X59140006Y-49388894D01*
X58921954Y-49479214D01*
X58921943Y-49479219D01*
X58717545Y-49597230D01*
X58530302Y-49740906D01*
X58530295Y-49740912D01*
X58363412Y-49907795D01*
X58363406Y-49907802D01*
X58219730Y-50095045D01*
X58101719Y-50299443D01*
X58101714Y-50299454D01*
X58011394Y-50517506D01*
X57950306Y-50745489D01*
X57919501Y-50979479D01*
X57919500Y-50979495D01*
X56800500Y-50979495D01*
X56800500Y-48509448D01*
X86349500Y-48509448D01*
X86349500Y-48690551D01*
X86377829Y-48869410D01*
X86433787Y-49041636D01*
X86433788Y-49041639D01*
X86516006Y-49202997D01*
X86622441Y-49349494D01*
X86622445Y-49349499D01*
X86750500Y-49477554D01*
X86750505Y-49477558D01*
X86878287Y-49570396D01*
X86897006Y-49583996D01*
X87002484Y-49637740D01*
X87058360Y-49666211D01*
X87058363Y-49666212D01*
X87144476Y-49694191D01*
X87230591Y-49722171D01*
X87313429Y-49735291D01*
X87409449Y-49750500D01*
X87409454Y-49750500D01*
X87590551Y-49750500D01*
X87677259Y-49736765D01*
X87769409Y-49722171D01*
X87941639Y-49666211D01*
X88102994Y-49583996D01*
X88249501Y-49477553D01*
X88377553Y-49349501D01*
X88483996Y-49202994D01*
X88566211Y-49041639D01*
X88622171Y-48869409D01*
X88636765Y-48777259D01*
X88650500Y-48690551D01*
X88650500Y-48509448D01*
X88634019Y-48405397D01*
X88622171Y-48330591D01*
X88566211Y-48158361D01*
X88566211Y-48158360D01*
X88537740Y-48102484D01*
X88483996Y-47997006D01*
X88470396Y-47978287D01*
X88377558Y-47850505D01*
X88377554Y-47850500D01*
X88249499Y-47722445D01*
X88249494Y-47722441D01*
X88102997Y-47616006D01*
X88102996Y-47616005D01*
X88102994Y-47616004D01*
X88051300Y-47589664D01*
X87941639Y-47533788D01*
X87941636Y-47533787D01*
X87769410Y-47477829D01*
X87590551Y-47449500D01*
X87590546Y-47449500D01*
X87409454Y-47449500D01*
X87409449Y-47449500D01*
X87230589Y-47477829D01*
X87058363Y-47533787D01*
X87058360Y-47533788D01*
X86897002Y-47616006D01*
X86750505Y-47722441D01*
X86750500Y-47722445D01*
X86622445Y-47850500D01*
X86622441Y-47850505D01*
X86516006Y-47997002D01*
X86433788Y-48158360D01*
X86433787Y-48158363D01*
X86377829Y-48330589D01*
X86349500Y-48509448D01*
X56800500Y-48509448D01*
X56800500Y-46509757D01*
X56802027Y-46490360D01*
X56807741Y-46454282D01*
X56812087Y-46426843D01*
X56824072Y-46389955D01*
X56848785Y-46341452D01*
X56871583Y-46310073D01*
X56910073Y-46271583D01*
X56941452Y-46248785D01*
X56989955Y-46224072D01*
X57026843Y-46212087D01*
X57078320Y-46203933D01*
X57090360Y-46202027D01*
X57109757Y-46200500D01*
X89753459Y-46200500D01*
X89820498Y-46220185D01*
G37*
%TD.AperFunction*%
%TD*%
M02*
