%TF.GenerationSoftware,KiCad,Pcbnew,9.0.3*%
%TF.CreationDate,2026-09-11T15:28:53+03:00*%
%TF.ProjectId,motor_controller,6d6f746f-725f-4636-9f6e-74726f6c6c65,rev?*%
%TF.SameCoordinates,Original*%
%TF.FileFunction,Profile,NP*%
%FSLAX46Y46*%
G04 Gerber Fmt 4.6, Leading zero omitted, Abs format (unit mm)*
G04 Created by KiCad (PCBNEW 9.0.3) date 2026-09-11 15:28:53*
%MOMM*%
%LPD*%
G01*
G04 APERTURE LIST*
%TA.AperFunction,Profile*%
%ADD10C,0.050000*%
%TD*%
G04 APERTURE END LIST*
D10*
X97000000Y-86500000D02*
X97000000Y-102800000D01*
X57100000Y-77500000D02*
X72300000Y-77500000D01*
X57100000Y-46000000D02*
X148200000Y-46000000D01*
X109900000Y-103800000D02*
X109900000Y-108300000D01*
X72800000Y-78000000D02*
X72800000Y-85500000D01*
X148700000Y-46500000D02*
X148700000Y-108300000D01*
X148700000Y-108300000D02*
G75*
G02*
X148200000Y-108800000I-500000J0D01*
G01*
X96500000Y-86000000D02*
G75*
G02*
X97000000Y-86500000I0J-500000D01*
G01*
X148200000Y-46000000D02*
G75*
G02*
X148700000Y-46500000I0J-500000D01*
G01*
X56600000Y-46500000D02*
X56600000Y-77000000D01*
X57100000Y-77500000D02*
G75*
G02*
X56600000Y-77000000I0J500000D01*
G01*
X72300000Y-77500000D02*
G75*
G02*
X72800000Y-78000000I0J-500000D01*
G01*
X110400000Y-108800000D02*
G75*
G02*
X109900000Y-108300000I0J500000D01*
G01*
X56600000Y-46500000D02*
G75*
G02*
X57100000Y-46000000I500000J0D01*
G01*
X110400000Y-108800000D02*
X148200000Y-108800000D01*
X73300000Y-86000000D02*
X96500000Y-86000000D01*
X97500000Y-103300000D02*
G75*
G02*
X97000000Y-102800000I0J500000D01*
G01*
X73300000Y-86000000D02*
G75*
G02*
X72800000Y-85500000I0J500000D01*
G01*
X97500000Y-103300000D02*
X109400000Y-103300000D01*
X109400000Y-103300000D02*
G75*
G02*
X109900000Y-103800000I0J-500000D01*
G01*
M02*
