M48
; DRILL file {KiCad 9.0.3} date 2026-09-11T15:28:57+0300
; FORMAT={-:-/ absolute / metric / decimal}
; #@! TF.CreationDate,2026-09-11T15:28:57+03:00
; #@! TF.GenerationSoftware,Kicad,Pcbnew,9.0.3
; #@! TF.FileFunction,Plated,1,4,PTH
FMAT,2
METRIC
; #@! TA.AperFunction,Plated,PTH,ViaDrill
T1C0.300
; #@! TA.AperFunction,Plated,PTH,ComponentDrill
T2C0.300
; #@! TA.AperFunction,Plated,PTH,ViaDrill
T3C0.400
; #@! TA.AperFunction,Plated,PTH,ComponentDrill
T4C0.500
; #@! TA.AperFunction,Plated,PTH,ViaDrill
T5C0.650
; #@! TA.AperFunction,Plated,PTH,ComponentDrill
T6C0.800
; #@! TA.AperFunction,Plated,PTH,ComponentDrill
T7C0.950
; #@! TA.AperFunction,Plated,PTH,ComponentDrill
T8C1.000
; #@! TA.AperFunction,Plated,PTH,ComponentDrill
T9C1.300
; #@! TA.AperFunction,Plated,PTH,ViaDrill
T10C1.500
; #@! TA.AperFunction,Plated,PTH,ComponentDrill
T11C3.200
%
G90
G05
T1
X96.089Y-78.045
X98.21Y-82.29
X100.9Y-82.2
X102.0Y-85.0
X104.1Y-90.6
X104.5Y-100.2
X105.7Y-92.7
X106.6Y-93.1
X112.2Y-83.0
X113.1Y-73.25
X113.2Y-104.3
X113.7Y-86.7
X114.9Y-49.4
X115.0Y-54.8
X115.8Y-94.925
X115.8Y-96.475
X115.9Y-73.25
X117.475Y-94.3
X118.0Y-82.85
X119.4Y-102.0
X120.8Y-88.2
X122.3Y-93.4
X122.5Y-49.4
X122.8Y-54.8
X124.0Y-90.4
X124.0Y-91.3
X124.6Y-87.9
X125.5Y-82.1
X125.8Y-94.6
X126.6Y-99.6
X127.1Y-73.3
X127.2Y-74.8
X127.8Y-104.1
X128.125Y-80.7
X128.3Y-85.4
X130.3Y-91.8
X132.1Y-88.6
X133.2Y-97.0
X133.2Y-105.8
X136.7Y-96.1
X138.1Y-70.4
X140.8Y-90.7
X140.8Y-93.1
X141.0Y-74.1
X146.1Y-81.6
X146.1Y-95.6
T2
X91.3Y-77.225
X91.3Y-78.225
X92.3Y-77.225
X92.3Y-78.225
T3
X89.0Y-80.9
X90.7Y-74.8
X90.8Y-80.9
X92.6Y-74.8
X92.6Y-80.9
X98.0Y-79.825
X98.4Y-74.175
X99.3Y-80.1
T4
X116.4Y-52.1
X117.103Y-50.403
X117.103Y-53.797
X118.8Y-49.7
X118.8Y-54.5
X120.497Y-50.403
X120.497Y-53.797
X121.2Y-52.1
X134.3Y-92.0
X135.003Y-90.303
X135.003Y-93.697
X136.7Y-89.6
X136.7Y-94.4
X138.397Y-90.303
X138.397Y-93.697
X139.1Y-92.0
T5
X58.4Y-54.1
X60.9Y-54.1
X76.3Y-54.5
X76.4Y-64.2
X78.1Y-54.7
X78.8Y-64.2
X79.5Y-52.2
X81.5Y-77.1
X82.6Y-79.9
X82.9Y-76.1
X87.5Y-48.6
X89.1Y-67.2
X91.15Y-48.6
X94.8Y-48.6
X96.84Y-66.66
X116.5Y-65.7
X118.6Y-66.3
X127.0Y-48.9
X130.9Y-66.3
X132.1Y-65.0
X137.5Y-53.3
X137.5Y-55.8
X140.1Y-66.0
X141.1Y-56.7
X142.7Y-66.0
X144.9Y-58.3
T6
X77.4Y-57.2
X77.4Y-60.7
X79.2Y-77.272
X79.2Y-80.772
X114.3Y-62.57
X114.3Y-66.07
X126.0Y-62.57
X126.0Y-66.07
X141.0Y-60.17
X141.0Y-63.67
T7
X146.6Y-85.6
X146.6Y-88.1
X146.6Y-90.6
X146.6Y-100.25
X146.6Y-102.75
X146.6Y-105.25
T8
X101.185Y-90.89
X101.185Y-93.43
X101.185Y-95.97
X101.185Y-98.51
X116.69Y-104.515
X119.23Y-104.515
X121.77Y-104.515
X124.31Y-104.515
X138.205Y-78.86
X138.205Y-81.4
T9
X59.72Y-51.097
X62.035Y-66.155
X62.035Y-71.235
X64.8Y-51.097
T10
X85.4Y-73.8
X94.1Y-72.2
T11
X118.8Y-52.1
X136.7Y-92.0
M30
